<svg width="51" height="122" viewBox="0 0 51 122" fill="none" xmlns="http://www.w3.org/2000/svg">
<g opacity="0.3" clip-path="url(#clip0_1_1352)">
<path d="M26.2804 80.4383C27.4777 79.2098 28.123 78.4227 28.2175 78.0772C28.3589 77.5585 28.7695 76.7987 29.3712 76.2443C29.973 75.6899 30.9147 74.74 31.6901 73.2772C32.4655 71.8143 34.9614 67.3985 36.2876 65.8352C37.1716 64.7928 38.1857 63.6386 39.3293 62.3721C39.2032 61.551 39.2207 60.9892 39.383 60.6873C39.5453 60.3855 40.0165 60.1483 40.797 59.9775C40.4497 58.0294 40.4757 56.7073 40.8744 56.0111C41.2732 55.3148 41.6538 55.1236 42.0158 55.4379C42.3755 55.077 42.7821 54.8728 43.2357 54.8251C43.9167 54.7542 45.1355 53.3378 45.3283 52.7551C45.5212 52.1723 44.9307 50.9869 44.804 49.9406C44.6773 48.8942 45.6247 47.8949 46.1818 47.5363C46.5534 47.2974 47.5697 47.1879 49.2302 47.2072L49.2602 46.6318C48.12 45.5321 47.482 44.7337 47.3469 44.2366C47.2117 43.7396 47.4883 43.1381 48.176 42.4316C48.3242 41.6797 48.5408 41.1821 48.8264 40.9392C49.112 40.6964 49.3891 40.5568 49.6578 40.5222C49.9197 40.2157 49.8331 39.4866 49.3976 38.3352C48.7444 36.6074 48.7269 34.1549 48.2885 33.1568C47.8502 32.1586 46.6885 27.9743 46.2236 27.252C45.7587 26.5296 45.6959 25.271 45.6807 25.0333C45.6654 24.7955 44.825 23.5914 44.6598 22.9871C44.4952 22.3827 44.5789 21.0669 44.8843 21.0504C45.1898 21.0339 47.0793 20.614 50.2579 21.3245C53.4364 22.0349 57.2942 24.8273 59.0361 26.6879C60.7781 28.5486 63.9402 33.0666 64.3899 33.9211C64.8395 34.7757 68.1249 40.4524 69.187 43.5387C70.2492 46.625 72.8356 62.7755 73.1879 64.8353C73.4226 66.2085 73.8864 69.2109 74.5781 73.8435L67.9671 79.3142C61.3595 77.306 54.7683 76.2341 48.193 76.0985C41.6199 75.9612 34.3149 77.4082 26.2804 80.4383Z" fill="#351220"/>
<path d="M46.3877 24.6242L46.9273 24.6281C48.6738 24.661 54.0909 25.1042 56.3509 28.4703L57.758 30.5874C59.2862 32.9236 60.4287 34.8409 61.2991 36.8639L61.8223 38.131C63.0043 41.0709 64.912 46.1711 65.93 48.4028L66.4792 49.5746C67.987 52.9633 72.2814 64.0455 71.6412 65.0697C70.9478 66.1796 62.2843 73.8287 60.4954 74.2929C58.7879 74.7355 57.4854 74.1397 60.0673 71.1845L60.4632 70.7458C63.3821 67.6073 66.6975 62.9078 67.4848 61.4273L68.0028 60.3611C68.5441 59.1927 68.9485 57.563 66.0035 55.9532C62.5066 54.0415 57.6794 52.8323 56.3571 52.0072L56.1411 51.8472C55.252 51.0198 50.2116 49.8872 50.4395 49.2352C50.6669 48.5833 50.8015 46.6017 50.6884 46.0888C50.6126 45.7472 49.9277 44.7922 48.6331 43.2232L48.3305 41.825C48.4634 41.404 48.6297 41.1083 48.8299 40.9381C49.1155 40.6952 49.3926 40.5557 49.6613 40.521C49.9231 40.2146 49.8366 39.4855 49.4011 38.3341C48.7479 36.6063 48.7303 34.1538 48.292 33.1556C47.8939 32.2483 46.8973 28.7075 46.3702 27.5289L46.2271 27.2508C45.7622 26.5285 45.6994 25.2699 45.6842 25.0321C45.6802 24.968 45.6163 24.8341 45.5219 24.661C45.7611 24.6383 46.0512 24.6264 46.3877 24.6242Z" fill="#6F374E"/>
<path d="M47.79 28.2654C47.5349 28.8556 49.2933 29.9099 50.8147 28.9492C52.3361 27.9885 52.4107 26.491 51.4289 26.1103C50.447 25.7295 48.0445 27.6753 47.79 28.2654Z" fill="#915970"/>
<path d="M49.6012 33.445C49.3461 34.0351 51.6322 35.1138 53.0365 34.5356C54.4408 33.9574 54.4352 31.8255 53.6094 31.0492C52.7837 30.273 49.8563 32.8548 49.6012 33.445Z" fill="#915970"/>
<path d="M62.8805 51.1089C60.7081 51.3524 60.9281 50.0654 59.3547 49.0213C58.0471 48.1537 58.4888 46.7113 57.3746 46.8588C55.9177 47.0512 55.3165 47.0529 54.1695 46.3651C52.7901 45.5384 52.9767 44.7184 52.4711 44.0585C51.1465 42.3312 50.0838 44.5062 49.5544 43.718C49.3282 43.381 50.236 41.9805 51.9983 41.4902C54.053 40.9188 57.2977 40.9296 57.2785 40.8785C56.5483 38.9436 56.3057 37.134 56.2299 36.4621C56.1355 35.6223 56.2678 35.5168 56.4725 33.1579C56.5698 32.0355 56.1502 29.1444 53.893 27.172C51.25 24.8625 47.2277 23.899 47.5732 23.9205C48.1145 23.9546 52.4225 23.8133 55.2939 26.0008C58.9633 28.796 61.3093 34.0959 61.4383 34.4642C61.7872 35.4617 65.0529 50.8655 62.8805 51.1089Z" fill="#421A2C"/>
<path d="M44.8867 21.0493L45.8069 20.9472C46.7062 20.8774 48.2168 20.8666 50.2602 21.3234C53.4388 22.0338 57.2965 24.8262 59.0385 26.6868C60.664 28.4232 63.5275 32.4747 64.2678 33.7021L66.3842 37.5573C67.4424 39.5434 68.6278 41.9034 69.19 43.537C69.3206 43.9172 69.475 44.496 69.6453 45.2223L69.3484 45.7716C68.6227 47.3389 66.2541 47.8354 65.9866 46.9042L65.6246 45.7977C64.9097 43.6987 63.4144 39.5349 62.8974 38.4471C62.251 37.0875 58.1692 31.1889 56.1631 28.3858C54.157 25.5826 49.9905 24.5515 48.1569 24.3325C47.3034 24.2304 46.4302 24.3473 45.5354 24.6832L45.053 23.8337C44.8811 23.5228 44.7244 23.2124 44.6628 22.9854C44.497 22.3817 44.5813 21.0658 44.8867 21.0493Z" fill="#380A1D"/>
<path d="M44.8865 21.0493L45.8067 20.9471L46.5945 20.9119C47.4949 20.9006 48.7273 20.9806 50.26 21.3233C53.4385 22.0338 57.2963 24.8261 59.0383 26.6868C60.6637 28.4232 63.5272 32.4747 64.2675 33.7021L64.9813 35.0072C61.0562 29.6346 57.7957 26.1472 55.1997 24.5453C52.3085 22.7607 48.7737 21.8664 44.5952 21.8618C44.6263 21.4255 44.7259 21.0578 44.8865 21.0493Z" fill="#653348"/>
<path d="M1.77743 115.785C0.598771 113.163 -0.00243958 111.391 -0.0261937 110.469C-0.0618248 109.086 0.975445 106.962 5.80488 101.996C10.6337 97.0314 22.0131 85.905 23.7703 83.4304C24.6108 81.8461 24.8393 81.008 25.7917 80.0643C26.7441 79.1206 33.3602 76.4191 35.5422 75.5951C37.7242 74.7707 43.6853 73.6982 50.6724 74.1039C55.3305 74.3746 61.4726 75.6161 69.1005 77.8292C59.7872 88.1373 51.7481 95.2876 44.9822 99.2802C34.8335 105.269 18.7226 112.049 13.866 113.928C10.627 115.181 6.59781 115.8 1.77743 115.785Z" fill="#E6E4E7"/>
<path d="M35.5419 75.5958C36.8806 75.0902 39.6423 74.4904 43.1907 74.1965L43.797 73.1989C39.8844 79.9168 34.3819 86.0957 27.2902 91.7355L25.5403 93.115C16.9509 99.8238 6.62467 106.945 2.4202 105.744C3.11868 104.883 4.00154 103.885 5.11119 102.718L6.93403 100.844C12.2103 95.4863 22.1389 85.7291 23.77 83.431C24.6105 81.8467 24.839 81.0086 25.7914 80.0649C26.7438 79.1213 33.3599 76.4197 35.5419 75.5958Z" fill="#F5F3F6"/>
<path d="M31.3332 79.7386C34.6689 78.5946 41.5429 76.915 46.0766 76.9292C50.6102 76.9434 56.4039 77.672 57.53 77.9262C58.6153 78.1713 63.4697 81.6475 64.0669 83.2374C56.8496 90.6794 50.4926 96.0276 44.9811 99.2802C34.8324 105.269 18.7215 112.049 13.8649 113.928C10.627 115.181 6.59783 115.8 1.77744 115.785L1.13947 114.314C0.381602 112.488 -0.00694985 111.207 -0.0261794 110.469C-0.0476712 109.642 0.314864 108.55 1.64283 106.743C1.99009 107.931 3.33955 108.321 5.69177 107.914C11.4024 106.926 33.2675 96.9258 42.2963 91.7984L43.7215 90.8298C47.9882 87.861 41.6142 78.1441 40.2399 78.2587C37.9481 78.4505 33.3953 79.0656 31.3332 79.7386Z" fill="#D4D1D5"/>
<path d="M4.9311 110.462C7.91846 110.203 21.2818 105.752 26.5632 103.599L27.7045 103.112C31.8281 101.242 37.9504 99.4589 41.1273 100.523C41.582 100.675 41.4016 101.074 40.7449 101.651L38.4985 102.828C28.9827 107.725 17.7758 112.415 13.8649 113.928C10.627 115.181 6.59785 115.8 1.77746 115.785L1.13949 114.314C0.381625 112.488 -0.00692687 111.207 -0.0261564 110.469C-0.0397302 109.954 0.0960089 109.336 0.52132 108.506C1.23055 109.44 2.60263 110.664 4.9311 110.462Z" fill="#BEBBC0"/>
<path d="M35.0953 75.7665L35.5415 75.5957C37.7235 74.7712 43.6846 73.6987 50.6717 74.1045C54.8027 74.3445 60.1016 75.3483 66.5689 77.1159C66.156 77.6969 65.453 78.3052 64.4701 78.9431L62.0109 78.2031C56.1052 76.4656 52.011 75.5685 49.7284 75.5117L35.0953 75.7665Z" fill="#BFBAC2"/>
<path d="M24.4068 82.1645L24.9939 81.8507C28.3885 80.0365 33.2648 77.7441 36.6424 77.0728C41.7089 76.0656 48.2067 75.7796 52.4372 76.2835C54.8816 76.5746 58.8927 77.4609 64.4698 78.9425L67.1552 79.6683L66.9566 80.1693L65.3136 81.9193L63.2363 80.793C58.1337 78.3002 48.0501 77.6947 44.2539 77.752C40.4572 77.8093 34.8496 78.6208 29.5564 80.6307C27.5441 81.395 25.6635 82.2331 23.9153 83.1456L24.4068 82.1645Z" fill="#8F8F91"/>
<path d="M34.0072 75.4953C33.5338 75.4902 33.2488 73.9076 34.2979 72.3255C35.3476 70.7435 36.1236 70.0285 36.5308 68.6207C36.938 67.2134 36.5834 66.8605 38.3287 65.1287C40.0741 63.3968 42.9512 58.2547 43.1231 58.3931C43.2951 58.5316 48.4887 65.4742 48.6369 69.4475C48.7851 73.4207 48.0063 73.2709 47.6109 73.2908C47.2156 73.3106 41.4173 72.9616 39.4005 73.5949C37.3842 74.2282 34.4806 75.5004 34.0072 75.4953Z" fill="#712E3D"/>
<path d="M50.5353 28.2354C49.4766 28.9038 47.578 28.5128 47.216 27.7275C46.854 26.9422 47.4943 26.0961 48.2487 25.4969C49.0032 24.8982 50.4697 24.4324 51.0608 25.1621C51.6512 25.8913 51.5935 27.5669 50.5353 28.2354Z" fill="#421A2C"/>
<path d="M52.5467 33.6516C51.238 34.4199 49.6889 34.2406 49.2274 33.1437C48.7658 32.0469 49.3354 31.3058 50.0893 30.7066C50.8432 30.1074 52.489 29.4378 53.157 30.1942C53.8255 30.9506 53.8554 32.8833 52.5467 33.6516Z" fill="#421A2C"/>
<path d="M39.6455 66.2664C38.1756 67.2413 37.9035 68.5697 38.0528 69.0571C38.2021 69.5445 39.3853 69.8231 40.7625 69.0843C42.1391 68.3455 41.1154 65.2916 39.6455 66.2664Z" fill="#190912"/>
<path d="M50.9628 27.9204C51.3762 27.4676 51.2857 26.5126 50.8237 26.1812C50.3616 25.8499 49.4889 25.8141 49.1682 26.4599C48.8476 27.1056 48.6502 27.7167 49.1179 28.0504C49.5856 28.3835 50.5499 28.3733 50.9628 27.9204Z" fill="#091118"/>
<path d="M53.2347 33.9104C53.6481 33.4575 53.5577 32.5025 53.0956 32.1712C52.6335 31.8398 51.7608 31.804 51.4401 32.4498C51.1195 33.0955 50.9221 33.7066 51.3898 34.0403C51.8575 34.3734 52.8218 34.3632 53.2347 33.9104Z" fill="#091118"/>
<path d="M59.0853 53.0451C58.6379 52.4793 54.2429 49.868 52.6038 49.4339C50.9648 48.9998 47.7014 48.1151 46.9888 48.4249C46.2762 48.7348 45.7768 49.1547 45.6727 49.8174C45.5687 50.4802 45.6558 51.7853 46.0992 51.8966C46.5426 52.0072 46.7643 50.1284 47.8213 50.0944C48.879 50.0603 54.4561 52.1139 56.7591 53.6199C59.0621 55.1259 51.8692 59.5111 51.2029 59.3709C50.5367 59.2307 46.3073 56.2551 45.3068 55.8624C44.3063 55.4697 42.6322 54.0948 41.3297 55.1803C40.0272 56.2659 40.9824 60.5954 41.4162 61.7366C41.7058 62.4975 41.9699 63.4724 42.2097 64.6623C43.3482 65.4159 43.8815 65.5174 43.8097 64.9664C43.7017 64.1403 42.8873 59.5258 42.609 58.6417C42.3302 57.7577 42.6079 56.9604 43.8765 57.4422C45.145 57.9239 49.6436 61.4954 50.0016 61.635C50.3596 61.774 52.0665 61.4307 55.7094 58.9351C59.3523 56.4395 59.5327 53.6108 59.0853 53.0451Z" fill="#EFEDEE"/>
<path d="M48.294 49.4775C49.9296 49.8049 56.1973 52.115 57.5264 53.2351C58.0547 53.6806 58.5931 54.4438 58.9172 55.2972C58.4709 56.3782 57.5157 57.6975 55.7098 58.9351C52.0669 61.4307 50.3606 61.774 50.002 61.635C49.644 61.496 45.1449 57.9245 43.8769 57.4421C42.7236 57.0041 42.3894 57.6232 42.5477 58.404L42.7661 59.2619C42.9804 60.2175 43.2903 61.8835 43.5194 63.1915C43.1495 62.3063 42.8537 61.4715 42.6303 60.6879C41.8278 57.8734 42.1207 56.6937 43.0121 56.4888C43.9034 56.284 45.3677 57.4217 47.6673 58.4289C49.9669 59.4361 50.7819 61.303 52.4979 60.0257C52.9577 59.6835 53.1557 59.1763 53.0929 58.5033L53.8507 58.0204C55.9196 56.6369 58.2034 54.5641 56.7606 53.6204C54.4576 52.1144 48.8799 50.0609 47.8229 50.0949C47.1159 50.1176 46.7828 50.9654 46.5068 51.4914C46.7415 49.9542 47.3382 49.2863 48.294 49.4775ZM40.7317 56.5098L40.6876 56.1036C40.842 57.8053 41.2056 59.5008 41.7791 61.1907C42.1615 62.3176 42.8368 63.5813 43.8039 64.9834C43.8655 65.514 43.3311 65.4039 42.2101 64.6623C42.0184 63.7107 41.8108 62.8964 41.5868 62.2189L41.416 61.7365C41.0914 60.882 40.4738 58.2388 40.7317 56.5098Z" fill="#BBB6B6"/>
<path d="M58.0627 51.7127C61.731 50.4115 64.6143 50.3599 68.3884 52.0645C72.1624 53.7691 76.2227 55.7228 81.7976 58.8312C85.5145 60.9035 88.5646 62.6563 90.9497 64.0897C85.0434 65.7086 81.1952 67.0733 79.4046 68.1844C76.7187 69.8509 57.9643 89.2098 54.9396 92.0822C52.9233 93.9973 48.9824 96.8095 43.1174 100.519C42.3493 95.1651 41.6554 90.6267 41.0349 86.9043C40.104 81.3212 39.4044 69.7738 40.0927 66.8333C40.7804 63.8928 43.269 60.1647 45.1772 58.7654C47.0849 57.3661 54.3944 53.0132 58.0627 51.7127ZM48.0475 70.8468C47.2087 70.9546 46.3559 72.2308 46.0459 72.6166C45.736 73.0025 45.7886 73.4621 46.146 74.8263C46.5035 76.1904 47.4666 84.5692 47.6533 85.7387C47.8399 86.9082 48.289 87.6794 48.8806 87.6652C49.4716 87.6516 56.7986 80.9541 56.9508 80.0314C57.1029 79.1088 55.2603 75.989 53.7479 74.3922C52.2361 72.7965 48.8868 70.739 48.0475 70.8468ZM60.2005 58.4533C59.5258 58.8329 58.4823 59.3209 57.2567 61.3694C56.0317 63.4178 57.2579 65.5894 57.8743 66.3901C58.4908 67.1908 61.5902 68.0368 62.8282 68.2666C64.0662 68.4965 65.7833 69.1836 66.3251 68.9606C66.867 68.7376 70.5596 64.694 71.0188 64.1544C71.4787 63.6148 70.421 62.5145 69.0727 61.9692C67.7244 61.4239 65.6583 60.4286 64.2834 59.6847C62.9085 58.9407 60.8747 58.0737 60.2005 58.4533Z" fill="#5D5B60"/>
<path d="M58.2677 51.5203C61.936 50.2192 64.8193 50.1675 68.5934 51.8721C72.3675 53.5767 76.4277 55.5304 82.0026 58.6389C85.7195 60.7112 88.7697 62.464 91.1547 63.8974C85.2484 65.5163 81.4002 66.881 79.6096 67.992C76.9237 69.6586 57.1405 89.6235 54.1158 92.4959C52.0996 94.411 48.1586 97.2232 42.2936 100.933C41.5256 95.5788 40.8316 91.0398 40.2112 87.318C39.2803 81.7349 38.5806 70.1875 39.2689 67.247C39.9567 64.3065 42.4452 60.5784 44.3535 59.1791C46.2611 57.7798 54.5994 52.8209 58.2677 51.5203ZM47.2243 71.2605C46.3856 71.3683 45.5327 72.6445 45.2227 73.0303C44.9128 73.4162 44.9654 73.8764 45.3228 75.24C45.6803 76.6035 46.6435 84.9829 46.8301 86.1524C47.0167 87.3219 47.4658 88.0931 48.0574 88.0789C48.649 88.0647 55.9754 81.3678 56.1276 80.4451C56.2797 79.5224 54.4371 76.4026 52.9247 74.8059C51.4124 73.2102 48.0631 71.1527 47.2243 71.2605ZM59.3768 58.867C58.7021 59.2466 57.6586 59.7346 56.433 61.7831C55.2074 63.8315 56.4341 66.0031 57.0506 66.8038C57.6671 67.6045 60.7664 68.4505 62.0044 68.6803C63.2425 68.9101 64.9596 69.5973 65.5014 69.3743C66.0432 69.1507 69.7358 65.1077 70.1951 64.5681C70.6549 64.0284 69.5973 62.9282 68.2489 62.3829C66.9006 61.8376 64.8346 60.8423 63.4597 60.0983C62.0848 59.3544 60.0515 58.4874 59.3768 58.867Z" fill="#D7D6D8"/>
<path d="M58.268 51.5204C60.0869 50.8752 61.7135 50.537 63.3508 50.5682C58.863 53.0462 54.7405 56.3033 50.9823 60.335C45.2796 66.4526 41.1877 71.4909 39.112 76.0356L39.0413 74.2884C38.9378 71.1544 38.9848 68.4636 39.2698 67.247C39.9576 64.3065 42.4461 60.5784 44.3543 59.1791C46.2614 57.7798 54.5997 52.8209 58.268 51.5204Z" fill="#E0DFE1"/>
<path d="M42.8856 65.2178C42.0983 65.7636 41.9886 66.2068 42.6107 66.284C43.2334 66.3612 43.89 65.6683 43.8753 65.3602C43.8606 65.0521 43.6728 64.6719 42.8856 65.2178Z" fill="#4F4F4E"/>
<path d="M50.5279 59.3153C49.7407 59.8611 49.6309 60.3043 50.2531 60.3815C50.8758 60.4586 51.5324 59.7658 51.5177 59.4577C51.503 59.149 51.3152 58.7694 50.5279 59.3153Z" fill="#4F4F4E"/>
<path d="M68.5934 51.8721L70.5102 52.7494C73.4381 54.109 76.6415 55.6939 80.6401 57.8853L84.6659 60.1329C87.2036 61.5674 89.367 62.8221 91.1553 63.8968L87.8586 64.8376C83.7921 66.0514 81.0428 67.1028 79.6102 67.9915C76.9243 69.658 57.1411 89.6229 54.1164 92.4953L53.2076 93.309C51.0154 95.1759 47.3776 97.7175 42.2948 100.933L41.3147 94.2765C41.0805 92.7336 40.8549 91.281 40.6371 89.9197L40.2124 87.3174C40.084 86.5485 39.9607 85.6667 39.8442 84.71C41.9962 82.7875 44.0176 80.8866 45.9145 79.0038L46.8313 86.1519C47.0179 87.3214 47.467 88.0925 48.0586 88.0783C48.6502 88.0641 55.9766 81.3672 56.1288 80.4445C56.2809 79.5219 54.4382 76.4021 52.9259 74.8053C52.4904 74.3457 51.9028 73.848 51.2665 73.3748C53.3246 71.0647 55.1905 68.7836 56.8629 66.5303L57.0518 66.8032C57.6066 67.5239 60.1726 68.2814 61.5826 68.5929L62.0056 68.6798C63.2437 68.9096 64.9607 69.5967 65.5026 69.3737C66.0444 69.1502 69.737 65.1071 70.1963 64.5675C70.6561 64.0279 69.5984 62.9276 68.2501 62.3823C67.1263 61.9278 65.5043 61.1612 64.1995 60.4876L63.4608 60.0978C62.9179 59.8038 62.2726 59.4912 61.6487 59.2432C63.2765 56.3907 64.5733 53.5858 65.5422 50.8275C66.5059 51.0403 67.5132 51.3841 68.5934 51.8721Z" fill="#CBCCCF"/>
<path d="M70.2561 64.6566C70.9138 64.2418 71.562 63.9388 72.1954 63.7799C75.6867 62.7 78.9993 61.5374 82.1337 60.2918L83.7541 59.6256L84.6658 60.1329C87.2035 61.5674 89.3668 62.822 91.1552 63.8968L87.8584 64.8376L85.9349 65.4311C82.9119 66.3975 80.8041 67.2509 79.6101 67.9914C76.9242 69.658 57.141 89.6229 54.1163 92.4953L53.2074 93.309C51.0153 95.1759 47.3775 97.7175 42.2947 100.933L41.2178 93.6438L43.1685 91.921C44.5406 90.692 46.041 89.3176 47.5726 87.8882C47.718 88.017 47.882 88.0829 48.0579 88.0789C48.6489 88.0653 55.9759 81.3678 56.1281 80.4451C56.1558 80.276 56.1167 80.0331 56.0251 79.7398L57.4323 78.3036C58.5402 77.1602 59.4757 76.1603 60.1561 75.3778C61.7844 73.5059 63.4783 71.3558 65.1755 69.4123C65.3124 69.4203 65.4204 69.4072 65.5019 69.3737C65.9815 69.1763 68.9287 65.9861 69.919 64.8813L70.2561 64.6566Z" fill="#BCBDC1"/>
<path d="M58.2679 51.5203C61.9362 50.2192 64.8195 50.1675 68.5936 51.8721L70.5103 52.7494C73.4383 54.109 76.6417 55.6939 80.6403 57.8853L82.0034 58.6389C85.3917 60.5279 88.2264 62.1519 90.5079 63.5098L89.8394 63.7118L79.6766 58.3166C73.9411 55.3006 70.2858 53.4462 68.7095 52.754L68.4663 52.6495C65.328 51.3348 62.551 51.1118 59.7723 51.7638C56.9937 52.4163 47.0582 57.9426 45.2829 59.0945C43.5076 60.2465 40.9348 64.1272 40.0898 66.1484C39.604 67.31 39.3008 70.9592 39.1798 77.0966C38.9315 72.842 38.9032 68.8171 39.2703 67.2464C39.958 64.3059 42.4465 60.5778 44.3548 59.1785C46.2613 57.7798 54.5996 52.8209 58.2679 51.5203Z" fill="white"/>
<path d="M40.6175 60.0189L40.5982 60.1494L40.488 60.3094C40.2148 60.5971 42.054 63.1058 42.7757 63.8729L42.9425 64.0358C43.4787 64.4915 43.7581 65.253 43.6687 65.4913C43.5794 65.7296 43.1162 66.2466 42.4448 66.1058C41.7735 65.9651 40.6339 64.3388 39.9173 63.2351C39.7267 62.9412 39.5157 62.5661 39.3036 62.1394L39.3308 62.3721C39.2047 61.551 39.2222 60.9892 39.3845 60.6873C39.5333 60.4087 39.9444 60.1857 40.6175 60.0189ZM49.1112 40.7304L49.2871 40.6396L49.4642 40.5647L49.6593 40.5216L49.6751 40.4898L49.7272 40.4694C50.1355 40.319 50.6869 40.2271 51.3096 40.1431L52.6285 39.97C53.771 39.8094 55.6838 39.8418 56.3353 39.6267L57.1243 39.402C58.1536 39.1279 59.7237 38.7495 60.214 38.6558C60.8678 38.5304 61.5143 39.499 60.9866 40.2049C60.4589 40.9108 58.1141 41.6003 57.1124 41.6287C56.1108 41.657 54.6041 41.8312 53.2665 41.9107C51.9289 41.9901 50.9641 42.5122 50.4975 42.7465C50.0309 42.9809 49.049 43.1829 48.842 43.3889C48.9371 43.7435 51.0738 45.8328 52.063 46.7101C53.0522 47.5879 57.169 50.5244 58.0332 51.53L59.3877 53.0013C59.9476 53.6352 60.3905 54.252 60.3 54.6923C60.1377 55.485 59.5732 55.8039 59.0235 55.7676C58.4738 55.7307 56.8336 53.8525 56.2855 53.1869C55.8161 52.616 54.6957 51.648 53.6811 50.6952L53.1862 50.222C52.1925 49.2511 50.4799 47.9131 49.7843 47.1606L49.5745 46.9081C49.4082 46.6709 49.2645 46.5563 49.1616 46.5336L49.26 46.6312C48.1198 45.5315 47.4818 44.7331 47.3467 44.2361C47.2115 43.739 47.488 43.1375 48.1758 42.431C48.324 41.6792 48.5406 41.1815 48.8262 40.9386L49.1112 40.7304ZM49.1435 47.2055L49.2074 47.3797C49.273 47.8512 48.8092 48.1888 48.6418 48.1599C48.4467 48.1264 46.746 48.215 46.3925 48.7291C46.0979 49.1575 47.2002 51.2343 47.9807 52.5258L48.9026 54.0012C49.6672 55.287 50.7005 57.2032 50.8939 57.723L51.1162 58.3529C51.2995 58.9146 51.4375 59.5082 51.2423 59.6744C50.9686 59.9077 50.3634 60.3837 49.9754 60.1352C49.7164 59.9695 49.424 59.4792 49.1706 58.9595L48.829 58.194C48.5649 57.5522 46.211 53.5869 45.2529 51.7774L44.9249 50.5687C44.8734 50.3576 44.8304 50.1454 44.8055 49.9394C44.6788 48.893 45.6262 47.8938 46.1833 47.5352C46.5486 47.3008 47.535 47.1907 49.1435 47.2055Z" fill="#F1EEEE"/>
<path d="M39.2831 62.0055C39.9375 63.007 40.7203 64.0534 41.1835 64.4812C41.9515 65.1911 43.3185 65.2643 42.6257 64.2582C42.2445 63.705 41.6218 62.7511 41.227 61.8665C41.749 62.6371 42.4074 63.4808 42.7755 63.8718L42.9424 64.0347C43.4786 64.4903 43.7579 65.2518 43.6686 65.4902C43.5792 65.7285 43.116 66.2454 42.4447 66.1047C41.7733 65.964 40.6337 64.3377 39.9171 63.234C39.7265 62.9401 39.5156 62.565 39.3035 62.1383L39.2831 62.0055ZM47.4161 44.4171C48.1502 45.1065 48.938 45.8737 49.779 46.718C51.0657 48.0095 52.7794 49.2698 54.022 50.243L54.6 50.7043C55.8375 51.7195 58.507 54.5272 58.9951 54.1146C59.3497 53.815 58.7587 52.931 58.0302 51.93L57.1264 50.6862L57.666 51.1577C57.7429 51.2286 57.8125 51.2956 57.8741 51.3574L59.3893 53.0002C59.9492 53.634 60.392 54.2508 60.3015 54.6912C60.1392 55.4839 59.5748 55.8028 59.0251 55.7665C58.5975 55.7381 57.5104 54.5953 56.7905 53.7759L56.2871 53.1857C55.8177 52.6149 54.6973 51.6468 53.6826 50.6941L53.1878 50.2209C52.1941 49.25 50.4815 47.9119 49.7858 47.1595L49.576 46.907C49.4097 46.6698 49.2661 46.5552 49.1631 46.5325L48.804 46.1773C48.0919 45.4532 47.6367 44.8829 47.4376 44.4664L47.4161 44.4171ZM46.3839 48.7535C46.0977 49.158 47.1995 51.2349 47.9805 52.5264L48.9024 54.0017L49.4397 54.9301C50.0845 56.07 50.7433 57.319 50.8938 57.723L51.1161 58.3529C51.2993 58.9146 51.4373 59.5082 51.2422 59.6744C50.9685 59.9077 50.3633 60.3837 49.9753 60.1352C49.7163 59.9695 49.4239 59.4792 49.1705 58.9595L48.8289 58.194C48.5648 57.5522 46.2108 53.5869 45.2528 51.7774L45.0791 51.1458L46.2165 53.0921C46.5485 53.6482 46.833 54.1118 47.0711 54.4824L47.4834 55.1003C48.399 56.3952 49.692 59.1864 50.2473 58.7575C50.6789 58.4238 50.5205 57.8456 49.235 55.594L47.8442 53.2209C45.9744 50.0716 46.0496 49.1098 46.3839 48.7535ZM48.3906 42.7579C49.2944 42.3754 50.0726 42.1223 50.7264 41.9986L51.9452 41.8318C53.7177 41.5708 57.4098 40.9052 58.8871 40.4609C59.9215 40.1499 60.2738 39.5881 59.9447 38.7761L59.9181 38.7177L60.2145 38.6558C60.8683 38.5304 61.5147 39.499 60.987 40.2049C60.4593 40.9108 58.1145 41.6003 57.1128 41.6287C56.1112 41.657 54.6045 41.8312 53.2669 41.9107C51.9294 41.9901 50.9645 42.5122 50.4979 42.7465C50.0471 42.9729 49.1156 43.1687 48.8662 43.3679L48.3906 42.7579Z" fill="#BDB8B8"/>
<path d="M2.68009 115.615C1.80798 114.304 1.27464 113.398 1.08065 112.897C0.789376 112.146 0.31373 110.562 -0.226958 110.506C-0.767647 110.451 -0.961642 111.549 -0.448101 112.976C0.0654395 114.403 0.328997 114.87 0.82444 115.864C1.31988 116.857 2.84354 119.88 5.8326 120.766C8.82166 121.653 15.1289 122.099 15.7296 121.828C16.3302 121.557 16.6317 120.883 16.751 120.594C16.8709 120.305 17.4608 119.477 17.3539 119.206C17.247 118.935 10.1004 119.043 7.43148 118.481C5.65218 118.106 4.06857 117.15 2.68009 115.615Z" fill="#BFAFAF"/>
<path d="M2.89919 114.741C1.97674 115.171 2.02708 116.017 2.77081 116.929C3.51454 117.84 5.20673 118.907 7.06577 119.351C8.92481 119.795 16.1817 120.286 16.5578 120.117C16.9339 119.948 17.3355 119.026 18.1001 119.187C18.8648 119.348 19.9925 118.309 20.2991 118.351C20.6056 118.392 20.7283 119.395 21.3951 119.483C22.062 119.572 22.679 119.226 22.9052 119.436C23.1315 119.645 23.8333 120.454 24.7762 120.353C25.7184 120.251 30.1072 119.11 31.1536 118.945C32.1999 118.78 36.4564 117.371 36.7952 117.129C37.1339 116.888 37.8047 114.953 38.2131 114.505C38.6214 114.056 39.4726 114.423 39.7299 114.94C39.9878 115.457 43.4995 114.473 44.8891 113.834C46.2787 113.194 58.4046 107.014 59.9548 106.269C61.5051 105.524 63.2222 104.658 63.7227 104.378C64.2232 104.097 64.1848 103.328 64.1757 102.666C64.1667 102.003 65.0377 99.6581 66.153 99.1764C67.2683 98.6946 69.8365 98.984 70.4468 98.8909C71.0571 98.7979 89.0338 89.6501 89.5276 89.3709C90.0213 89.0918 90.2639 88.2378 91.0422 87.6266C91.8204 87.0155 93.5737 86.3215 94.3219 86.5769C94.6771 86.6983 94.9944 86.9746 95.2744 87.4065C95.3875 87.5812 95.4395 87.697 95.6267 87.8065C95.8139 87.9155 96.0724 87.7634 96.3082 87.6437C109.908 80.7135 116.827 77.1749 117.066 77.0274C117.43 76.8021 116.562 75.8681 116.936 75.6201C117.31 75.3722 117.162 75.7376 117.652 75.5146C118.143 75.291 118.921 74.6316 119.093 74.7911C119.265 74.9505 119.357 75.4766 120.631 74.4938C121.904 73.511 127.515 68.4102 129.372 66.2698C131.23 64.1294 135.219 59.0531 137.075 54.4653C138.312 51.4063 138.813 49.4877 138.578 48.7092C137.27 46.0865 136.534 44.6106 136.37 44.282C136.123 43.7889 135.25 42.1019 133.888 43.1227C132.991 42.7772 131.714 42.1921 130.234 39.0939C129.158 37.5255 126.665 35.5434 126.04 35.5945C125.414 35.6456 121.665 37.5936 117.967 38.7863C114.269 39.9791 110.09 41.1083 108.572 42.3436C107.055 43.579 100.133 51.0902 97.5468 54.189C94.9616 57.2884 91.0908 61.7439 89.4139 62.5032C87.737 63.2624 80.9297 64.7043 79.4383 65.4198C77.9469 66.1359 62.7691 81.1277 58.3356 85.2729C53.9026 89.418 45.9637 96.4662 41.5234 99.119C37.083 101.772 18.8348 110.292 14.5551 111.721C10.2754 113.148 3.82221 114.31 2.89919 114.741Z" fill="#968E8F"/>
<path d="M2.95076 115.114C2.02831 115.545 2.02718 116.017 2.77147 116.929C3.5152 117.84 5.2074 118.907 7.06645 119.351C8.92549 119.795 16.1824 120.286 16.5585 120.117C16.9346 119.948 17.3361 119.026 18.1008 119.187C18.8654 119.348 19.9932 118.309 20.2997 118.351C20.6063 118.392 20.729 119.395 21.3958 119.483C22.0626 119.572 22.6797 119.226 22.9059 119.436C23.1321 119.645 23.834 120.454 24.7768 120.353C25.7191 120.251 30.1079 119.11 31.1542 118.945C32.2005 118.78 36.4571 117.371 36.7958 117.129C37.1346 116.888 37.8054 114.953 38.2137 114.505C38.6221 114.056 39.4733 114.423 39.7306 114.94C39.9885 115.457 43.5001 114.473 44.8898 113.834C46.2794 113.194 58.4053 107.014 59.9555 106.269C61.5057 105.524 63.2228 104.658 63.7234 104.378C64.2239 104.097 64.1854 103.328 64.1764 102.666C64.1673 102.003 65.0383 99.6581 66.1536 99.1764C67.2689 98.6946 69.8372 98.984 70.4475 98.8909C71.0577 98.7979 89.0345 89.6501 89.5282 89.3709C90.022 89.0918 90.2646 88.2378 91.0428 87.6266C91.8211 87.0155 93.5744 86.3215 94.3226 86.5769C94.6778 86.6983 94.9951 86.9746 95.275 87.4065C95.3881 87.5812 95.4402 87.697 95.6274 87.8065C95.8146 87.9155 96.0731 87.7634 96.3089 87.6437C109.909 80.7135 116.828 77.1749 117.067 77.0274C117.431 76.8021 116.563 75.8681 116.936 75.6201C117.31 75.3722 117.162 75.7376 117.653 75.5146C118.143 75.291 118.922 74.6316 119.094 74.7911C119.266 74.9505 119.358 75.4766 120.631 74.4938C121.905 73.511 127.516 68.4102 129.373 66.2698C131.23 64.1294 135.22 59.0531 137.075 54.4653C138.313 51.4063 138.814 49.4877 138.579 48.7092C137.271 46.0865 136.534 44.6106 136.37 44.282C136.124 43.7889 135.25 42.1019 133.889 43.1227C132.992 42.7772 131.714 42.1921 130.234 39.0939C129.159 37.5255 126.666 35.5434 126.041 35.5945C125.415 35.6456 121.717 37.967 118.018 39.1597C114.32 40.3525 110.141 41.4817 108.624 42.717C107.107 43.9523 100.184 51.4636 97.5984 54.5624C95.0132 57.6617 91.1424 62.1173 89.4655 62.8765C87.7885 63.6358 80.9813 65.0776 79.4899 65.7932C77.9984 66.5093 62.8207 81.5011 58.3872 85.6463C53.9542 89.7914 46.0152 96.8396 41.5749 99.4924C37.1346 102.145 18.8864 110.665 14.6067 112.094C10.327 113.522 3.87321 114.683 2.95076 115.114Z" fill="#D3CACB"/>
<path d="M23.0067 119.542C24.7153 119.293 26.4584 118.924 28.236 118.436L30.9604 117.657C33.6084 116.873 36.382 115.972 36.8966 115.59C37.2043 114.78 39.3343 111.856 41.2991 111.496C42.6089 111.257 43.6813 111.544 44.5161 112.359L47.2964 110.963L50.1842 109.552C54.8949 107.206 61.5019 103.759 64.2489 102.23C64.2122 102.353 64.1907 102.458 64.1811 102.547L64.1726 103.341C64.1494 103.786 64.0555 104.19 63.7218 104.377L61.9985 105.266L56.9604 107.766C52.8085 109.861 45.9158 113.36 44.8888 113.833L44.179 114.123C42.5626 114.723 39.9507 115.383 39.7296 114.939C39.4717 114.421 38.6205 114.055 38.2127 114.504C37.8044 114.952 37.1342 116.886 36.7948 117.128C36.4821 117.351 32.8313 118.569 31.4485 118.885L30.2919 119.119C28.6251 119.49 25.5473 120.268 24.7758 120.352C24.1028 120.424 23.5525 120.032 23.2103 119.726L23.0067 119.542ZM89.0098 88.1629L89.1534 88.0046C89.9084 86.8283 93.8839 86.3828 95.7118 85.5283L97.9085 84.4223C100.87 82.8993 106.56 79.9191 114.978 75.4811L116.053 75.3903C116.833 75.3347 117.322 75.3302 117.52 75.3761C117.584 75.3909 117.64 75.4278 117.688 75.4874L117.651 75.5129C117.161 75.7365 117.308 75.371 116.934 75.6184C116.561 75.8658 117.429 76.7999 117.064 77.0257L96.3068 87.642C96.0715 87.7617 95.8125 87.9138 95.6253 87.8048C95.4381 87.6959 95.386 87.5795 95.2729 87.4048C94.993 86.9729 94.6757 86.6966 94.3205 86.5752C93.5722 86.3198 91.819 87.0138 91.0407 87.6249C90.2625 88.2361 90.0199 89.0901 89.5261 89.3693L77.2831 95.5782C73.7121 97.3657 70.6897 98.8518 70.4454 98.8892C70.2406 98.9204 69.8164 98.9085 69.3001 98.8972L70.9629 97.8049C71.3248 97.5733 71.7241 97.3225 72.1613 97.053L72.8451 96.6342C74.5571 95.5952 87.3566 89.6638 89.0098 88.1629Z" fill="#655B5C"/>
<path d="M108.624 42.7153C110.14 41.48 114.319 40.3508 118.018 39.158C120.22 38.4481 122.422 37.3376 123.975 36.5449C123.006 37.2633 122.138 37.8478 121.367 38.3012C119.32 39.5036 115.536 40.5686 113.381 41.1843C111.225 41.7994 108.797 42.9928 107.203 44.9601L106.378 45.9378C104.478 48.1292 101.28 51.5328 100.45 52.5156L99.3538 53.8735C98.0926 55.5066 96.2352 58.1645 94.672 61.4936C92.6325 65.8357 86.4757 66.4707 84.5018 66.0389L84.2592 65.9736C82.6117 65.4266 80.2159 66.246 78.9541 67.1732C78.3653 67.6056 77.2325 68.6774 75.8915 70.0002L70.9801 74.9414C69.1013 76.8384 67.5465 78.4443 66.3147 79.7579C67.9096 78.4738 73.9844 74.2055 72.8504 75.9418C71.7165 77.6782 67.7642 81.8336 64.5902 83.9893C61.4162 86.145 58.2507 88.6196 56.0416 90.2204C53.8319 91.8211 47.9533 96.6955 44.8376 98.6191L40.8763 101.046C37.0106 103.377 31.5817 106.518 26.466 108.88C21.5942 111.13 17.1448 112.818 13.1174 113.945C17.2687 112.868 20.829 111.713 23.7988 110.483C28.2533 108.637 33.5351 106.051 38.8425 102.941L40.7032 101.83C45.234 99.0855 50.9084 95.3869 53.9693 93.33L57.6851 90.8094C60.9383 88.6332 65.2938 85.8596 66.7965 85.6383C68.7619 85.3489 70.0825 86.4974 70.7177 87.3661C71.1413 87.9449 71.786 89.3164 72.6514 91.4801L72.0151 90.1506C71.7289 89.565 71.4902 89.0974 71.2991 88.7484C70.8217 87.8763 69.9983 86.8344 68.5125 86.3527C67.2744 85.9515 63.1005 88.3881 57.7734 91.9074L54.4535 94.1346C47.5936 98.7927 34.974 106.039 31.0676 107.972C27.1611 109.904 18.2958 113.48 13.8973 114.498C9.49884 115.516 4.7005 115.558 3.85893 115.536C3.37819 115.523 3.00379 115.84 2.73684 116.485L2.63334 116.752C2.03157 115.954 2.08925 115.515 2.95062 115.113C3.87307 114.682 10.3268 113.521 14.6065 112.092C18.8862 110.663 37.1345 102.143 41.5748 99.4901C46.0151 96.8373 53.9541 89.7891 58.387 85.644L64.4652 79.8107C70.5644 73.9149 78.4366 66.2965 79.4891 65.7909C80.9806 65.0748 87.7872 63.6335 89.4647 62.8742C90.7226 62.3045 93.2145 59.6557 95.4723 57.0596L98.4941 53.5086C101.514 50.0222 107.258 43.8269 108.624 42.7153Z" fill="#5B2906"/>
<path d="M2.99799 117.177L4.27901 117.697C6.73473 118.654 8.62319 119.173 9.94493 119.253L11.6575 119.33C13.844 119.401 16.1781 119.395 16.5146 119.385C16.9428 119.372 18.6853 117.926 19.0411 117.214L19.2469 116.74C19.4568 116.208 19.5851 115.825 19.8804 116.39C20.2599 117.117 22.0963 117.973 23.3445 118.006C24.5305 118.038 33.1623 114.687 35.4303 113.581L35.7334 113.425C37.3753 112.526 38.3367 112.177 39.094 111.738C39.8513 111.299 39.5917 108.171 39.8123 108.044C40.0329 107.917 42.0944 110.412 43.3669 109.744C56.3367 102.445 63.1858 98.5857 63.9154 98.1646C65.0098 97.5331 63.4358 94.7191 63.826 94.2328C64.0528 93.9502 64.9555 95.2599 68.371 96.2393C68.522 96.2824 69.6396 96.1167 71.1389 95.6021C74.6562 94.3945 83.5968 90.082 85.0418 89.9299C85.9796 89.8312 83.866 91.1647 79.5213 93.4594C77.8426 94.3463 72.8447 96.7023 71.7373 97.3401L71.4907 98.433C70.8991 98.7128 70.5252 98.8785 70.4461 98.8904C69.8358 98.9834 67.2675 98.6941 66.1522 99.1758C65.3768 99.5106 64.7196 100.746 64.3939 101.691C63.4912 102.047 61.911 102.499 60.8477 103.032L51.363 107.743C50.0373 108.411 48.8508 109.016 48.0278 109.453L46.3566 110.379C45.2486 111.019 44.4857 111.528 44.0671 111.904C42.6543 111.213 41.5254 111.099 40.6805 111.562C39.594 112.158 39.068 112.556 38.602 113.277L38.3718 113.667C37.895 114.542 37.7355 114.3 36.7944 114.617L35.6491 115.043C33.0888 115.93 25.9275 118.14 24.7505 118.645C23.4163 119.217 20.6049 117.817 19.9137 117.969C19.42 118.077 18.5711 118.733 18.0213 119.189C17.3087 119.088 16.9219 119.954 16.5588 120.118C16.1826 120.287 8.92577 119.796 7.06672 119.352C5.44013 118.963 3.94137 118.098 3.09357 117.277L2.99799 117.177Z" fill="#E1DCDC"/>
<path d="M69.42 92.6701C69.8629 91.9177 68.7979 88.6203 66.7013 88.6424C64.6041 88.6645 53.2898 95.6997 49.8551 97.6591C46.4204 99.6184 34.0637 107.01 31.3116 108.346C28.5596 109.683 17.0484 114.368 18.0484 114.305C19.0483 114.242 24.8404 112.798 26.066 113.181C27.2915 113.564 29.1449 114.69 30.271 114.194C31.397 113.699 38.0374 110.837 38.2948 110.221C38.5521 109.604 38.5708 106.069 38.9689 105.873C39.3671 105.678 41.6481 107.891 42.4127 107.916C43.1774 107.941 49.0062 104.546 52.735 102.52C56.4638 100.493 62.9945 96.9367 63.0737 96.7075C63.1535 96.4782 62.3628 92.3274 62.8305 92.0595C63.2982 91.7917 66.1668 94.562 66.4604 94.5898C66.7539 94.617 68.9772 93.4225 69.42 92.6701Z" fill="#DDD8D9"/>
</g>
<defs>
<clipPath id="clip0_1_1352">
<rect width="138" height="122" fill="white"/>
</clipPath>
</defs>
</svg>
