<svg width="106" height="96" viewBox="0 0 106 96" fill="none" xmlns="http://www.w3.org/2000/svg">
<g clip-path="url(#clip0_1_1113)">
<path d="M20.5146 66.3666C19.9684 66.6092 18.4262 68.0021 17.1386 68.5741C15.8506 69.1457 13.9589 69.9918 10.5157 72.8775C7.07244 75.7636 3.37062 78.8053 2.54241 80.1276C1.71419 81.45 1.75839 83.2115 2.38545 84.6201C3.01336 86.028 5.06407 87.6624 5.68414 88.2372C6.30421 88.8121 6.86595 88.8865 7.62243 88.7274C8.37892 88.5683 40.7638 75.7644 53.9433 69.0158C67.1224 62.267 60.074 60.7896 57.5105 60.1496C54.9469 59.5097 66.997 48.3233 64.9086 43.567C62.8197 38.811 52.67 37.7333 50.2826 38.7351C47.8952 39.7368 26.5767 61.1362 24.7746 62.8827C22.9725 64.6288 21.0608 66.124 20.5146 66.3666Z" fill="#ECEEEF"/>
<path d="M50.2815 38.7343C52.6689 37.733 62.8186 38.8103 64.9079 43.5663C66.9959 48.323 54.9458 59.5089 57.5094 60.1488L58.7855 60.48C61.5944 61.2906 65.1246 63.1362 54.6173 68.6647L53.9422 69.015C40.7631 75.7637 8.3778 88.5675 7.62131 88.7266C6.86483 88.8857 6.30311 88.8109 5.68302 88.2365L4.51728 87.197C4.32114 87.0161 4.11672 86.8222 3.91475 86.6198C2.60735 83.8308 2.557 81.8415 3.76185 80.6481C6.2278 78.206 16.6494 73.581 22.444 70.4394L23.0681 70.0965C28.704 66.9577 34.3721 64.6024 36.4225 63.7617C38.3909 62.9545 37.5907 61.8012 34.079 63.1453C30.5674 64.4894 29.2893 64.3433 27.1877 64.2062C26.5235 64.1631 25.986 63.3766 25.1278 62.5351L33.5084 54.2445C40.3261 47.5451 48.8254 39.3458 50.2815 38.7343Z" fill="#DADEE0"/>
<path d="M50.2811 38.7343C52.6685 37.733 62.8182 38.8103 64.9075 43.5662C66.9955 48.323 54.9454 59.5089 57.5089 60.1493L58.7851 60.4804C61.594 61.291 65.1242 63.1366 54.6169 68.6651L53.9418 69.0154C41.6896 75.2894 12.8379 86.7968 8.23222 88.5121C4.81236 84.9437 4.16028 82.8691 6.44616 81.511C8.58085 80.243 15.0266 77.8 20.5659 75.3697C26.1052 72.9395 28.3048 72.0968 32.4668 70.2476C36.6289 68.3984 38.9925 66.5408 40.3054 64.9572C42.1813 62.6951 38.6917 59.8979 38.1067 60.2596C37.5218 60.6212 35.0414 62.0277 33.4403 63.0704C31.8392 64.1135 28.5772 65.0079 26.7913 64.6148C26.1655 64.4772 27.0898 62.0965 28.8228 58.8701L37.1978 50.6348C43.0867 44.906 49.08 39.2387 50.2811 38.7343Z" fill="#CDD1D2"/>
<path d="M39.7208 56.8009C41.2824 55.9998 48.5143 57.0026 49.3311 58.7622C50.1479 60.5218 56.0573 67.2182 52.8713 69.3775L51.9583 69.9652C51.86 70.0266 51.7567 70.0909 51.648 70.1583L50.128 70.8887C36.5354 77.3449 12.4106 86.9571 8.23347 88.513C7.77288 88.0326 7.36284 87.5793 7.00301 87.1513C6.80833 86.1133 7.69303 84.8043 11.5279 83.0387L13.2338 82.2867C21.4936 78.6988 39.2798 71.298 41.4889 69.5818C43.806 67.7819 42.5371 65.0411 43.6707 63.724C44.8042 62.4069 43.7961 61.7863 42.1836 61.789C40.5715 61.7918 39.0248 59.5896 38.8607 59.5378C38.6967 59.4855 38.326 59.6801 38.0603 59.8479C37.4106 60.2582 36.0714 61.2081 34.8183 62.1164L33.997 62.6171C33.2053 63.0866 32.5238 63.4439 32.1492 63.5259C30.8274 63.8143 38.1593 57.6017 39.7208 56.8009Z" fill="#BBC2C5"/>
<path d="M50.2822 38.7344C52.6696 37.733 62.8193 38.8103 64.9085 43.5663C66.9965 48.3231 54.9464 59.509 57.51 60.1489L58.7862 60.4801C61.595 61.2907 65.1252 63.1363 54.618 68.6648L53.9428 69.015C40.7637 75.7638 8.37842 88.5676 7.62193 88.7267C6.86544 88.8858 6.30373 88.811 5.68364 88.2365L4.75099 87.4092C4.35677 87.0539 3.90985 86.633 3.50102 86.1879L3.10583 85.4179C2.92842 85.063 2.78569 84.761 2.69639 84.5507C2.23863 83.456 2.41139 82.8476 2.98376 83.8213L3.11247 84.0544C3.78587 85.3457 5.81397 87.3797 6.0104 87.4564C6.18813 87.5261 9.65662 85.7684 12.5345 84.5364L21.7813 80.7117C26.059 78.9169 30.8645 76.8589 33.7817 75.4862L34.3392 75.2213C39.4714 72.7525 46.8628 68.6289 46.4104 68.2045L45.9816 67.6869C45.1637 66.6467 44.2627 65.1718 44.7602 64.4218L46.0419 62.6013C46.8308 61.4669 47.631 60.2269 47.4966 59.9208C47.2726 59.4109 44.2804 61.1917 42.3671 61.1461C40.4539 61.1005 39.6324 58.2886 38.6209 58.9735C37.6094 59.6585 32.8775 63.3008 31.9879 63.7246C31.0984 64.1484 30.126 64.4517 29.8567 64.9466C29.5875 65.4415 31.1221 65.4231 31.5502 65.4369C31.9784 65.4507 32.7552 66.2409 32.6212 67.1555C32.4872 68.0702 31.3245 70.0485 29.9673 70.6024C28.6101 71.1563 27.3191 71.5259 26.8501 70.8723C26.5372 70.4368 26.4318 69.8878 26.5339 69.2257L25.2051 69.3512C24.6525 69.3954 22.8567 68.3035 22.4296 68.2432C22.0026 68.1828 19.7376 68.0945 19.024 68.1556C18.4293 68.2067 18.0643 68.4575 17.6233 68.385L17.5554 68.3645C18.6101 67.7891 19.7415 66.8277 20.323 66.4692L20.5138 66.3646C20.9821 66.157 22.4533 65.0286 23.9987 63.6105L24.7733 62.8804C26.5762 61.1355 47.8947 39.7366 50.2822 38.7344Z" fill="#9998A7"/>
<path d="M56.9698 47.5177C58.0824 47.5188 59.6545 45.8905 59.2802 44.7472C58.9059 43.6039 55.488 42.6987 54.4588 42.7025C53.4295 42.7063 52.6202 43.0969 53.6911 44.4961C54.7621 45.8952 55.8573 47.5166 56.9698 47.5177Z" fill="#A3857C"/>
<path d="M54.7272 43.8102C56.0116 44.0907 57.8743 44.3802 58.1177 44.9642C58.3612 45.5482 57.922 46.1602 56.922 46.1855C55.9217 46.2112 54.292 43.3254 53.6044 43.2546C52.9173 43.1835 50.976 43.3518 51.427 44.4196C51.8776 45.4874 56.5385 48.3184 57.0128 48.5551C57.4866 48.7918 60.2333 47.3927 60.3005 46.4453C60.3676 45.4979 61.2507 43.6157 59.2893 43.1081C57.328 42.6 53.4433 43.5298 54.7272 43.8102Z" fill="#967D73"/>
<path d="M49.7492 56.946C50.0858 56.6722 51.5368 55.3438 52.7866 53.9806C53.0312 53.7136 52.2945 53.1624 52.8645 52.561C53.4345 51.9596 53.9675 52.6409 54.1305 52.4186C54.2843 52.2084 54.2984 52.2442 54.4026 52.0627C54.4694 51.9581 54.1047 51.5875 54.2797 51.139C54.4546 50.6909 54.7304 50.557 54.7268 50.4004C54.701 49.3242 53.09 48.6333 52.6084 48.3239C52.049 47.9645 49.6825 47.9357 48.7297 48.7547C47.7768 49.5737 45.8498 51.5583 46.8197 51.8633C47.7895 52.1682 48.923 52.2382 49.5615 53.7581C50.2001 55.2781 49.1271 57.4525 49.7492 56.946Z" fill="#BBBCC1"/>
<path d="M68.2677 27.5084C64.9583 29.164 62.2906 31.7751 65.0991 34.1104C66.9716 35.6673 69.5078 37.4752 72.7077 39.5341L87.7297 27.7287C87.7098 27.5247 87.69 27.4085 87.6708 27.3798C86.0957 25.0446 85.0528 23.6362 84.3951 22.6742C83.7254 21.6944 82.5164 20.1022 80.7684 17.8973C79.2435 20.3574 77.6096 22.2017 75.8667 23.4315C73.2528 25.2759 71.5775 25.8528 68.2677 27.5084Z" fill="#65656E"/>
<path d="M81.0785 22.188C80.9964 22.8061 80.5796 23.6206 79.2513 24.7777C77.923 25.9352 72.6602 27.9877 70.8611 29.7463C69.0621 31.5048 68.9093 32.8556 69.6281 33.4521C70.3468 34.0486 76.2157 28.7225 77.8465 27.0958C79.4773 25.4691 80.174 24.8054 81.0046 24.6401C81.8347 24.4749 83.2303 25.1208 82.8625 24.4187C82.494 23.7165 81.1605 21.5698 81.0785 22.188Z" fill="#737378"/>
<path d="M80.7688 17.8971L81.7532 19.1466C82.6726 20.3225 83.3983 21.2781 83.9294 22.0128L86.4983 25.6661C86.8518 26.1747 87.2419 26.7427 87.6713 27.3796L87.6907 27.4373L87.7302 27.7285L72.7081 39.5339C71.3439 38.6562 70.0998 37.8238 68.9771 37.0373C69.059 36.1761 69.3357 35.3502 69.5301 35.4104C69.8511 35.5101 70.7532 34.9974 70.9959 34.7598L75.6941 29.848C77.658 27.8044 79.5955 25.8125 80.0691 25.4139C80.7831 24.8126 81.3295 24.8201 81.8081 24.9442L83.3327 25.4066C83.9261 25.5777 84.5447 25.7484 84.7125 25.773C84.966 25.8101 82.3875 23.1691 81.4253 21.6291L81.2732 21.3695C80.4721 19.8897 79.9037 21.0484 79.5499 21.7022C79.1962 22.3559 73.7106 26.8721 69.9077 29.0405C66.9602 30.721 67.1167 34.0875 67.4134 35.9153C66.5504 35.2773 65.7811 34.6779 65.0999 34.1115C62.291 31.7761 64.9587 29.1651 68.2685 27.5095C71.5779 25.8539 73.2537 25.2769 75.8676 23.4325C77.6097 22.2019 79.2436 20.3572 80.7688 17.8971Z" fill="#504F51"/>
<path d="M51.9826 68.5324C48.7707 68.2007 45.9903 66.6181 45.3769 65.4504C44.7634 64.2826 44.7811 62.7861 45.7644 61.8518C46.7477 60.9174 55.9966 51.6672 57.4547 49.8432C58.9125 48.0192 60.5511 45.8495 60.1645 44.4785C59.778 43.1074 57.5345 42.871 55.6466 42.8218C53.7586 42.7725 51.0429 42.3898 49.7645 42.4565C48.486 42.5231 50.4189 33.9627 50.8815 31.8852C51.3438 29.8076 51.5649 28.4846 55.6558 26.9751C59.7464 25.4656 63.9783 25.277 66.2678 24.6062C68.557 23.935 72.0635 22.7688 71.9627 20.9887C71.8619 19.2089 71.8029 16.3939 72.3258 14.3447C72.8487 12.2955 73.6231 11.6748 74.3627 11.3081C75.1023 10.9415 75.5275 10.918 75.6661 11.0903C75.8047 11.2626 76.0294 11.3979 76.0239 11.5595C76.0183 11.721 75.8536 12.1835 75.9173 12.4608C75.981 12.7381 77.8538 14.8796 78.6063 15.6457C79.3588 16.4114 81.2194 17.6445 81.4408 17.8704C81.6623 18.0962 82.1995 18.7001 81.9995 18.8908C81.7996 19.0815 81.329 19.1559 81.1803 19.5084C81.0315 19.861 80.9823 21.8716 79.8894 23.464C78.7966 25.056 71.5375 27.9302 69.9279 28.6865C68.3183 29.4424 66.6983 30.9491 66.9921 32.7768C67.2859 34.6045 70.8884 35.5214 72.8094 36.1639C74.7305 36.8064 83.2406 41.3754 83.3219 42.5013C83.4032 43.6272 71.4841 55.5918 66.8686 59.1435C62.2531 62.6951 55.1946 68.8645 51.9826 68.5324Z" fill="#BAB3DD"/>
<path d="M52.3318 68.1953C49.1199 67.8636 46.7053 66.4474 46.0919 65.2796C45.4785 64.1119 45.5635 62.8508 46.5468 61.9164C47.5302 60.9821 56.7856 51.8678 58.2438 50.0438C59.7015 48.2198 61.1451 45.7165 60.7586 44.3451C60.372 42.974 58.328 42.4738 56.4405 42.4241C54.553 42.3745 51.243 42.1249 49.9649 42.1916C48.6869 42.2584 50.4198 33.9617 50.8825 31.8842C51.3448 29.8067 51.5659 28.4837 55.6568 26.9742C59.7473 25.4647 63.9793 25.2761 66.2688 24.6053C68.558 23.9341 72.0645 22.7679 71.9637 20.9877C71.8629 19.208 71.8039 16.393 72.3268 14.3438C72.8497 12.2946 73.6241 11.6739 74.3637 11.3072C75.1033 10.9406 75.5284 10.917 75.667 11.0894C75.8057 11.2617 76.0304 11.397 76.0248 11.5585C76.0193 11.72 75.8545 12.1825 75.9182 12.4598C75.9819 12.7371 77.8548 14.8787 78.6072 15.6448C79.3597 16.4104 81.2203 17.6436 81.4418 17.8694C81.6633 18.0953 81.9881 18.4112 81.7882 18.6019C81.5883 18.7927 81.1177 18.867 80.9689 19.2196C80.8201 19.5722 80.7709 21.5827 79.6781 23.1751C78.5852 24.7671 71.3261 27.6414 69.7165 28.3977C68.1069 29.154 66.4869 30.6603 66.7807 32.488C67.0746 34.3157 70.4609 35.4163 72.3819 36.0592C74.3029 36.7017 83.0254 41.5586 83.1067 42.6846C83.188 43.8105 71.4851 55.5908 66.8696 59.1425C62.2541 62.6942 55.5437 68.527 52.3318 68.1953Z" fill="#3B3B3B"/>
<path d="M48.5721 63.6627C48.6709 65.6969 51.6725 65.9708 53.0337 66.6644C53.7497 67.0296 54.9051 67.1958 55.9248 67.1065C54.5189 67.859 53.2742 68.2926 52.3314 68.1953C49.1194 67.8636 46.7049 66.4474 46.0915 65.2796C45.478 64.1119 45.5631 62.8508 46.5464 61.9164L49.9507 58.5716C50.9374 57.5929 52.0344 56.4992 53.1033 55.4236C50.4478 58.8561 48.5084 62.346 48.5721 63.6627ZM80.0795 40.1975L79.5401 39.4918C80.6355 40.9052 81.6542 42.2781 82.5955 43.6104C80.3785 46.5919 71.5772 55.365 67.3372 58.7743L66.8691 59.1433C64.2786 61.1368 61.0284 63.8486 58.1075 65.7858L58.3806 65.0022C59.4794 61.7162 62.0167 53.0781 63.647 50.3883C64.918 48.292 70.1097 44.7182 79.223 39.6673C79.519 39.8454 79.8045 40.0229 80.0795 40.1975ZM55.5023 27.0319L55.3987 27.1849C53.4441 30.1295 55.0202 31.5341 56.2446 32.6675C57.6937 34.0094 57.6075 37.6772 62.5533 39.1982L63.0568 39.4086C66.7472 40.7441 62.7901 45.4968 58.6657 49.4952C59.9638 47.7442 61.1067 45.5827 60.7577 44.3446C60.3988 43.0714 58.6108 42.5491 56.8457 42.4413L55.2895 42.3799C53.4152 42.2937 51.0097 42.1367 49.9637 42.1912C48.7804 42.2532 50.1785 35.1444 50.7592 32.442L51.0148 31.2898C51.4202 29.5686 51.9541 28.3693 55.5023 27.0319Z" fill="#7152CB"/>
<path d="M64.5459 38.6137C68.9045 39.7481 70.7862 42.5038 67.6285 46.9757C65.6729 49.7446 58.6131 54.7601 46.4487 62.0215L51.1041 57.4255C53.848 54.6911 56.9895 51.5119 58.058 50.2663L58.2433 50.0439C59.701 48.2198 61.1445 45.7165 60.758 44.3451C60.3991 43.0718 58.6111 42.5495 56.846 42.4418L55.2898 42.3803C53.4154 42.2941 51.01 42.1372 49.964 42.1917C49.3727 42.2225 49.9822 37.6604 50.2562 35.5548C52.7688 37.0204 54.9916 37.822 56.9246 37.9601C59.8246 38.1669 62.515 38.0851 64.5459 38.6137ZM54.3743 30.7349L55.2218 30.7025C58.6634 30.6521 64.0955 31.4376 63.9247 32.7602C63.7729 33.9363 54.687 34.0401 50.3014 34.6823L50.7526 32.4768L51.0472 31.1586C52.4467 30.9129 53.6135 30.7847 54.3743 30.7349Z" fill="#674DC5"/>
<path d="M73.8556 11.6192C75.1164 13.4339 75.9378 14.8048 76.3196 15.7323L76.9858 17.618C77.6969 19.7369 78.4333 22.5576 77.1331 23.8918C75.4615 25.6071 71.751 26.4887 68.9093 27.7176C66.0677 28.9465 63.5706 30.5847 61.4088 30.5317C59.2474 30.4791 57.388 30.1735 55.5944 30.1579C54.659 30.1496 53.0299 30.9949 50.7082 32.6932L51.0167 31.283C51.4263 29.5407 51.9736 28.3332 55.6554 26.9746C59.746 25.4651 63.9778 25.2765 66.2674 24.6057L67.4911 24.2283C69.6252 23.5286 72.0461 22.4717 71.9623 20.9881C71.8614 19.2084 71.8025 16.3934 72.3254 14.3442C72.7175 12.807 73.2511 12.0739 73.8056 11.6486L73.8556 11.6192Z" fill="#DFA76D"/>
<path d="M72.7567 13.0683C73.6524 12.9308 74.2862 13.1538 74.5458 13.8616C76.2056 18.3843 76.1218 20.7595 74.4285 23.4609C72.8294 26.0125 68.6574 26.5309 64.8186 27.7677L64.1452 27.9939C60.1326 29.403 56.1086 29.0757 54.8194 29.5484C54.0384 29.835 52.8346 30.7274 51.209 32.2256L50.7084 32.6932L51.0169 31.283L51.1626 30.7211C51.587 29.2704 52.3829 28.1822 55.6556 26.9746C59.7461 25.4651 63.978 25.2765 66.2676 24.6057L67.4913 24.2282L68.2995 23.9491C70.1913 23.2579 72.0357 22.286 71.9625 20.9885C71.8616 19.2088 71.8027 16.3938 72.3256 14.3446C72.4126 14.0028 72.5069 13.7011 72.6065 13.4335L72.7567 13.0683Z" fill="#F4C782"/>
<path d="M75.6657 11.0897C75.8044 11.262 76.0291 11.3973 76.0235 11.5588C76.0196 11.68 75.9258 11.9703 75.9059 12.2251L75.9922 12.6432L75.5409 13.4507C75.0485 14.3672 74.8389 15.3182 75.001 16.719C75.1893 18.3449 74.9254 20.1814 73.51 22.1003C72.0946 24.0191 70.0015 25.1339 66.358 26.0212C64.9829 26.314 63.4078 26.6667 61.6328 27.0785C58.9705 27.6966 57.47 28.1163 56.108 28.5764C54.2008 29.2203 53.1597 30.1097 52.0833 31.0505C51.8232 31.2778 51.3354 31.0694 51.0934 30.9868L51.2528 30.4444C51.7005 29.1289 52.5946 28.1039 55.6559 26.9745C59.7464 25.465 63.9783 25.2764 66.2679 24.6056L67.4916 24.2282C69.6257 23.5285 72.0467 22.4716 71.9628 20.988C71.8619 19.2083 71.803 16.3933 72.3259 14.3441C72.8488 12.2949 73.6232 11.6742 74.3628 11.3075C75.1016 10.9408 75.5271 10.9173 75.6657 11.0897Z" fill="#9F4C0B"/>
<path d="M75.6656 11.0898C75.8042 11.2621 76.029 11.3974 76.0234 11.5589C76.0194 11.68 75.9256 11.9704 75.9057 12.2252L75.9168 12.4602L75.4655 13.2677C74.9731 14.1842 74.6289 15.055 74.7415 16.3332C74.886 17.9766 74.7653 20.1879 73.1194 22.0957C71.5762 23.8841 69.8631 24.9053 66.2196 25.7926L62.069 26.739C59.4067 27.357 57.2125 27.9112 55.8502 28.3712C53.9429 29.0152 52.9482 29.8517 51.8718 30.7925C51.6117 31.0199 51.3356 31.0691 51.0937 30.9869L51.2531 30.4444C51.7007 29.129 52.5949 28.104 55.6562 26.9746C59.7467 25.4651 63.9786 25.2765 66.2682 24.6057L67.4919 24.2283C69.626 23.5286 72.047 22.4717 71.9631 20.9881C71.8622 19.2084 71.8033 16.3934 72.3262 14.3442C72.849 12.295 73.6235 11.6743 74.3631 11.3076C75.1015 10.9409 75.527 10.9174 75.6656 11.0898Z" fill="#FBD47F"/>
<path d="M75.6662 11.0899C75.8048 11.2622 76.0295 11.3975 76.024 11.5591C76.02 11.6802 75.9262 11.9705 75.9063 12.2253L75.9174 12.4604L75.466 13.2678C74.9736 14.1844 74.6294 15.0551 74.7421 16.3334C74.8866 17.9768 74.7658 20.188 73.1199 22.0959C71.5768 23.8842 69.8637 24.9054 66.2202 25.7928L62.0695 26.7392L60.368 27.1416C58.4732 27.599 56.9101 28.0136 55.8507 28.3714C53.9435 29.0153 52.9488 29.8519 51.8724 30.7927C51.7745 30.8785 51.6742 30.9389 51.5743 30.9765C52.0094 30.2356 52.8153 29.134 54.2688 28.4697C56.4132 27.4894 60.9607 26.3109 64.2155 25.7353L64.9418 25.6135C68.2089 25.099 70.7229 23.8739 72.1137 22.7403C73.5044 21.6067 74.3113 19.0862 74.3956 17.939C74.4803 16.7919 73.6294 15.2868 74.4472 13.6264C75.0838 12.3342 75.2643 11.479 75.0504 11.0345C75.3768 10.9506 75.5783 10.9814 75.6662 11.0899Z" fill="#F4AA5A"/>
<path d="M74.7334 39.0956L69.1069 35.9072C68.0418 35.2923 67.4206 34.9037 67.0821 34.6336C65.5403 33.4036 65.0841 31.1397 66.6917 29.5302C67.5791 28.6418 69.0803 27.7678 71.5308 26.6135L75.6635 24.7257L75.8951 24.6162C78.3586 23.4438 79.6535 21.9712 79.9672 20.2839L80.0223 19.8907C80.148 18.5695 80.4639 17.8698 81.1032 17.9006C81.2621 17.908 81.3851 18.0445 81.3776 18.2047C81.3716 18.3249 81.2941 18.4248 81.1888 18.4637L81.0757 18.481C80.8982 18.4726 80.6939 18.9242 80.5968 19.9453C80.3993 22.0192 78.9666 23.797 76.1415 25.1416L72.4625 26.8202C69.6638 28.1072 68 29.0397 67.0985 29.9422C65.7681 31.274 66.1446 33.1426 67.4407 34.177C67.7429 34.4183 68.3291 34.7852 69.3216 35.3597L74.5687 38.33L76.9644 39.7322C80.3299 41.7527 81.2621 45.2928 80.2904 47.4607C79.7323 48.7054 60.949 64.5242 58.6991 65.637C57.1955 66.3805 55.3052 67.2161 52.8159 68.1458L49.6034 66.883C48.4831 66.4333 47.7713 66.1317 47.4636 65.9764C46.224 65.35 45.6721 63.3314 46.9787 62.154L48.2852 60.9211C51.4235 57.8977 58.1058 51.2154 59.3486 49.7534C61.3291 47.4241 62.2685 45.4355 61.8258 44.1091C61.1969 42.2228 60.3685 41.5898 57.6544 41.4768L55.7042 41.4159C53.7945 41.3725 51.4144 41.3581 48.5651 41.372C46.6654 41.3814 47.6403 40.977 51.4895 40.1586C53.9928 40.166 56.0705 40.2953 57.6433 40.3421C60.7778 40.4358 62.2803 41.3207 62.9005 43.7202C63.3224 45.3524 62.7822 47.8334 60.5252 50.2794L59.3153 50.6575C56.9439 53.2277 49.073 61.0454 47.3634 62.5865C46.3949 63.4595 46.8149 64.9968 47.7229 65.4556L48.2242 65.6855C49.0439 66.0439 50.6112 66.6844 52.8119 67.6039L54.6589 66.8356C56.1191 66.2141 57.3813 65.6404 58.4457 65.1142C60.5867 64.0557 79.2736 48.3178 79.7652 47.2207C80.6204 45.3125 79.7732 42.0941 76.6694 40.2308L76.108 39.8962C75.6708 39.6396 75.2154 39.3736 74.7334 39.0956Z" fill="#5A37B5"/>
<path d="M51.4883 40.1598C53.9916 40.1672 56.0693 40.2965 57.6421 40.3432C60.7766 40.437 62.2791 41.3219 62.8993 43.7214C63.3212 45.3536 62.781 47.8346 60.524 50.2805L59.3141 50.6587L58.2162 51.8186C57.8795 52.1684 57.7027 52.3276 57.3026 52.7368C57.2574 52.7991 57.9553 53.8734 57.3103 54.3028C56.6653 54.7321 56.2289 53.8599 56.1503 53.9259C56.0279 54.0649 55.9184 54.1722 55.6833 54.4098C55.6166 54.4964 56.4008 55.2939 55.7836 55.906C55.1664 56.5181 54.5408 55.5471 54.3685 55.72C53.1159 56.9777 52.0451 58.0507 50.8747 59.2029C49.1864 60.5571 47.6068 61.8865 46.3805 63.0229C46.4958 62.7079 46.692 62.4112 46.9771 62.1544L48.2836 60.9214L52.0907 57.186C55.1414 54.1558 58.5018 50.748 59.3471 49.7537C61.3275 47.4244 62.2669 45.4359 61.8243 44.1095C61.1953 42.2231 60.3669 41.5901 57.6529 41.4771L55.7027 41.4162L54.182 41.3892C53.1095 41.3745 51.9198 41.3676 50.6123 41.3675L48.5632 41.3727C46.6646 41.383 47.6391 40.9785 51.4883 40.1598Z" fill="#4A27A6"/>
<path d="M53.4349 52.8685L53.5486 52.8471C53.9669 52.8155 55.0299 54.1036 55.3849 54.6874C55.7398 55.2708 55.7554 55.5224 55.4731 55.7066C55.1908 55.8908 54.8567 55.4825 54.7055 55.14C54.5538 54.7975 53.8194 54.0347 53.6477 53.884C53.476 53.7334 53.2965 53.7318 53.202 53.5294C53.107 53.327 53.1312 52.8788 53.549 52.8471L53.4349 52.8685ZM55.0237 51.198L55.1374 51.1767C55.5556 51.1451 56.6187 52.4331 56.9737 53.0169C57.3286 53.6004 57.3442 53.852 57.0619 54.0362C56.7796 54.2204 56.4455 53.812 56.2943 53.4695C56.1426 53.127 55.4082 52.3643 55.2365 52.2136C55.0648 52.0629 54.8853 52.0614 54.7907 51.859C54.6958 51.6565 54.72 51.2083 55.1378 51.1767L55.0237 51.198Z" fill="#9053DC"/>
<path d="M53.3927 52.8843L53.5486 52.847C53.7524 52.8318 54.1097 53.1301 54.4631 53.5076L54.0132 54.2534L53.7344 53.9655C53.6981 53.9302 53.6686 53.9021 53.6473 53.8835C53.4756 53.7328 53.2961 53.7313 53.2015 53.5289C53.1337 53.3842 53.1268 53.1142 53.2803 52.9604L53.3927 52.8843ZM54.9165 51.0942L55.0721 51.0537C55.2405 51.0412 55.5243 51.2623 55.826 51.5694C55.6509 51.7826 55.4737 52.0136 55.294 52.2621L55.236 52.2135C55.0643 52.0628 54.8267 51.9992 54.7318 51.7967C54.6639 51.652 54.6533 51.3508 54.8049 51.1789L54.9165 51.0942Z" fill="#8343D1"/>
<path d="M56.9132 49.8561C57.5117 49.9985 58.158 49.9283 58.7689 49.5328C59.3798 49.1373 60.4095 48.077 60.9667 47.0219C61.5239 45.9668 61.5755 45.5628 61.6678 44.9349C61.76 44.307 60.8255 42.4852 59.9243 42.1297C59.023 41.7742 60.0871 42.4507 60.4085 43.4929C60.7294 44.5351 60.4192 46.5364 59.6784 47.5101C58.9379 48.4838 56.3151 49.7138 56.9132 49.8561Z" fill="#8A532D"/>
<path d="M57.7617 49.88C58.2154 49.804 59.3124 48.9639 60.078 47.9555C60.8437 46.9471 61.5055 45.3517 61.528 44.8143C61.5505 44.277 60.8226 42.2681 59.3546 41.8821C57.8866 41.4961 52.9073 41.497 52.0135 41.5631C51.418 41.6072 50.9785 41.643 50.695 41.6703C52.7412 42.8803 53.8891 43.5271 54.1379 43.6104C54.5114 43.736 55.6374 43.8423 56.5539 43.9465C57.4705 44.0507 58.7724 43.9091 59.0315 44.5471C59.2906 45.185 59.0717 45.4385 58.8826 45.7797C58.6935 46.1208 57.9746 47.1165 57.4921 47.3002C57.0096 47.4842 56.3823 47.2118 55.8579 46.7348C55.3335 46.2578 54.7973 45.3729 53.9843 44.9781C53.4424 44.7147 53.0217 44.4684 52.723 44.2391L49.5704 41.7491L46.4738 45.9944C48.3561 46.494 49.5537 46.7494 50.0667 46.7609C50.8359 46.7781 51.2796 46.6999 51.5915 46.8024C51.9033 46.9048 53.0981 47.1445 53.2331 47.3894C53.3681 47.6342 53.4817 47.9352 53.6668 48.069C53.8519 48.2028 55.1541 49.0075 55.9571 49.4982C56.7593 49.989 57.3081 49.9561 57.7617 49.88Z" fill="#C28D59"/>
<path d="M46.4739 45.9943L49.5705 41.7489L52.7231 44.2389C52.7747 44.2782 52.8298 44.3186 52.8882 44.359C51.1659 44.6979 50.0322 45.0929 49.4886 45.544C49.0934 45.8717 49.0428 46.2476 49.3368 46.6715C48.7872 46.5724 48.0062 46.3924 46.9973 46.1317L46.4739 45.9943ZM50.6951 41.6701L52.0137 41.5629C52.4327 41.5318 53.7491 41.5152 55.1808 41.5463C54.7136 42.2803 54.5335 42.76 54.6374 42.9854C54.7469 43.2224 54.9544 43.4942 55.2594 43.7997L54.711 43.7277C54.4623 43.6905 54.26 43.6514 54.1376 43.6107L53.9381 43.5219C53.4815 43.2955 52.4003 42.6782 50.6951 41.6701Z" fill="#BD7E59"/>
<path d="M50.4658 46.4206C49.7228 46.2184 49.4493 45.9549 50.0082 45.947C50.5671 45.9391 52.5827 46.6855 52.8721 46.8248C53.1615 46.9642 53.9813 47.6801 54.6711 48.2212L54.9021 48.4099C55.5035 48.9275 56.6155 49.7032 57.5752 49.5239C58.5349 49.3446 59.3689 48.4458 59.8933 47.702C60.4177 46.9578 61.4128 45.4341 61.2033 44.2038C61.1118 43.6678 60.7928 42.9317 60.1925 42.3247C61.0983 43.0567 61.5454 44.3911 61.5277 44.8143C61.5052 45.3521 60.843 46.947 60.0778 47.9555C59.3125 48.9639 58.2155 49.804 57.7614 49.88C57.3078 49.956 56.7586 49.9889 55.956 49.4982L53.6657 48.0689C53.573 48.0018 53.4985 47.8931 53.4304 47.7709L53.2324 47.3893C53.0974 47.1444 51.9031 46.9048 51.5908 46.8023C51.4476 46.7552 51.2766 46.7463 51.0592 46.7486L50.716 46.5335C50.6171 46.4776 50.5334 46.4391 50.4658 46.4206Z" fill="#E1AE86"/>
<path d="M54.5825 45.3834C55.0831 45.8175 55.4454 46.2926 55.8294 46.6421C56.3538 47.1191 56.9808 47.316 57.4633 47.1319C57.8855 46.971 58.4561 46.3512 58.727 45.9299L58.8214 45.774C59.0106 45.4329 59.123 44.9134 59.0313 44.5473C59.0052 44.4431 58.9262 44.3689 58.8415 44.3034C59.1155 44.4334 59.3161 44.6635 59.3515 44.8904C59.4361 45.4335 59.178 46.0299 58.3283 46.9259C57.4787 47.8219 56.7944 47.5948 56.1363 47.1656C55.8728 46.9936 55.6053 46.6985 55.3438 46.373L54.5825 45.3834ZM52.177 46.9558L51.5904 46.8018C51.2785 46.6993 50.8349 46.7775 50.0657 46.7603C49.6555 46.751 48.8069 46.5857 47.5201 46.2642L46.4728 45.9938L47.018 45.2552L49.2692 46.0647C49.4914 46.1599 50.787 46.3453 51.347 46.527C51.5752 46.6013 51.8695 46.7559 52.177 46.9558Z" fill="#925728"/>
<path d="M49.8503 17.1367C49.5211 16.95 48.8305 17.0626 48.2497 17.5384C47.6688 18.0142 44.544 23.5415 44.0546 24.1121C43.9354 24.2852 43.8537 24.4368 43.8095 24.5674C43.5007 24.6653 43.2501 24.947 43.0576 25.4127C42.7689 26.1113 40.4048 29.9435 40.037 30.8817C39.6692 31.82 38.1093 34.6681 37.9993 34.9339C37.8893 35.1998 35.0975 40.1731 34.5074 41.5404C33.9177 42.9077 33.8551 43.5513 33.6085 44.1107C33.362 44.67 32.5344 45.9071 32.2615 46.3847C31.989 46.8619 30.8712 47.296 30.6712 47.7404C30.4713 48.1849 30.0976 48.5051 29.6535 49.0514C29.2094 49.5977 27.774 51.8641 27.3311 52.6556C26.8883 53.4472 26.1171 55.2054 25.4255 56.4447C24.7344 57.684 24.4596 57.7411 23.9052 58.9434C23.3509 60.1462 22.8206 61.5335 22.7164 61.9439C22.6122 62.3542 21.9175 63.2477 21.5204 63.932C21.1234 64.6163 21.0381 65.3177 20.3223 65.8252C19.6066 66.3328 19.1956 67.1508 20.2983 67.205C21.4009 67.2591 27.7954 65.1563 29.5785 64.2603C31.3616 63.3639 33.3196 61.4245 34.7811 60.5567C36.2426 59.6889 38.7243 57.9278 40.1022 56.7519C41.4801 55.576 44.9569 51.5697 46.6735 49.2972C48.3901 47.0247 50.0739 44.2861 50.2283 43.8926C50.3313 43.6305 50.1104 42.869 49.566 41.6082C51.3321 41.4329 52.273 41.2899 52.3879 41.1795C52.5602 41.014 56.4132 35.1212 56.7017 34.5418C56.9901 33.9625 57.0213 32.8903 55.2743 31.6881C53.5272 30.4859 49.9445 26.2689 49.6054 23.7669C49.2663 21.2645 50.3805 18.8396 50.4308 18.4867C50.4807 18.1337 50.1795 17.3229 49.8503 17.1367Z" fill="#A089E5"/>
<path d="M49.8497 17.1368C49.5205 16.9502 48.8299 17.0627 48.2491 17.5385C47.6682 18.0144 44.5434 23.5416 44.0539 24.1122C43.9347 24.2853 43.8531 24.4369 43.8089 24.5675C43.5001 24.6654 43.2494 24.9472 43.057 25.4128C42.7683 26.1115 40.4042 29.9436 40.0364 30.8819C39.6686 31.8201 38.1087 34.6682 37.9987 34.9341C37.8887 35.1999 35.0969 40.1733 34.5068 41.5405C33.9171 42.9078 33.8545 43.5514 33.6079 44.1108C33.3614 44.6702 32.5337 45.9072 32.2609 46.3848C31.9884 46.862 30.8705 47.2962 30.6706 47.7406C30.4707 48.185 30.097 48.5052 29.6529 49.0516C29.2088 49.5979 27.7733 51.8642 27.3305 52.6558C26.8876 53.4473 26.1165 55.2056 25.4249 56.4448C24.7338 57.6841 24.459 57.7412 23.9046 58.9436C23.3502 60.1463 22.82 61.5337 22.7158 61.944C22.6116 62.3544 21.9168 63.2478 21.5198 63.9321C21.1228 64.6164 21.0375 65.3178 20.3217 65.8254C19.6059 66.3329 18.921 66.9045 20.0237 66.9587C21.1263 67.0128 27.6058 64.8387 29.3889 63.9422C31.1721 63.0458 33.13 61.1064 34.5915 60.2386C36.0531 59.3708 38.5348 57.6097 39.9127 56.4338C41.2905 55.2579 44.7673 51.2516 46.4839 48.9791C48.2006 46.7067 49.7678 44.1278 49.9222 43.7346C50.0252 43.4725 49.8043 42.711 49.2599 41.4503C51.0862 41.2702 52.0568 41.1253 52.1717 41.015C52.344 40.8495 55.9704 35.0386 56.2593 34.4592C56.5478 33.8799 56.3867 32.9894 54.6397 31.7872C52.8927 30.5851 49.7517 26.4512 49.4122 23.9487C49.0727 21.4463 50.1979 18.5125 50.2482 18.1596C50.298 17.8066 50.1789 17.3231 49.8497 17.1368Z" fill="#D7D4DD"/>
<path d="M49.4133 23.9596C49.7386 26.3065 52.5137 30.0775 54.2966 31.5286L54.6389 31.787C56.3859 32.9892 56.547 33.8797 56.2585 34.459L56.0644 34.8032C55.2447 36.1992 52.3253 40.8667 52.1709 41.0148C52.056 41.1251 51.0854 41.2699 49.259 41.4501C49.8035 42.7104 50.0244 43.4719 49.9214 43.7344L49.7999 43.9796C49.373 44.7679 47.9851 46.9904 46.4831 48.9793C44.7665 51.2518 41.2897 55.2581 39.9118 56.434C38.534 57.6099 36.0522 59.371 34.5907 60.2388C33.1292 61.1066 31.1712 63.0464 29.3881 63.9424C28.3793 64.4498 25.8664 65.3661 23.6752 66.0564C23.9033 65.4529 23.7622 64.641 24.3862 64.2523L24.7132 64.0736C27.4805 62.7585 27.3802 58.4032 29.3543 56.2591C31.3285 54.115 32.4333 52.3458 32.7839 51.0676C33.1345 49.7895 32.8611 48.8027 33.6474 46.4847L36.2572 43.2558C38.0828 40.9675 39.2793 39.3859 39.8459 38.5115C41.0503 36.6537 42.6185 31.0237 43.8329 30.9735C45.0473 30.9232 46.4654 30.4904 46.826 29.2475C46.9731 28.7412 47.4445 27.7484 48.0749 26.5155L49.4133 23.9596Z" fill="#757575"/>
<path d="M54.2978 31.5287L54.6401 31.7871C56.3871 32.9893 56.5482 33.8797 56.2597 34.4591L56.0656 34.8033L54.2767 37.7251C53.2777 39.3287 52.2615 40.929 52.1725 41.0149C52.0576 41.1252 51.087 41.27 49.2607 41.4502C49.8051 42.7105 50.026 43.472 49.923 43.7345L49.8015 43.9797L49.5392 44.4395C48.9986 45.3549 47.9668 46.9675 46.829 48.5172L46.4847 48.9794C44.7681 51.2519 41.2913 55.2582 39.9134 56.4341C38.5356 57.61 36.0539 59.3711 34.5923 60.2389C33.1308 61.1067 31.1728 63.0465 29.3897 63.9425C28.3809 64.4499 25.868 65.3662 23.6768 66.0565C23.9048 65.4529 24.3451 64.8856 24.9687 64.4968L25.2957 64.3181C25.7435 64.1054 26.1464 63.8352 26.5157 63.5238L29.134 62.0317C29.9894 61.5368 30.6146 61.1636 31.0093 60.9119C32.9124 59.6966 40.4513 51.0183 41.9662 47.8828C43.4807 44.7477 39.7534 44.862 40.4818 42.9848C41.2102 41.1075 45.7016 38.1384 46.7204 36.7078L47.2194 35.9697C48.1952 34.4822 50.0306 31.5227 51.6874 28.6165C52.5535 29.8213 53.5201 30.8958 54.2978 31.5287Z" fill="#3B3B3B"/>
<path d="M27.9212 54.1267C28.1433 54.373 28.3145 54.8293 28.4343 55.4958L28.5 55.9207C28.6616 57.136 29.0112 58.7136 29.0443 59.4048L29.0427 59.6009C28.9941 60.1329 29.1136 60.6666 29.2362 60.8921C29.3588 61.118 29.4468 62.2471 29.4816 62.6492C29.5049 62.9171 29.5158 63.2527 29.5154 63.6555L29.3667 62.8024C29.3271 62.5455 29.2971 62.3157 29.2771 62.1128L29.2543 61.8294C29.2323 61.4537 29.2146 61.3539 29.1511 61.2772L28.9088 61.0377C28.6671 60.7618 28.4882 60.659 28.5094 60.8369L28.6189 61.2444C28.7445 61.7462 28.9097 62.5759 28.7886 62.418L28.6423 62.1897C28.5144 61.9734 28.3264 61.6278 28.0778 61.1539C27.7949 60.6798 27.658 60.3658 27.6668 60.2123L27.8199 59.0763C27.9155 58.2647 27.99 57.2188 27.8126 56.6103L27.2613 54.7592L27.9212 54.1267Z" fill="#4433A5"/>
<path d="M34.3637 45.8005C35.5676 45.1492 37.0069 45.591 39.2726 45.5747C41.3693 45.5596 45.8107 46.6094 47.6877 47.3135C47.3052 47.8608 46.8985 48.4286 46.4835 48.9784C44.8813 51.0997 41.7457 54.7311 40.2146 56.1617L39.9122 56.4331C39.8479 56.488 39.7815 56.5439 39.7126 56.6014C38.4101 57.245 37.4743 57.4802 36.8957 57.3114C35.9184 57.0265 32.9024 54.7418 31.702 54.1571C30.5016 53.5723 27.6295 53.0253 27.6105 53.0326L28.785 51.6076C28.8733 51.5017 28.9664 51.3898 29.0647 51.2717L31.8858 52.0972C33.8796 52.6689 36.5652 54.1447 37.1318 54.3586C37.6984 54.5725 38.9786 52.4035 39.3014 51.4823C39.5993 50.6317 38.409 49.8664 36.9945 49.0704L36.6372 48.8709C35.2478 48.0991 34.3954 47.7321 33.4114 47.6553L33.0352 47.6399C31.8796 47.6326 33.1601 46.4519 34.3637 45.8005Z" fill="#694ABE"/>
<path d="M23.0009 61.3199C23.542 61.4177 24.2946 61.4108 24.2516 61.5676C24.2082 61.724 24.153 61.9456 24.0744 62.0929C23.9958 62.2401 22.9114 62.6445 22.2924 62.8839L22.1609 62.9367C22.4259 62.5367 22.6594 62.1679 22.7163 61.9436C22.7485 61.8165 22.8223 61.5946 22.9246 61.3137C22.953 61.3122 22.9771 61.3158 23.0009 61.3199ZM37.8916 49.2028C38.2921 49.0294 39.2171 48.9791 39.6387 49.0028C40.0603 49.0261 40.0667 49.1911 40.0541 49.4789C40.0415 49.7672 39.6207 49.8415 39.4766 49.863C39.3324 49.8845 38.4224 49.9694 38.2491 50.0225C38.0758 50.0756 37.8288 50.342 37.8843 50.3754C37.9398 50.4088 38.2047 50.3713 38.4424 50.466C38.6801 50.5606 38.4852 51.0923 38.3654 51.1955C38.2456 51.2987 37.2907 51.2735 36.8432 51.2898C36.3957 51.306 36.3502 51.5881 36.6184 51.5405C36.8867 51.4929 37.0524 51.8055 37.1075 51.8956C37.163 51.9858 37.0923 52.4485 36.8707 52.4702C36.6492 52.4924 35.1848 52.7047 35.061 52.7235C34.9373 52.7423 34.9264 52.9129 35.2463 52.8532C35.5663 52.7934 35.5308 53.1916 35.5389 53.3792C35.5467 53.5663 34.4289 53.7369 34.1938 53.7535C33.9884 53.7682 33.8677 53.8395 33.9462 54.0644L34.0401 54.279C34.1553 54.5805 34.1693 54.9624 34.0427 55.0211C33.9005 55.0868 32.5357 55.4397 32.1465 55.4993C31.7573 55.5589 31.7241 54.8288 31.9651 54.7426C32.206 54.6565 33.5359 54.2136 33.6857 54.2014C33.8354 54.1896 33.6151 54.0455 33.4566 53.9891C33.2981 53.9326 33.1936 53.7424 33.2381 53.4745C33.2825 53.2067 34.0961 52.9009 34.4093 52.871C34.7221 52.8411 34.756 52.8346 34.6401 52.5405C34.5245 52.2463 34.823 51.8987 35.0731 51.8171C35.3231 51.7355 36.0779 51.7001 36.2187 51.6323C36.3594 51.5645 36.3506 51.3018 36.2122 51.1172C36.0737 50.9326 36.2236 50.4604 36.3781 50.4496C36.5327 50.4389 37.3609 50.345 37.5711 50.3232C37.781 50.3013 37.9003 50.0841 37.9599 50.0262C38.0191 49.9682 37.7187 50.0118 37.6372 49.8068C37.5549 49.6021 37.4911 49.3763 37.8916 49.2028ZM41.1148 47.5127C41.3099 47.5747 41.3981 48.1939 41.1823 48.2862C40.9666 48.3781 39.4543 48.7723 39.0996 48.6338C38.7454 48.4954 38.8134 48.0861 39.0283 47.9455C39.2436 47.805 40.9201 47.4508 41.1148 47.5127ZM42.4215 45.9803C42.6167 46.0423 42.7048 46.6615 42.4891 46.7538C42.2733 46.8461 40.7611 47.2399 40.4064 47.1014C40.0521 46.9629 40.1202 46.5537 40.3351 46.4131C40.5503 46.2726 42.2264 45.9184 42.4215 45.9803ZM43.4227 44.5459C43.6732 44.6029 43.8167 45.2007 43.5162 45.3015C43.2158 45.4023 41.9275 45.618 41.5733 45.4791C41.219 45.3407 41.2871 44.9314 41.5019 44.7909C41.7168 44.6507 43.1722 44.489 43.4227 44.5459ZM44.4778 43.0942C44.7283 43.1512 44.8718 43.749 44.5713 43.8498C44.2709 43.9506 43.0178 44.1758 42.6632 44.0373C42.3089 43.8989 42.3769 43.4896 42.5918 43.349C42.8071 43.2085 44.2273 43.0373 44.4778 43.0942ZM45.5765 41.5556C45.827 41.6125 45.9705 42.2104 45.67 42.3112C45.3696 42.4119 44.1166 42.6372 43.7619 42.4987C43.4072 42.3602 43.4757 41.951 43.6905 41.8104C43.9058 41.6699 45.326 41.4987 45.5765 41.5556Z" fill="#2B2D2E"/>
<path d="M48.25 17.5384C48.8309 17.0626 49.5214 16.9501 49.8506 17.1367C50.1798 17.3234 50.2994 17.8069 50.2491 18.1599L50.1777 18.4317C49.925 19.2878 49.1192 21.7802 49.4131 23.949C49.7312 26.2952 52.5119 30.075 54.2976 31.5287L54.6402 31.7875C55.5512 32.4144 56.031 32.9566 56.2406 33.4139C56.2037 34.1356 55.957 34.8878 55.7927 35.2674L55.6447 35.5056L55.6525 35.4468C55.768 34.9153 55.0261 34.1235 54.2035 33.07C53.381 32.0165 49.9138 28.93 48.7933 25.7132C47.6724 22.4963 48.503 20.2817 48.9669 19.2457C49.4303 18.2097 48.9644 17.9513 48.7328 17.6849C48.6619 17.6029 48.4089 17.6362 48.089 17.7205L48.1222 17.6731L48.25 17.5384Z" fill="#FFD895"/>
<path d="M54.2972 31.5282L54.6398 31.787C55.5508 32.4139 56.0306 32.956 56.2402 33.4134C56.2033 34.1351 55.9566 34.8873 55.7923 35.2669L55.6443 35.5051L55.6521 35.4463C55.7676 34.9147 55.0257 34.123 54.2031 33.0695L53.8344 32.6419C52.9259 31.6442 51.0757 29.8249 49.7981 27.761C49.7093 26.9179 49.7174 26.0484 49.7603 25.2073C50.6192 27.476 52.8053 30.3137 54.2972 31.5282Z" fill="#FFCA6F"/>
<path d="M44.9253 24.8855C45.0785 25.2546 44.4204 26.5552 44.155 27.1847C43.8892 27.8142 43.3503 29.4655 43.6506 30.0474C43.9509 30.6294 46.1203 32.9625 46.3372 33.5681C46.554 34.1741 46.0264 35.4263 45.6924 36.0329C45.3584 36.639 44.5985 37.7686 44.131 37.9857L41.4459 39.0398C41.0277 39.2099 40.6843 39.3604 40.5305 39.455C40.0447 39.7537 37.3414 44.1259 35.4519 46.0838L34.1457 47.3499C32.6985 48.7891 31.507 50.1638 30.8664 50.9468L29.4866 52.7346C28.8181 53.5975 28.0898 54.4893 27.5184 54.9628C26.8046 55.5542 25.4651 56.8971 24.6386 57.6757L24.9148 57.2792C25.0622 57.0614 25.227 56.8023 25.4267 56.4441C26.1178 55.2048 26.889 53.4465 27.3322 52.655L27.7012 52.0286C28.3098 51.0259 29.2994 49.488 29.6546 49.0508L30.2552 48.357C30.429 48.1531 30.5726 47.9617 30.6724 47.7394C30.8723 47.295 31.9901 46.8609 32.2626 46.3837C32.5351 45.9065 33.3631 44.6691 33.6097 44.1097C33.8562 43.5503 33.9185 42.9066 34.5085 41.5394L34.7799 40.9616C35.6854 39.125 37.9024 35.1695 38.0004 34.9329L39.4371 32.1584C39.5679 31.8985 39.69 31.6516 39.7936 31.4329L40.0382 30.8807C40.3796 30.0094 42.4426 26.6428 42.9664 25.6069L43.0584 25.4113C43.2508 24.9456 43.5015 24.6639 43.8103 24.566L43.8701 24.4223C44.5046 24.5664 44.8561 24.7194 44.9253 24.8855Z" fill="#EDEBF0"/>
<path d="M44.9241 24.8856C45.0773 25.2548 44.4191 26.5553 44.1533 27.1848C43.8875 27.8143 43.3486 29.4656 43.649 30.0476C43.9493 30.6295 46.1187 32.9626 46.3355 33.5682C46.5524 34.1742 46.0248 35.4265 45.6908 36.033C45.3568 36.6391 44.5969 37.7688 44.1294 37.9859L41.4443 39.0399C41.0261 39.21 40.6827 39.3606 40.5288 39.4551C40.0431 39.7538 37.3398 44.1261 35.4502 46.084L34.1441 47.35C32.6969 48.7893 31.5053 50.164 30.8647 50.9469L29.4849 52.7348C28.8165 53.5977 28.0882 54.4895 27.5168 54.9629C27.2188 55.2101 26.8118 55.5879 26.3784 56.0011C26.5122 55.5816 26.681 55.1753 26.8845 54.7813C27.8315 52.9508 29.8391 50.4991 31.3552 49.2667L31.7935 48.9354C33.2259 47.944 35.2359 44.8698 36.0139 42.9811L36.1709 42.5676C36.7242 40.9526 39.4008 35.3333 40.855 32.5176L42.3025 29.7853C42.7957 28.8361 43.6422 27.1681 44.8417 24.7818C44.8817 24.8157 44.9092 24.8506 44.9241 24.8856Z" fill="#E9E5E9"/>
<path d="M43.6925 30.1213L43.6495 30.048C43.9498 30.6304 46.1192 32.9631 46.3361 33.5687C46.5529 34.1747 46.0253 35.4269 45.6913 36.0335C45.3573 36.6396 44.5974 37.7692 44.1299 37.9864L41.4448 39.0404C41.0266 39.2105 40.6832 39.361 40.5294 39.4556C40.0436 39.7543 37.3403 44.1265 35.4508 46.0844L34.1446 47.3505C32.6974 48.7898 31.5059 50.1645 30.8652 50.9474L29.4855 52.7353C29.3352 52.9292 29.1821 53.1243 29.0283 53.3161L28.5992 53.0264C28.5324 52.9851 28.4681 52.948 28.4069 52.916L28.1332 52.7962L28.6492 52.1227C29.0303 51.9414 29.4836 51.7657 29.7409 51.6444C30.2065 51.4247 31.0682 49.9737 31.6693 49.0245L31.794 48.9355C33.1152 48.0207 34.9282 45.3334 35.8122 43.4398L36.0797 43.1866L36.3291 42.9293C37.2224 41.9554 38.4946 39.4975 39.256 38.1738C39.6742 37.4473 39.6454 36.2096 39.5458 35.1342L40.274 33.6627L40.7602 34.1079C41.0099 34.3205 41.2636 34.5022 41.4936 34.581C42.2792 34.8494 42.3639 33.8817 42.6053 33.2861L42.6833 33.12C42.8439 32.8305 43.1803 31.8311 43.6925 30.1213Z" fill="#CDCDCD"/>
<path d="M28.2055 52.2511C28.4521 52.0427 28.48 52.1756 29.3893 52.0073C29.62 51.9644 29.8534 51.9584 30.0773 51.9711L29.4615 52.7598L28.9627 52.6587C28.9309 52.6543 28.9067 52.6519 28.8901 52.6514C28.6572 52.6489 28.264 52.6826 27.7105 52.7524C27.8762 52.5572 28.041 52.39 28.2055 52.2511ZM32.3997 46.1549C32.5391 46.0646 32.6682 46.0109 32.8494 45.9864C33.1669 45.9433 34.2158 46.0421 35.0946 46.0742L35.4504 46.084L34.5283 46.9768L33.903 46.8425C33.2794 46.7161 32.7028 46.632 32.5417 46.7572L32.2057 47.0621C31.6231 47.6225 30.6165 48.675 30.5385 48.7598C30.4597 48.8453 30.3931 48.4952 30.3825 48.1948L30.254 48.3576C30.4279 48.1537 30.5715 47.9623 30.6712 47.74C30.8712 47.2956 31.989 46.8614 32.2615 46.3842L32.3997 46.1549ZM41.4813 28.2236C41.6235 28.193 41.7232 28.1923 41.7522 28.2129C41.8399 28.2748 41.5033 28.7542 41.1876 29.3269L40.1712 31.3484C39.9854 31.7122 39.8174 32.0279 39.7089 32.1978C39.4404 32.6184 41.5617 34.4237 42.323 35.1592L42.4728 35.3088C42.7934 35.6454 43.9027 36.5725 44.7839 37.3834C44.548 37.6695 44.3161 37.9004 44.1303 37.9864L41.1787 39.1502C41.8368 38.6949 43.1647 38.055 43.3488 37.8799C43.55 37.6888 43.0125 37.3624 42.6072 36.944L42.4441 36.759C42.1775 36.4206 41.0431 35.4599 39.0417 33.8771C38.5292 35.2249 38.1955 35.8911 38.0398 35.8756C37.9672 35.8683 37.8907 35.6202 37.8204 35.2797L39.436 32.1594L39.7924 31.4338L40.037 30.8817C40.1354 30.6304 40.3773 30.1713 40.6838 29.6206L41.4813 28.2236Z" fill="#908F91"/>
<path d="M19.7385 67.0046C19.8853 66.4464 19.6245 66.0156 19.3394 65.8622C19.0544 65.7087 18.1679 65.8246 17.4588 66.4763C16.7501 67.1281 16.7561 67.7837 16.9923 68.1561C17.2284 68.5286 17.8332 68.4621 18.2498 68.2898C18.6669 68.1176 19.5913 67.5628 19.7385 67.0046Z" fill="#242424"/>
<path d="M17.694 67.1023C17.488 67.564 17.5577 67.8105 17.9171 67.9014C18.277 67.9924 19.7286 67.826 20.3521 67.8307C20.9756 67.8358 22.9205 67.3988 23.651 66.9696C24.3816 66.54 27.632 62.185 28.3435 60.7065C29.0546 59.2279 28.368 56.9906 28.2459 56.0739C28.1239 55.1572 27.9305 54.6496 27.9021 54.2319C27.8738 53.8142 28.005 53.5694 28.0329 53.2934C28.0513 53.1092 28.1094 52.9425 28.2072 52.7929C29.0396 52.5489 29.6501 52.4321 30.0383 52.4427C30.6212 52.4588 31.5679 52.779 33.2078 53.649C34.8476 54.5191 35.4742 54.8401 36.5731 55.1641C37.6721 55.4881 38.8314 55.7583 41.1458 53.0362C43.4602 50.3141 43.9413 49.0362 43.7003 48.2456C43.5396 47.7184 43.4243 47.3613 43.3541 47.1736C44.7378 47.8884 46.1349 48.3145 47.5463 48.4522C49.6632 48.659 50.5325 48.6444 51.6698 48.3644C52.8072 48.0844 53.3893 47.7235 53.4518 47.5734C53.5144 47.4232 52.2637 46.9696 51.859 46.8515C51.4546 46.7335 50.6051 46.7821 50.2051 46.7734C49.8051 46.7646 48.702 46.8257 46.4823 46.3139C44.2626 45.802 40.7523 44.4955 39.5586 44.1112C38.365 43.727 35.6516 42.9432 34.5633 43.0997C33.475 43.2563 32.6302 43.563 32.7627 44.62C32.4443 44.6332 31.8043 44.8626 31.791 45.3531C31.7776 45.8435 32.079 46.2911 33.0772 46.2996C34.0755 46.3081 35.8947 46.8626 36.9246 46.9847C37.9546 47.1067 40.8269 47.4628 41.3401 47.5107C41.8533 47.5586 42.1776 48.0971 42.042 48.3564C41.9064 48.6157 37.8292 53.2313 37.5414 53.4679C37.2537 53.7041 37.0402 53.7356 35.9416 53.2066C34.843 52.6775 33.185 51.6341 31.8485 51.2048C30.5119 50.7755 30.1318 50.5283 29.4709 50.5079C28.8097 50.487 28.9077 50.4314 28.4428 50.7508C27.9783 51.0698 27.3179 50.9828 26.9174 51.5329C26.5173 52.083 25.9095 53.0139 26.4029 54.6983C26.8964 56.3826 27.365 58.2901 27.0436 59.3793C26.7222 60.4686 22.4401 65.4083 22.0897 65.683C21.7393 65.9578 20.1753 66.4557 19.7398 66.4268C19.3043 66.3979 18.8951 66.2886 18.5248 66.4407C18.1549 66.5931 17.9001 66.6406 17.694 67.1023Z" fill="#F0EDF4"/>
<path d="M33.5501 44.7042C36.8588 45.1429 38.9164 45.4432 39.7222 45.606C40.9309 45.85 37.1713 44.6926 35.8246 44.6149C34.927 44.5628 34.1688 44.5927 33.5501 44.7042Z" fill="#D4D4D4"/>
<path d="M28.5675 57.8687C28.7018 58.8085 28.743 59.8769 28.3436 60.7065C27.6325 62.185 24.3821 66.54 23.6512 66.9696C22.9206 67.3992 20.9758 67.8358 20.3523 67.8307C19.9532 67.8273 19.2154 67.8946 18.6411 67.9193L18.9444 67.7929C18.9883 67.7755 19.0287 67.7603 19.0659 67.7466C19.4898 67.5919 20.5757 67.4512 21.3064 67.1576C21.964 66.8935 21.7601 66.5987 21.4386 66.5583L21.3281 66.5548C20.9521 66.5771 21.7025 66.0671 22.5559 65.6616C23.3383 65.2897 25.1608 63.1046 25.9569 62.0061L26.147 61.7357C26.6854 60.9382 27.1933 60.3624 27.4744 59.7855L27.6144 59.4374C27.8336 58.7337 27.9182 60.319 28.0315 59.789L28.158 59.3131C28.2437 59.0142 28.3554 58.6418 28.4583 58.2735L28.5675 57.8687ZM40.7835 47.3999L41.5074 47.3102C42.3481 47.2194 42.7136 47.2612 42.8794 47.6547L42.9324 47.8191C43.0328 48.2249 43.3348 48.9527 43.5795 49.4702C43.2766 50.2691 42.5472 51.388 41.1459 53.0367C38.8315 55.7588 37.6723 55.4886 36.5733 55.1646C35.6001 54.8778 34.9973 54.5931 33.7332 53.9271C33.9149 53.9263 34.0832 53.9493 34.2386 53.995L34.4625 54.08C35.3521 54.5011 36.8187 54.5373 36.7614 54.1223C36.7313 53.9046 36.5931 53.667 36.4639 53.4424C37.1227 53.7177 37.3075 53.661 37.5416 53.4688C37.8293 53.2325 41.9065 48.6165 42.0421 48.3573C42.1777 48.098 41.853 47.5594 41.3402 47.5116L40.6602 47.4358C40.6997 47.4141 40.7423 47.4052 40.7835 47.3999ZM42.9178 46.4522C44.6106 47.1769 45.7834 47.5651 46.4363 47.6165C47.4153 47.694 48.3622 47.0295 49.8778 47.1012C50.2284 47.1177 50.44 46.9934 50.5414 46.779C50.9675 46.7694 51.5463 46.7609 51.8591 46.8519L52.2305 46.9733C52.7548 47.1565 53.5007 47.4569 53.452 47.5738C53.3894 47.7239 52.8074 48.0849 51.67 48.3649C50.5326 48.6449 49.6629 48.6594 47.5464 48.4526C46.3706 48.3377 45.2043 48.0226 44.0475 47.507L43.4778 47.2324L42.9178 46.4522Z" fill="#CCCDD8"/>
<path d="M55.2876 46.1108C55.4326 45.5162 55.4282 45.0216 55.2743 44.6275C55.0433 44.0359 54.9133 43.4187 53.718 42.7071C52.5227 41.9951 50.3354 40.8937 49.4836 40.2249C48.6319 39.556 44.5592 35.9603 43.4116 34.9806C42.264 34.0009 40.4366 32.5459 40.0602 31.8961C39.8093 31.4629 39.7481 31.1845 39.8762 31.0601C39.5063 30.6156 39.1465 30.4642 38.7971 30.6051C38.2731 30.8165 37.9952 31.427 38.0708 31.718C38.1464 32.009 38.4017 32.5421 39.3607 33.5831C40.3197 34.6242 43.5051 37.3352 45.2847 39.0906C47.0644 40.8459 49.3559 42.2997 50.694 43.0004C52.0322 43.7011 53.5229 44.7337 53.9764 44.9886C54.2793 45.1584 54.7164 45.5326 55.2876 46.1108Z" fill="#E8E6E4"/>
<path d="M38.7969 30.605C39.1464 30.4642 39.5061 30.616 39.8761 31.06C39.8505 31.0849 39.8324 31.1159 39.822 31.153L39.6373 31.0683C39.5073 31.0255 39.3608 31.0125 39.1987 31.0286C38.5922 31.0893 38.3713 31.8182 38.4724 32.5047C38.2161 32.1288 38.1144 31.884 38.0711 31.718C37.9951 31.427 38.273 30.8161 38.7969 30.605Z" fill="#727272"/>
<path d="M50.8259 41.9707C51.5864 42.2956 52.7239 42.5949 52.9125 42.2472L53.7179 42.7066C54.9132 43.4186 55.0432 44.0358 55.2742 44.627C55.4281 45.0211 55.4325 45.5157 55.2875 46.1103C54.8305 45.6477 54.4594 45.316 54.1747 45.1144L52.2976 43.9286C51.9166 43.692 51.5064 43.4454 51.0994 43.2185L50.6943 42.9995C50.1618 42.7207 49.4786 42.3229 48.7368 41.8339C49.5689 41.947 50.1277 41.6723 50.8259 41.9707Z" fill="#DBD0D0"/>
<path d="M41.5564 28.6695C41.79 28.3068 42.127 27.7364 41.6175 27.8938C41.1079 28.0508 40.7289 28.0766 40.2802 27.8873C39.8316 27.698 38.9144 27.6731 38.0121 28.486C37.1097 29.2989 37.185 30.3743 37.3065 31.1721C37.4279 31.9699 36.9784 33.3306 36.8861 33.9189C36.7938 34.5071 37.2155 34.863 37.43 34.5664C37.6445 34.2701 38.1075 32.3246 38.0707 31.7177C38.0342 31.1108 38.0387 29.7494 38.4451 29.3017C38.8515 28.854 40.2084 28.8144 40.3111 29.2219C40.4137 29.6299 40.7622 30.3122 40.7999 30.0751C40.8375 29.8384 41.3228 29.0322 41.5564 28.6695Z" fill="#343434"/>
<path d="M31.0569 68.9876C29.8482 70.1122 28.2327 70.65 27.6829 70.7867C27.133 70.9233 26.1568 70.2875 25.9882 69.0674C25.8195 67.8473 26.6298 66.4697 27.3378 65.8641C28.0459 65.2585 29.2414 64.4919 30.2357 64.6959C31.2299 64.9 32.1923 65.4632 32.4524 66.0881C32.7129 66.7134 32.2661 67.863 31.0569 68.9876Z" fill="#6D5CCA"/>
<path d="M30.7033 68.566C29.4945 69.6906 27.8466 70.2305 27.2967 70.3672C26.7468 70.5038 26.1572 70.2875 25.9882 69.0674C25.8195 67.8473 26.6298 66.4697 27.3378 65.8641C28.0459 65.2585 29.2414 64.4919 30.2357 64.6959C31.23 64.9 31.7137 65.0518 31.9734 65.6766C32.2339 66.3019 31.912 67.4414 30.7033 68.566Z" fill="#7B53E8"/>
<path d="M30.0542 65.5125C30.134 65.3335 30.3781 65.3794 30.5557 65.3784C30.7333 65.3774 31.5105 65.6765 31.5454 65.9949C31.5803 66.3132 31.1767 66.7631 30.8141 66.9797C30.4516 67.1962 29.5655 67.3526 29.4146 67.6009C29.2637 67.8492 28.5694 68.3668 28.3019 68.8009C28.0344 69.2347 27.5597 69.1957 27.0371 69.3627C26.6438 69.4878 27.0005 70.0203 27.3158 70.3639C26.7468 70.5037 26.1572 70.2874 25.9881 69.0673C25.9705 68.941 25.9638 68.8128 25.9661 68.6842L26.0396 68.6245L26.1808 68.5318C26.5212 68.3354 27.8761 68.1323 28.2704 67.9945C28.6647 67.8567 29.4262 66.9662 29.6149 66.7655C29.8039 66.5653 29.9744 65.6916 30.0542 65.5125Z" fill="#9175F6"/>
<path d="M30.2361 64.6959L30.5051 64.7472C30.6747 65.0219 30.6574 65.4856 30.9878 65.7892C31.2987 66.075 31.0507 66.7205 30.4425 66.833C29.8342 66.9455 29.5977 66.9661 29.3631 67.2997C29.1286 67.6333 28.5874 68.0854 28.3786 68.2017C28.2637 68.3599 28.2099 68.4978 28.2171 68.6154C28.2335 68.8903 27.9907 69.054 27.6266 69.163C27.2625 69.2721 27.0372 68.9995 26.9469 68.8095C26.8566 68.6196 26.825 68.7426 26.3264 68.8417C26.1582 68.8751 26.0725 69.0674 26.0329 69.3105L25.9882 69.0677C25.8195 67.8476 26.6298 66.47 27.3378 65.8644C28.0463 65.2584 29.2418 64.4923 30.2361 64.6959Z" fill="#4334A5"/>
<path d="M49.0036 54.4487C49.2023 54.8732 49.1384 55.8686 48.3838 56.9895C47.6292 58.1108 46.2804 59.2641 44.9562 59.5847C43.632 59.9052 42.8769 58.118 42.7671 57.3139C42.6574 56.5097 42.9915 55.0563 44.0046 54.1001C45.0178 53.144 46.076 52.7285 47.1488 52.9515C48.222 53.1742 48.8049 54.0242 49.0036 54.4487Z" fill="#6645BD"/>
<path d="M48.7794 54.0907C48.978 54.5152 48.8929 55.4752 48.1438 56.4673C47.3948 57.4594 45.8796 58.8712 44.5549 59.1918C43.2307 59.5123 42.8782 58.1181 42.7684 57.3139C42.6586 56.5098 42.9927 55.0563 44.0059 54.1001C45.019 53.144 46.0772 52.7285 47.15 52.9515C48.2228 53.1742 48.5807 53.6662 48.7794 54.0907Z" fill="#7857DD"/>
<path d="M47.1486 52.9512C47.4134 53.0064 47.6348 53.0778 47.8212 53.1605C46.8705 53.3554 46.9881 53.762 47.3577 53.9682C47.7656 54.1959 48.8235 54.7688 47.4532 55.5528C47.1917 55.7025 46.8341 56.2363 46.4136 56.7079C46.1956 56.9524 45.8124 57.3996 45.2642 58.0495C44.729 58.5782 44.4202 58.2243 43.7311 58.0713C43.3021 57.9761 43.234 58.4598 43.6747 59.1116C43.0559 58.799 42.8471 57.8993 42.767 57.3131C42.6572 56.509 42.9914 55.0555 44.0045 54.0994C45.0177 53.1436 46.0758 52.7282 47.1486 52.9512Z" fill="#4D34B6"/>
<path d="M45.689 53.0365L45.9632 53.0162L46.1929 53.0357C46.7193 53.168 46.8714 54.0359 47.1542 54.0785C47.437 54.1211 47.8008 54.3626 47.9963 54.6791C48.1918 54.9956 47.3584 55.4479 47.088 55.4586L46.4802 55.4289C46.146 55.4181 45.7955 55.44 45.7052 55.6108C45.5469 55.9094 45.2191 56.7034 45.3087 57.0632C45.3983 57.4231 45.3686 57.9164 44.9718 58.1799C44.5749 58.4434 43.6393 57.873 43.4735 57.7169C43.3445 57.5957 42.9499 57.0446 42.8746 56.4109L42.8655 56.1044C43.0358 55.422 43.3992 54.6723 44.005 54.1005C44.5544 53.581 45.1177 53.2211 45.689 53.0365Z" fill="#311B8E"/>
<path d="M22.7464 64.2806C22.2659 64.6605 21.6669 65.2257 21.8298 65.4548C21.9928 65.6839 24.0577 67.4076 24.7739 67.7695C25.49 68.1313 26.143 68.352 26.8944 68.1808C27.6458 68.0096 28.7221 67.6853 29.2584 66.84C29.7951 65.9947 29.7599 64.699 29.4398 63.9445C29.1196 63.1896 27.9226 60.8895 27.6969 60.5433C27.4709 60.1971 27.0011 59.592 27.1396 59.2663C26.8813 59.0791 26.6858 59.1225 26.5191 59.281C26.3524 59.4394 25.3067 61.29 24.9424 61.7075C24.5781 62.1245 23.2268 63.9007 22.7464 64.2806Z" fill="#4E2FBB"/>
<path d="M22.7464 64.2806C22.2659 64.6605 21.6669 65.2257 21.8298 65.4548C21.9928 65.6839 23.9457 67.1904 24.6618 67.5527C25.3779 67.9146 26.0287 68.1469 26.7801 67.9757C27.5315 67.8045 28.6079 67.4803 29.1442 66.6349C29.6809 65.7896 29.6456 64.494 29.3255 63.7395C29.0053 62.985 27.9226 60.8895 27.6965 60.5433C27.4705 60.1971 27.0006 59.592 27.1392 59.2663C26.8809 59.0791 26.6854 59.1225 26.5187 59.281C26.352 59.4394 25.3063 61.2899 24.942 61.7074C24.5781 62.1245 23.2268 63.9007 22.7464 64.2806Z" fill="#7B4EE4"/>
<path d="M26.1872 59.7731L27.6669 62.4386C27.8324 62.7467 27.9616 62.9949 28.0552 63.1838L28.1364 63.3525C28.5178 64.1717 29.0244 65.4437 28.3967 66.3903C27.7691 67.3369 26.7568 67.4568 25.4904 67.0579C24.7246 66.8166 23.6488 66.0308 22.2636 64.7003C22.414 64.5525 22.5862 64.4062 22.7452 64.2804C22.9055 64.1539 23.1622 63.8721 23.4471 63.5372L24.9412 61.7073C25.1998 61.4116 25.8001 60.3962 26.1872 59.7731Z" fill="#8754ED"/>
<path d="M26.3655 66.3036C26.193 66.5615 26.3182 67.1862 26.5118 67.3931C26.7055 67.6 27.4462 67.4969 27.5105 67.1075C27.5747 66.718 27.3411 66.2628 27.0155 66.109C26.6891 65.9556 26.5375 66.0457 26.3655 66.3036Z" fill="#483C9D"/>
<path d="M27.7932 65.2857C27.8576 65.5896 28.3903 65.9326 28.6722 65.9359C28.9541 65.9392 29.3957 65.3303 29.1629 65.0136C28.9297 64.6968 28.4424 64.5502 28.1061 64.6794C27.7698 64.8086 27.7288 64.9818 27.7932 65.2857Z" fill="#483C9D"/>
<path d="M26.1878 59.7731L26.8906 61.0429L24.5319 66.5782C23.9014 66.1728 23.1457 65.5467 22.2646 64.7003C22.415 64.5525 22.5872 64.4062 22.7462 64.2804C22.9065 64.1539 23.1632 63.8721 23.4481 63.5373L24.9422 61.7073C25.2005 61.4116 25.8007 60.3962 26.1878 59.7731Z" fill="#9D6CFA"/>
<path d="M26.5916 66.4093C26.4958 66.4777 26.513 66.9002 26.7141 67.4886C26.9153 68.0771 27.2728 68.7734 27.3542 68.8649C27.4356 68.9563 27.9144 68.8055 27.9358 68.6015C27.9573 68.3975 27.1738 66.6109 27.0784 66.417C26.983 66.2231 26.687 66.3405 26.5916 66.4093Z" fill="#7A00FE"/>
<path d="M28.3813 64.8588C28.1027 64.8626 27.9009 65.0753 28.0045 65.2749C28.1085 65.4745 29.5959 66.3117 29.728 66.4269C29.8601 66.5421 30.2913 66.684 30.5452 66.4261C30.7991 66.1681 30.7941 65.9665 30.5534 65.8908C30.3128 65.8152 29.048 65.0728 28.7471 64.9456C28.4462 64.8183 28.66 64.855 28.3813 64.8588Z" fill="#7A00FE"/>
<path d="M46.0263 56.0403C46.7608 55.2366 46.2621 53.2329 45.5251 51.9892C44.7882 50.7454 42.7229 48.3558 42.4746 48.2066C42.2262 48.0575 42.1631 47.5298 41.8702 47.6656C41.5774 47.8015 38.744 51.4352 38.2564 52.0844C37.7687 52.7339 37.34 53.0416 37.233 53.4772C37.1259 53.9127 38.3658 54.9607 39.1372 55.4421C39.9086 55.9236 41.4953 56.8359 42.8253 56.8886C44.1562 56.941 45.2919 56.8435 46.0263 56.0403Z" fill="#784CDF"/>
<path d="M41.2126 48.3783C41.4702 48.5287 41.6791 48.6731 41.8389 48.8109C42.6814 49.534 44.3154 51.4395 45.1008 53.0153C45.8862 54.5911 45.3703 55.7296 44.5192 56.0626C43.6678 56.3955 42.029 56.1522 40.2056 55.1428C38.8465 54.3904 37.9642 53.3805 37.5844 52.8805L38.0106 52.3937L39.8356 50.0608C40.2367 49.5557 40.6508 49.0418 41.002 48.6196L41.2126 48.3783Z" fill="#6D45D6"/>
<path d="M43.2134 55.1837C43.0409 55.4415 43.2298 55.9914 43.423 56.1983C43.6167 56.4052 44.3512 56.2961 44.3361 55.9219C44.321 55.5478 44.1591 55.1169 43.8331 54.9631C43.5075 54.8097 43.3858 54.9259 43.2134 55.1837Z" fill="#302387"/>
<path d="M44.3656 54.0715C44.4559 54.3685 44.9036 54.5369 45.2297 54.4668C45.5558 54.3964 45.7724 53.7452 45.4746 53.5217C45.1768 53.2982 44.9377 53.2823 44.6141 53.4412C44.2897 53.5992 44.275 53.7741 44.3656 54.0715Z" fill="#302387"/>
<path d="M41.213 48.3783C41.4706 48.5287 41.6795 48.6731 41.8393 48.8109L42.2016 49.1471C42.2673 49.212 42.3356 49.2808 42.4058 49.3533L39.4496 54.6682C38.5144 54.0079 37.8885 53.2808 37.5844 52.8805L38.0106 52.3937L39.8356 50.0608L41.002 48.6196L41.213 48.3783Z" fill="#895BE9"/>
<path d="M41.6466 48.6597L38.986 51.6437C38.6526 52.01 38.4005 52.2807 38.2301 52.4557C37.9589 52.7344 37.857 52.7465 37.9243 52.4925L38.0094 52.3937L39.8344 50.0609L41.0009 48.6196L41.2118 48.3787C41.3769 48.4747 41.5218 48.5685 41.6466 48.6597Z" fill="#AD90F5"/>
<path d="M43.3413 49.2226L42.8147 48.5351L43.4417 49.241C44.1613 50.081 45.0831 51.2416 45.5257 51.9887C46.2626 53.2324 46.7614 55.2361 46.0269 56.0398C45.2924 56.8434 44.1568 56.9404 42.8267 56.8877C41.4967 56.835 39.91 55.9227 39.1386 55.4412C38.4662 55.0215 37.4378 54.1715 37.2559 53.6718C38.2272 54.5938 40.0439 55.7401 41.1934 56.1153C42.4371 56.5208 43.568 56.6433 44.3277 56.4844C45.0874 56.3254 45.498 55.8506 45.7692 55.194C46.0404 54.5374 45.7443 53.657 45.2147 52.236C44.9578 51.5471 44.3334 50.5426 43.3413 49.2226Z" fill="#4E34AF"/>
<path d="M43.5408 55.1619C43.3227 55.2287 43.1576 55.435 43.5022 56.1634C43.8468 56.8913 44.2939 58.128 44.749 57.9312C45.2042 57.7347 44.8213 57.1499 44.7446 56.9471C44.6679 56.7444 44.1222 55.5355 44.0231 55.3512C43.9235 55.1673 43.7589 55.095 43.5408 55.1619Z" fill="#9761E9"/>
<path d="M45.0229 53.5067C44.6878 53.5473 44.4119 53.7735 44.5145 54.0266C44.6171 54.28 44.9598 54.2259 45.4924 54.3899C46.025 54.554 46.6952 54.9753 46.8014 55.1067C46.9075 55.2382 47.6185 55.074 47.6806 54.8009C47.7428 54.5278 46.9858 54.2779 46.6288 54.1136C46.2717 53.9492 45.3581 53.4661 45.0229 53.5067Z" fill="#9761E9"/>
<path d="M62.5708 62.269C62.4298 61.7513 62.6582 59.5686 62.6429 58.1976C62.6276 56.8265 63.7632 48.8239 64.1332 47.3571C64.5029 45.8903 64.7165 45.3898 65.2261 44.8888C65.7356 44.3881 67.2458 42.9128 67.2589 42.337C67.2716 41.7607 67.1413 40.3145 67.5393 39.5775C67.9372 38.8406 74.2276 32.0755 75.3422 30.8801C76.4567 29.685 79.6856 26.1661 80.198 25.6897C80.7104 25.2134 81.2565 25.0786 82.1842 25.359C83.1119 25.6394 85.7496 26.8619 86.0862 26.9881C86.4229 27.1142 87.2936 26.6049 87.364 26.6734C87.4112 26.719 88.3721 28.0232 90.2476 30.5857L86.3337 36.2929L73.2605 52.6917C66.2282 59.4212 62.6648 62.6139 62.5708 62.269Z" fill="#DDDDE1"/>
<path d="M62.5707 62.2692C62.4297 61.7515 62.9392 59.7695 62.9243 58.398C62.9091 57.027 64.0446 49.0244 64.4146 47.5576C64.7843 46.0907 64.9979 45.5902 65.5075 45.0892C66.017 44.5886 67.5272 43.1132 67.5403 42.5374C67.5534 41.9616 67.4227 40.5149 67.8207 39.778C68.2187 39.041 74.509 32.276 75.6236 31.0805C76.7381 29.885 79.8554 26.4513 80.3674 25.9745C80.8798 25.4981 81.426 25.3634 82.3536 25.6437C83.2813 25.9241 85.919 27.1467 86.2557 27.2728C86.5923 27.399 87.2935 26.6047 87.3639 26.6731C87.4111 26.7188 88.372 28.023 90.2475 30.5855L86.3336 36.2927L73.2604 52.6915C66.2281 59.4214 62.6647 62.6141 62.5707 62.2692Z" fill="#B9BDC1"/>
<path d="M86.2556 27.2727C86.5922 27.3989 87.2934 26.6046 87.3638 26.673L90.2474 30.5854L86.7106 35.7409L85.5183 30.5022C85.2115 29.1576 84.4548 27.6486 83.2483 25.9747L84.7293 26.6052C85.4637 26.9267 86.1016 27.2153 86.2556 27.2727Z" fill="#CCC8C8"/>
<path d="M76.773 3.94547C77.6623 3.58376 79.1718 3.63882 80.1235 5.2858C81.0752 6.93278 81.2568 8.66138 80.7677 10.061C80.2785 11.461 78.6625 13.1416 78.5833 13.4964C78.5046 13.8512 79.8915 15.3346 80.3763 15.835C80.861 16.3353 80.8241 17.1551 81.261 17.4186C81.6978 17.6821 83.0247 17.1026 85.1685 17.4211C87.3123 17.7396 88.4169 18.932 88.9014 20.167C89.3859 21.4019 88.5899 23.7187 88.1888 25.2816C87.7876 26.8445 88.756 27.5649 89.5474 28.3954C90.3388 29.2259 90.6353 29.797 90.3771 30.297C90.1189 30.7974 89.9271 30.6183 89.8209 30.544C89.7148 30.4693 88.8626 29.2268 88.5293 28.6902C88.1955 28.1536 87.6428 27.3231 87.5293 27.0531C87.4162 26.7828 87.3835 26.5822 87.3058 26.1469C87.228 25.7116 87.6056 24.0029 87.894 23.2932C88.1824 22.5831 88.351 20.9532 87.8031 19.6481C87.2553 18.343 85.4151 18.2124 84.589 18.0502C83.7629 17.888 81.9005 18.2976 81.2148 18.1893C80.529 18.081 79.4082 16.7644 79.0507 16.3148C78.6931 15.8653 77.277 14.4229 76.9502 14.0472C76.6235 13.6715 76.0149 12.9056 75.8833 12.5743C75.7518 12.243 75.8348 11.3356 75.8477 10.902C75.8606 10.4683 75.0475 9.51904 74.6446 7.71699C74.2425 5.91579 75.8837 4.30718 76.773 3.94547ZM77.1096 4.62235C76.2458 4.97674 75.4924 6.22847 75.4499 7.35725C75.4075 8.48604 76.2496 9.74928 76.728 10.387C77.2063 11.0247 77.0002 11.7087 77.0732 12.1421C77.1462 12.5755 77.6221 13.1494 77.7928 13.0414C77.9635 12.9334 78.3603 12.3839 78.8105 11.7884C79.2607 11.1925 79.8114 10.2609 80.182 9.10992C80.5526 7.95937 80.0894 6.57311 79.5931 5.73471C79.0975 4.89635 77.9734 4.26796 77.1096 4.62235Z" fill="#2C2F28"/>
<path d="M82.8884 26.2523L84.1258 26.7438C85.6093 27.3074 86.6814 27.4712 87.6082 27.146L87.6947 27.1099L88.233 27.8384C88.1232 27.8873 88.0081 27.929 87.8922 27.9698C86.8531 28.3344 85.7537 28.2248 84.358 27.7533L83.3778 27.3866L82.9483 27.2117C81.7199 26.7097 81.5426 26.721 80.822 27.3108L80.3006 27.79L79.6188 28.4615C78.1942 29.8867 75.8957 32.2942 74.1643 34.2354L72.416 36.2383L69.7281 39.4392C69.7034 39.4715 69.6843 39.4971 69.6712 39.5152C69.5347 39.7095 69.1359 42.184 68.9731 42.8288C68.8008 43.5099 68.4132 44.2 67.8616 44.8971C67.6566 45.1562 67.4359 45.4076 67.2012 45.653L66.6863 46.1631L66.1923 46.6138L66.1687 46.6482L66.0979 46.8004L66.0183 47.0583C65.8629 47.6353 65.6539 48.8036 65.3444 50.8744L65.0731 52.7375C64.8053 54.6191 64.6063 56.4633 64.476 58.2696C64.6283 58.1812 69.4559 53.5287 71.4282 51.7244C72.1194 51.0923 71.6659 50.361 70.8803 50.6992C70.0947 51.0375 69.4292 51.0691 69.1511 50.5953C68.59 49.6397 68.4813 48.4111 69.5204 47.0224C69.8463 46.587 71.4787 44.8611 71.2508 42.9721C71.0224 41.0831 71.1403 40.0508 71.723 39.2911C72.866 37.8013 77.3293 31.8937 80.8999 28.8901C81.8113 28.1234 82.2895 28.0506 83.3873 28.375C85.2888 28.9368 84.615 34.4141 86.011 33.4209C87.4985 32.3628 89.0161 30.6484 89.6095 30.2054C90.0443 29.8809 90.6993 30.8064 91.5738 32.9815C73.4206 51.4095 64.34 60.749 64.3312 60.9998L63.7469 61.4971C63.6589 61.57 63.5761 61.6382 63.498 61.7009C63.465 61.6388 63.4486 61.569 63.4503 61.4951C63.5255 58.6312 63.7809 55.6707 64.2163 52.6138L64.7064 49.3091L64.858 48.399C65.0977 47.0365 65.2771 46.4162 65.4952 46.1046L65.6243 45.9594L66.2378 45.39C66.5844 45.0533 66.9021 44.7095 67.184 44.3533C67.6656 43.7447 67.9959 43.1564 68.133 42.6136L68.5316 40.5767C68.6799 39.8572 68.8399 39.1873 68.9637 39.0108L69.2847 38.6026L70.7624 36.8347C71.3847 36.1015 72.0995 35.2691 72.7955 34.4733L74.3278 32.756L75.6189 31.3593C77.6602 29.178 79.7407 27.0706 80.2751 26.6334C81.1769 25.8972 81.6784 25.8031 82.8884 26.2523Z" fill="#3B3B3B"/>
<path d="M1.90315 82.0233C1.70177 81.9729 1.02887 83.0889 2.24538 85.8717C3.46229 88.6545 5.16809 89.3464 6.28179 90.0368C7.39549 90.7272 11.445 91.9803 14.563 91.6639C17.6809 91.3475 19.2202 90.8402 19.751 90.8121C20.2817 90.784 21.4962 90.6905 21.826 90.4482C22.1557 90.2055 22.935 90.2166 23.4064 90.2334C23.8777 90.2502 24.8187 89.6958 25.0343 89.697C25.2499 89.6979 25.7566 89.7614 26.6704 89.3559C27.5838 88.9505 31.6492 87.1459 32.2223 86.8916C32.7954 86.6372 32.5929 86.0193 32.3407 85.539C32.0884 85.0591 31.406 84.2936 30.7562 84.1643C30.106 84.0353 19.6275 87.8513 16.496 88.3677C13.3645 88.8841 9.79201 89.3284 8.40086 88.929C7.00971 88.5297 6.2565 87.9589 5.6405 87.4492C5.0245 86.9394 4.04024 86.0904 3.53584 85.0044C3.03144 83.9185 2.10453 82.0737 1.90315 82.0233Z" fill="#E2E2E2"/>
<path d="M2.16862 82.3518C2.53752 82.9404 3.15643 84.186 3.5355 85.0035C3.96773 85.9343 4.75268 86.691 5.35609 87.2095L5.64013 87.4486C6.25611 87.9588 7.00892 88.5296 8.40049 88.9285C9.79164 89.3279 13.3638 88.8835 16.4957 88.3672C19.6275 87.8508 30.106 84.0348 30.7558 84.1637C31.4061 84.2927 32.0881 85.0582 32.3403 85.5385C32.5644 85.9651 32.7495 86.5008 32.3853 86.7933L32.2219 86.8911L26.67 89.3554C25.7567 89.7609 25.2495 89.6974 25.0339 89.6965C24.8183 89.6957 23.8774 90.2497 23.406 90.2329C23.0131 90.2192 22.4065 90.2088 22.0243 90.3464L21.8256 90.4477C21.5429 90.6556 20.6103 90.7541 20.0153 90.7957L19.7506 90.812C19.2199 90.8401 17.6805 91.3474 14.5626 91.6638C13.5486 91.7669 12.4368 91.7037 11.3586 91.5483C11.762 91.5053 12.1562 91.4504 12.5207 91.3741L13.8381 91.1099C14.649 90.965 14.5403 91.0581 14.9215 91.1509C15.4414 91.2771 15.9393 90.7902 16.8485 90.5349C17.7577 90.2792 17.554 90.8002 18.3407 90.7341C19.0151 90.6772 19.329 90.3704 19.5851 90.3311L19.7097 90.3361C19.9958 90.4115 20.1726 89.9913 20.432 89.5232C20.6915 89.0552 21.6153 89.7489 22.1759 89.7161C22.7364 89.6838 22.2715 88.8155 22.9738 88.9973C23.6762 89.1787 24.2202 88.8424 24.3727 88.2661C24.5252 87.6899 25.8314 88.3571 26.6281 88.3605C27.4251 88.364 27.0841 87.9819 27.1198 87.3426C27.1555 86.7034 27.8761 87.4977 28.5116 87.5242C29.147 87.5508 29.0962 87.3738 29.0541 86.9538C29.0121 86.5337 29.7733 87.0012 30.3955 87.1807C31.0177 87.3598 32.1465 86.7288 31.8898 85.7401C31.6331 84.7513 31.2144 84.4965 30.353 84.7534C29.4916 85.0098 24.7923 86.6 21.9694 87.516C19.1464 88.4321 16.0295 89.2605 12.8314 89.5358C11.1523 89.6803 9.64633 89.7174 8.49439 89.4639C7.45192 89.2346 6.74599 88.6583 6.61344 88.5358C6.33438 88.2776 5.80556 87.677 4.87757 86.9439C4.02098 86.2671 2.45957 83.656 2.1856 82.6312L2.1432 82.4151L2.16862 82.3518Z" fill="#B7B7B6"/>
<path d="M32.3406 85.5381C32.5647 85.9647 32.7498 86.5004 32.3855 86.7929L32.2222 86.8907L26.6703 89.355C25.7569 89.7605 25.2498 89.697 25.0342 89.6961C24.8186 89.6953 23.8776 90.2493 23.4063 90.2325C23.1174 90.2223 22.7129 90.2142 22.367 90.2653C22.5111 90.1715 22.6196 90.0931 22.7553 90.0365L22.9873 89.9683C23.3293 89.9039 23.9664 89.6429 24.3891 89.5122L24.6584 89.4434C25.0134 89.3866 25.5917 89.1264 25.7676 89.1196C25.9434 89.1127 26.5625 88.7409 26.9081 88.7355C27.2537 88.7302 27.8725 88.3547 27.8888 88.1075C27.9051 87.8603 29.2539 87.9507 29.1781 87.8865C29.1018 87.8223 29.1257 87.6416 29.3602 87.5388C29.5947 87.436 30.3991 87.406 30.7663 87.2676L31.235 87.0514C31.6072 86.8529 32.0251 86.5908 32.118 86.4406C32.2096 86.2927 32.2633 85.9375 32.2797 85.3753L32.2824 85.4355L32.3406 85.5381Z" fill="#727272"/>
<path d="M103.159 42.6627C102.475 41.0952 101.306 40.3865 100.961 40.2701C100.616 40.1538 100.336 39.1039 100.477 38.3399C100.619 37.5759 99.9801 36.8894 99.0994 36.4537C98.2183 36.0183 88.9179 36.2487 88.2543 36.7507C87.5906 37.2527 74.0295 49.8007 72.5536 51.1789C71.0778 52.5571 67.2062 56.327 66.3624 57.1044C65.5186 57.8818 62.6842 60.1672 62.047 60.6198C61.4098 61.0725 50.7754 67.7517 49.8698 68.2054C48.9642 68.6586 32.8491 76.6193 25.5595 79.7078C18.27 82.7963 6.50299 87.2922 6.12544 87.6241C5.74789 87.9559 6.89907 89.1752 8.57913 89.4287C10.2592 89.6821 14.1097 89.7476 20.3556 87.8385C26.6015 85.9298 30.648 84.3993 31.0303 84.4149C31.4125 84.4306 32.0137 84.8885 32.1704 85.3501C32.3271 85.8122 32.332 86.2382 32.5384 86.194C32.7449 86.1499 33.5592 85.829 33.7359 85.5273C33.9125 85.2255 34.5228 85.531 35.6897 85.1226C36.8565 84.7142 37.8919 84.3736 39.1803 83.802C40.4683 83.23 53.336 77.4836 54.9986 76.7454C56.6612 76.0073 57.8441 74.5697 58.4788 73.1441C59.1131 71.7186 59.8588 71.081 60.4024 70.9416C60.9459 70.8022 61.3051 71.6444 61.7553 71.4918C62.2054 71.3392 62.4856 71.2395 62.6455 71.4807C62.8054 71.7219 63.7261 72.4215 64.7163 72.1665C65.7066 71.9116 67.8181 71.0547 70.8359 69.7147C73.8536 68.3752 85.7312 63.1028 89.538 61.4126C93.3452 59.7228 93.979 57.8408 94.3607 57.4017C94.7419 56.9626 95.791 57.3519 96.0253 57.082C96.2595 56.8121 96.6278 56.1117 97.2669 56.1114C97.9061 56.1112 98.6715 55.642 98.7293 55.276C98.7871 54.9099 99.2831 54.7003 99.3166 54.8176C99.3497 54.9349 100.256 54.7995 100.462 53.9963C100.667 53.193 100.679 52.8728 101.159 52.8484C101.64 52.824 101.828 52.1886 101.735 51.7125C101.642 51.2364 102.283 51.6497 102.423 51.4074C102.515 51.2457 102.632 50.894 102.773 50.3523C103.447 48.9483 103.832 47.8046 103.928 46.9215C104.072 45.5976 103.843 44.2303 103.159 42.6627Z" fill="#DFDFDF"/>
<path d="M88.2543 36.7508C88.9179 36.2489 98.2183 36.0184 99.0994 36.4538L99.3619 36.5951C98.0453 37.6547 94.8247 41.8261 93.6032 42.0611C92.1931 42.3321 91.9863 41.3331 91.4441 41.2013C90.9014 41.0691 89.8817 41.5514 88.2711 43.0398C87.5908 43.4784 85.2861 43.4792 81.3563 43.0417L87.9741 36.9903C88.1161 36.8645 88.2118 36.7831 88.2543 36.7508Z" fill="#E2E2E2"/>
<path d="M33.7859 83.8601L34.3713 83.619L34.7934 83.461C34.9704 83.3974 35.0922 83.3695 35.1399 83.436C35.2514 83.5911 35.9133 84.0258 36.4806 83.9873L36.8829 83.9492L37.6269 83.8557C38.3439 83.7555 39.266 83.6001 40.1045 83.3899L39.1807 83.8018C37.8926 84.3738 36.8569 84.714 35.69 85.1224C34.6527 85.4854 34.0555 85.2842 33.8115 85.447L33.7362 85.5271C33.5592 85.8288 32.7453 86.1497 32.5388 86.1938C32.3827 86.227 32.342 85.9929 32.264 85.6773C32.5911 85.5873 32.8639 85.3981 33.0829 85.1091C33.4584 84.6133 33.2937 84.0503 33.7859 83.8601Z" fill="#9C9C9C"/>
<path d="M35.4998 84.1283L35.8716 84.2639C36.2529 84.398 36.8033 84.545 37.454 84.4035L37.9594 84.3051C37.184 84.6091 36.4664 84.8506 35.6905 85.1224C34.6532 85.4853 34.056 85.2842 33.812 85.447L33.7368 85.527C33.5597 85.8288 32.7458 86.1497 32.5393 86.1938C32.4205 86.2194 32.3682 86.0889 32.3158 85.8861L32.817 85.6928C32.9945 85.6186 33.1624 85.535 33.257 85.442C33.5151 85.1896 33.6923 84.6967 34.1363 84.4637C34.5803 84.2311 35.1714 84.0222 35.4998 84.1283Z" fill="#404040"/>
<path d="M101.546 45.7829C100.191 48.139 97.8249 50.7127 96.9427 52.6273C96.0986 54.4588 98.3905 53.6508 100.513 52.2266L100.802 52.0288C101.385 51.6189 101.99 51.2427 102.616 50.9003C102.545 51.1406 102.479 51.3094 102.423 51.4079C102.284 51.6507 101.642 51.2369 101.735 51.713C101.829 52.1891 101.64 52.8245 101.16 52.8489C100.679 52.8734 100.667 53.1935 100.462 53.9968C100.277 54.7198 99.5243 54.9015 99.3516 54.8452L99.3169 54.8181C99.2886 54.7179 98.9198 54.8573 98.7786 55.1298L98.7296 55.2765C98.6718 55.6426 97.9064 56.1117 97.2672 56.112C96.6281 56.1122 96.2594 56.8122 96.0256 57.0826C95.7917 57.3529 94.7422 56.9635 94.3609 57.4023C93.9995 57.8183 93.4115 59.5288 90.1137 61.145L89.5387 61.4131L70.1562 70.0158C67.5004 71.1833 65.6309 71.9316 64.7171 72.1671C63.8368 72.394 63.0114 71.8662 62.7266 71.5767L62.6462 71.4812C62.4863 71.24 62.2065 71.3398 61.756 71.4924C61.3054 71.6449 60.9466 70.8027 60.4031 70.9421C59.9199 71.0661 59.277 71.5838 58.6946 72.6981L58.4795 73.1447C58.2912 73.5672 58.0551 73.9911 57.7723 74.3975C57.9891 72.8491 58.2729 71.8569 58.6205 71.4177C59.2681 70.5996 61.3333 70.2703 62.4361 69.73L63.4623 69.183C65.247 68.2058 68.4144 66.4304 69.5938 66.1848C70.9625 65.8995 74.3591 64.6784 76.6189 63.4624L77.1187 63.1823C79.3435 61.8791 91.5656 53.951 92.1573 53.8287C92.749 53.7064 92.5773 57.2429 93.5574 56.7668C94.5379 56.2907 94.9712 52.6605 95.1042 51.6845C95.1189 51.5766 96.1121 49.1551 94.4863 50.5418C92.8702 51.9205 85.0359 56.7543 91.2998 50.4239C97.5638 44.0934 98.3959 43.0536 99.5266 41.7457L99.7586 41.472C101.076 39.8789 102.902 43.4268 101.546 45.7829Z" fill="#D4D4D4"/>
<path d="M100.874 52.921C100.661 53.0637 100.616 53.3945 100.463 53.9964C100.278 54.7194 99.5249 54.9011 99.3522 54.8448L99.3174 54.8178C99.2892 54.7175 98.9203 54.8569 98.7792 55.1294L98.7302 55.2761C98.6723 55.6422 97.907 56.1114 97.2678 56.1116C96.6286 56.1119 96.26 56.8119 96.0261 57.0822C95.7923 57.3525 94.7427 56.9631 94.3615 57.4019L94.2204 57.6C93.8242 58.219 93.0241 59.7184 90.1139 61.1442L89.5389 61.4123L70.1563 70.0151C67.5005 71.1825 65.6311 71.9308 64.7172 72.1663C63.837 72.3932 63.0115 71.8654 62.7267 71.5759L62.6463 71.4804C62.4864 71.2393 62.2067 71.339 61.7561 71.4916C61.538 71.5653 61.3416 71.4061 61.1347 71.2382L63.5337 69.9359C65.393 68.9419 66.7932 68.2333 67.7342 67.81C69.7733 66.8931 74.9787 65.1744 76.5085 64.4493C78.0384 63.7246 79.5148 63.8593 79.9148 63.7202C80.3148 63.581 80.6503 62.3229 81.775 62.4791C82.8293 62.6256 82.2962 63.8486 83.2287 62.7773L83.4358 62.5314C84.6539 61.0465 85.194 61.7547 85.4146 61.6528C85.6353 61.551 86.3654 61.1054 86.3519 60.5765C86.3383 60.0475 85.9753 59.9209 86.7898 60.2529C87.6043 60.5849 89.0026 60.6435 89.0657 60.0321C89.1287 59.4212 88.4916 58.4112 89.6824 58.6008C90.8731 58.7908 91.478 59.1652 91.9092 58.9704C92.3403 58.7756 92.0451 58.7626 91.8355 58.1418C91.6262 57.5211 92.0487 56.7147 92.6493 56.7493C92.8029 56.7581 92.9682 56.7263 93.1292 56.6676C93.2383 56.8058 93.3786 56.852 93.5568 56.7656C93.8629 56.6169 94.1152 56.1612 94.3222 55.5749C94.6951 55.4602 95.4075 55.5126 95.9285 55.5003C96.665 55.4837 96.6948 54.2088 97.6926 54.7174C98.6905 55.2259 98.9568 54.5699 99.0606 53.4303C99.1166 52.8235 99.7208 52.6536 100.874 52.921Z" fill="#B0B0B0"/>
<path d="M61.6424 70.5144C62.2563 70.8025 66.982 68.8182 67.9726 68.6454C68.9632 68.4725 69.3546 69.2056 69.611 68.8474C69.8671 68.4895 69.443 68.0742 70.5445 67.8799L71.8176 67.6504C72.3119 67.5551 72.6998 67.4656 72.9384 67.3704L73.2435 67.2249C74.1096 66.7901 76.3907 65.578 77.8923 65.1126L78.2503 65.0126C79.9455 64.5993 84.3714 62.3317 85.7886 62.1653C86.312 62.1037 86.5208 62.3641 86.4687 62.7782L70.1572 70.0151C67.5014 71.1825 65.6319 71.9308 64.718 72.1663C63.8378 72.3932 63.0124 71.8654 62.7276 71.576L62.6472 71.4805C62.4873 71.2393 62.2075 71.339 61.757 71.4916C61.3064 71.6442 60.9476 70.802 60.4041 70.9414C59.9209 71.0653 59.278 71.5831 58.6955 72.6974L58.4805 73.1439C58.4126 73.2966 58.3386 73.4494 58.2581 73.6015C58.4283 72.5285 58.8518 71.3495 59.1061 71.1488C59.4525 70.8739 61.0284 70.2262 61.6424 70.5144Z" fill="#828282"/>
<path d="M94.2856 57.5036L93.9204 58.0698C93.4194 58.8163 92.4418 60.0043 90.114 61.1446L89.539 61.4128L70.1564 70.0155C67.5006 71.183 65.6312 71.9313 64.7173 72.1668C64.2711 72.2816 63.8388 72.2026 63.484 72.0592C64.0224 71.8595 64.6682 71.538 65.0752 71.168C65.7882 70.5193 67.2316 69.6167 68.1361 69.496L69.2709 69.3679C69.8116 69.2937 70.2356 69.1774 70.1961 68.8948C70.1302 68.4237 70.2369 68.1675 71.2107 68.1311L72.0426 68.1024C72.5907 68.0756 73.1162 68.0141 73.5642 67.8067L73.8846 67.6219C74.5941 67.1186 74.8414 67.6002 75.5223 67.0443L75.938 66.6944C76.3716 66.3113 76.6009 66.0179 76.3751 65.8388C76.0849 65.6083 77.3071 65.8012 77.5186 65.6731C77.6999 65.5636 77.6523 65.3374 77.9054 65.3662L78.0596 65.4037C78.4889 65.5491 79.2044 65.2286 78.8897 65.0354C78.645 64.8852 78.8327 64.9087 79.384 64.8506L79.9438 64.7749C80.8429 64.6254 80.0605 65.0463 81.2646 64.4991L83.5926 63.4368C84.1018 63.1969 84.441 63.0159 84.5856 62.8715L85.7288 61.6864C86.2297 61.3039 86.5641 61.1558 86.7321 61.2409L87.2955 61.5535C87.5678 61.694 87.8161 61.7876 87.7724 61.6061L87.597 61.0708C87.552 60.8913 87.5577 60.7424 87.7249 60.7209L87.8826 60.7303C88.4564 60.8388 89.4089 60.3878 89.818 60.2218C90.227 60.0557 90.344 60.4038 90.6568 60.0198C90.9304 59.684 91.0142 59.1782 91.4635 59.0669L91.6802 59.0449C92.326 59.0593 93.4845 58.4416 93.6673 57.9833C93.7669 57.7325 93.9277 57.6019 94.2856 57.5036Z" fill="#404040"/>
<path d="M54.9167 71.9508C57.5394 70.8054 57.8789 71.6761 57.9937 72.134C58.036 72.3028 58.2483 73.2391 58.4972 73.0982L58.4791 73.1443C57.8448 74.5699 56.6619 76.0075 54.9989 76.7456L39.1806 83.8021C38.4665 84.119 37.8298 84.3649 37.2058 84.591L36.7748 84.0696C36.7432 84.035 36.7174 84.0084 36.6969 83.989L36.1251 83.5203C35.7991 83.2427 35.4277 82.8782 35.2087 82.4462C34.8734 81.7845 35.5413 81.2537 37.5663 80.1041L38.5184 79.5715C41.2836 78.0376 52.294 73.0962 54.9167 71.9508ZM51.087 67.4903C48.6713 69.1877 44.3605 71.6342 39.1048 74.4845L37.7339 75.2081C29.62 79.3858 15.9558 84.7819 13.2627 85.9908C10.5351 87.2152 11.3214 88.0181 13.5724 87.7919C15.8233 87.5662 17.7367 87.1187 20.4102 86.4216L21.5917 86.1001C24.717 85.2259 29.8207 83.8666 30.3755 83.8524C30.9249 83.8387 30.9781 84.066 31.3409 84.4999C31.2299 84.449 31.1236 84.4189 31.0302 84.4151C30.6479 84.399 26.6018 85.9299 20.3555 87.8386C14.1096 89.7473 10.2591 89.6819 8.579 89.4288C6.89894 89.1753 5.74777 87.9561 6.12532 87.6242C6.49228 87.3016 17.6419 83.0362 24.9588 79.9614L26.6059 79.2576C34.2827 75.9113 49.0052 68.6383 49.8697 68.2055L51.087 67.4903ZM63.9477 59.1313C64.1075 59.8341 64.1322 60.3742 64.0211 60.7516C63.721 61.772 62.2005 62.8085 61.646 63.2104C61.0911 63.6124 61.8545 62.1409 61.6074 61.4828C61.5555 61.3446 61.1744 61.387 60.6004 61.5523L62.0473 60.6192L63.0898 59.8161L63.9477 59.1313Z" fill="#EDEDED"/>
<path d="M11.2656 86.8989L12.2076 86.4797C12.3355 86.4248 12.4705 86.3677 12.612 86.3081C10.6856 87.3494 11.5209 87.9978 13.5722 87.7921C15.8231 87.5664 17.7365 87.1188 20.41 86.4217L25.8734 84.9356C28.0714 84.3538 30.0421 83.861 30.3752 83.8529C30.9207 83.8395 30.9773 84.0629 31.3323 84.4902C30.9265 84.3267 30.56 84.2065 30.3249 84.2161C29.5162 84.2492 14.6743 89.0126 11.9559 88.8561C9.23746 88.6996 9.66183 87.6587 11.2656 86.8989Z" fill="#E7E7E7"/>
<path d="M100.545 39.5777C100.641 39.9358 100.793 40.2134 100.961 40.2703C101.306 40.3867 102.475 41.0953 103.16 42.6629C103.279 42.9368 103.384 43.2043 103.476 43.4667C102.998 42.9331 102.622 43.1846 101.607 44.6322C100.463 46.2662 97.7414 48.9776 96.7967 49.8938C96.167 50.5045 95.9779 51.1407 95.8783 51.8278L95.6084 54.0395C95.4801 54.9855 95.2975 55.9656 94.9437 56.2418C94.4951 56.593 94.031 56.2498 93.7992 55.6582L93.7236 55.4256C93.5326 54.6979 92.9434 54.0731 92.5529 53.8871C92.309 53.7709 91.4035 54.3279 90.2092 55.1693L87.8272 56.9063C85.7252 58.4623 81.3728 61.218 79.2775 62.3613L78.093 62.9719C75.9158 64.067 72.0993 65.9361 71.5075 66.3963L70.6735 67.0149C69.8458 67.6146 68.832 68.3211 69.0646 68.0854L69.2914 67.8841C70.38 66.9681 69.9479 66.6811 70.9482 66.0103C71.9485 65.3391 77.0622 62.7604 79.7793 61.2319L80.5477 60.7817C83.5258 58.9835 89.307 55.0123 90.5218 54.0534L90.6633 53.9375C91.5356 53.1827 92.4824 52.8054 93.3108 53.2819C94.1388 53.758 94.4769 55.7485 94.6597 55.0107C94.8425 54.2729 95.0838 50.9363 95.3593 50.1765C95.6352 49.4168 101.676 44.1465 101.698 42.9992C101.721 41.8519 100.55 41.3531 100.324 40.9726C100.23 40.8139 100.255 40.5541 100.339 40.2342L100.545 39.5777Z" fill="#C8C8C8"/>
<path d="M97.9992 36.3914L97.9869 36.2866L98.5772 36.3403C98.8278 36.3715 99.0079 36.4094 99.0989 36.4539C99.98 36.8893 100.618 37.5762 100.477 38.3402C100.336 39.1041 100.615 40.154 100.96 40.2704C101.215 40.3565 101.92 40.7656 102.547 41.6056L102.428 42.0295L102.39 42.2188C102.306 42.8214 101.76 43.7177 101.153 44.6245C100.589 45.4664 97.7913 48.2635 96.6962 49.3023L96.4756 49.5091C95.6034 50.3125 95.4841 50.6592 95.314 51.9994C95.144 53.3396 95.1713 54.5401 94.7935 55.5003C94.4157 56.4605 94.0335 55.6327 94.0279 55.2463C94.0219 54.8599 93.4363 54.0388 92.8815 53.644C92.3639 53.2757 91.7885 53.5589 89.8976 54.9628L89.4716 55.2808C87.2376 56.9593 82.5866 59.9267 80.5654 61.1116L79.8365 61.5176C77.4728 62.7845 73.1831 64.7245 75.0125 63.687L78.7627 61.5691C80.7633 60.4223 82.9861 59.1007 84.5406 58.0014L85.7177 57.1636C87.8852 55.6096 90.0432 53.9927 91.1808 52.9144L91.9991 52.103C93.9183 50.2332 99.7283 44.5026 100.737 43.1581C101.864 41.6552 100.711 41.1405 100.247 41.71L98.9896 42.9993C97.4057 44.7922 93.5126 49.0782 90.3429 52.0722C86.4529 55.7463 79.9564 59.9939 79.4598 59.6016C78.9637 59.2094 88.2408 51.6904 90.1659 49.8078L90.6705 49.3004C93.0723 46.8363 98.9781 40.2573 99.2529 39.3476C99.5499 38.365 98.4994 37.2586 98.0975 36.6156C98.0532 36.5444 98.0208 36.4692 97.9992 36.3914Z" fill="#E7E7E7"/>
<path d="M71.592 52.0895L71.4115 52.5099L68.9433 55.22C67.3556 56.9415 66.2574 58.0777 65.6481 58.629C64.485 59.6815 63.2663 60.3521 62.3435 60.916L56.6854 64.5595C54.4371 65.9951 52.1063 67.4573 51.064 68.0271L49.5922 68.7911C47.3149 69.985 43.1339 72.2091 38.4905 74.3903L35.996 75.5416C29.4851 78.5076 18.0491 83.4889 12.8517 85.3747L11.6382 85.8078C9.19561 86.6643 7.92555 87.0043 7.10502 87.1716L11.63 85.3437C15.2742 83.8922 20.0867 81.9886 24.0317 80.3481L26.6051 79.2574C34.2819 75.9111 49.0044 68.6382 49.8689 68.2054L50.4708 67.8605C52.9388 66.3921 61.4772 61.0239 62.046 60.6198C62.6833 60.1672 65.5176 57.8818 66.3614 57.1044L71.592 52.0895ZM88.2545 36.7507C88.9181 36.2488 98.2185 36.0183 99.0996 36.4537C99.9807 36.8891 100.619 37.576 100.478 38.34C100.378 38.8796 100.488 39.5617 100.683 39.957C100.506 39.8812 100.392 39.7836 100.396 39.6437C100.414 39.1078 99.8776 38.4161 99.3904 38.0308C99.0332 37.748 97.8146 39.2272 97.1464 40.1007L96.7034 40.6994C96.5923 40.8626 96.2414 40.7387 94.7225 40.103C93.2036 39.4673 90.6025 39.0359 90.4145 38.9952C90.2264 38.954 89.318 39.8165 86.801 42.8975L86.2147 43.5814C83.2237 46.9458 75.7323 53.9493 74.4813 55.0445L74.3687 55.1415C73.5084 55.8576 73.2113 56.1125 72.8528 55.8129C72.5301 55.5436 72.3317 55.0243 72.5112 53.9019L72.5856 53.5048C72.7257 52.843 72.7729 52.0126 72.7274 51.0147L86.1881 38.6047C87.3279 37.5637 88.1076 36.862 88.2545 36.7507Z" fill="#ECECEC"/>
<path d="M55.1828 74.6996C55.667 74.7027 55.6887 75.4686 56.1032 75.2247C56.5177 74.9809 56.5079 74.386 57.0644 74.2538C57.3831 74.178 57.7315 74.1 57.9598 74.1632C57.8029 74.4758 57.5117 74.8058 57.048 75.1747C55.8709 76.1109 53.5297 77.3907 51.1102 78.502L38.2792 84.2028C38.113 84.2767 37.0538 84.1401 36.9498 84.0966C36.8954 84.0739 36.7263 83.7052 36.5839 83.2834L36.7066 83.359C36.9559 83.4898 37.4569 83.678 38.2095 83.9248C37.5996 83.2667 37.47 82.9694 37.8199 83.032C38.345 83.1262 39.041 83.6497 39.3032 83.3632C39.5654 83.0771 39.6519 82.2295 40.0245 82.219C40.3971 82.2084 41.4289 82.3669 41.7017 82.1618C41.9745 81.9567 42.4096 80.6259 42.8231 80.6488L43.457 80.6981C43.8752 80.7156 44.3566 80.6769 44.6684 80.3887C45.1675 79.9272 46.033 78.7268 46.3183 78.9072C46.6033 79.088 46.6222 79.3357 46.5921 79.5348C46.562 79.7339 47.3857 78.9522 47.5425 78.7161C47.6796 78.5092 47.5713 78.027 47.9728 77.9333L48.1782 77.919C48.7497 77.9505 49.5033 77.4648 49.6898 77.6436L49.7319 77.7442C49.7692 78.1533 50.7926 77.2112 51.0194 77.338C51.2462 77.4648 51.8059 77.5469 52.0379 77.1175C52.2699 76.6877 52.8471 75.909 53.2473 75.8315C53.6476 75.7541 54.0436 76.1295 54.1803 75.9565C54.3161 75.7831 54.6986 74.6965 55.1828 74.6996Z" fill="#727272"/>
<path d="M54.7733 76.0367C54.9514 76.0259 55.1554 76.0058 55.3725 75.9524L55.7065 75.8443L56.0683 75.669C56.3692 75.509 56.7899 75.2626 57.3305 74.9302L57.0468 75.1744C55.8697 76.1106 53.5285 77.3904 51.1089 78.5017L38.278 84.2025C38.1793 84.2462 37.7654 84.216 37.4237 84.175C37.741 84.1036 38.0311 83.9897 38.1018 83.8878L38.2082 83.9245L38.1028 83.8098C37.9839 83.6413 38.5115 83.5783 38.7133 83.5303L38.7822 83.5067C38.8082 83.4884 38.9023 83.4698 39.0183 83.4437C39.1332 83.4571 39.2281 83.4389 39.296 83.37C39.4429 83.3172 39.5695 83.2475 39.5956 83.1458C39.6599 82.8957 40.2519 82.9809 40.5911 82.8743C40.9304 82.7681 43.2049 81.7126 43.9065 81.4029C44.608 81.0931 44.7397 80.9452 45.3014 80.4635C45.8631 79.9823 45.8516 80.3694 46.0999 80.2583C46.3482 80.1472 46.9639 79.6617 47.1637 79.4411C47.3236 79.2648 47.7409 79.1616 48.0991 79.1246L48.3515 79.1093C48.7372 79.1043 49.071 79.0513 49.7791 78.6247C50.4876 78.1981 50.4492 77.9261 51.0791 77.7027C51.6192 77.5113 51.8581 77.5566 51.9954 77.5017L52.0564 77.4643C52.1832 77.3508 52.9374 77.0331 53.189 76.7657C53.3849 76.5572 53.9361 76.1571 54.0988 76.1366C54.2073 76.1236 54.4318 76.0901 54.7733 76.0367Z" fill="#1A0855"/>
<path d="M14.3493 87.2938C15.651 86.6256 31.7471 81.0651 31.5535 81.3811C31.3599 81.6976 27.32 83.3567 22.6148 85.0589C17.9095 86.7615 13.0472 87.9619 14.3493 87.2938Z" fill="#D4D5D5"/>
<path d="M14.3882 87.4711C16.655 86.7273 18.3007 86.1763 19.3252 85.818C24.5993 83.9723 28.5857 82.5014 31.2805 81.5541C30.8634 81.8088 30.2144 82.1134 29.3336 82.4677C28.0119 82.9992 25.8633 83.8841 22.6146 85.0594L21.641 85.4038C18.3939 86.5286 15.2797 87.3681 14.3882 87.4711Z" fill="#EDEDED"/>
<path d="M35.5046 80.7168C35.5089 80.5728 35.3132 79.5311 38.3307 77.9432C41.3482 76.3553 50.3257 72.2137 51.5183 71.8809C52.7106 71.5481 42.6369 76.2773 41.3209 76.9398C40.0053 77.6024 37.5363 78.7938 37.0428 79.1849C36.5492 79.5755 35.5008 80.8605 35.5046 80.7168Z" fill="#F1F1F1"/>
<path d="M56.52 70.1197C55.898 69.624 54.8958 69.2929 53.67 69.9513C52.8527 70.3901 52.2377 70.4835 51.8246 70.2314C51.9469 70.8381 52.3003 71.1354 52.8849 71.1235C53.7621 71.1056 54.2775 70.1579 55.1062 70.1376C55.9345 70.1169 57.142 70.6154 56.52 70.1197Z" fill="#D0D0D0"/>
<path d="M60.7862 69.0328C60.7301 68.2574 61.7767 67.5742 62.7404 66.5118C63.7045 65.4494 64.2828 64.551 64.1301 63.7778C63.9775 63.0046 64.7104 63.6251 64.6184 64.575C64.5264 65.5252 63.7987 66.1842 63.0397 66.9098C62.2812 67.6355 61.4855 68.086 60.7862 69.0328Z" fill="#D0D0D0"/>
<path d="M84.0943 57.4529C81.5478 59.3767 75.924 62.5888 76.5357 62.4557C77.1471 62.3225 83.06 59.3109 87.2943 56.1322C91.5286 52.9535 95.8379 48.0638 94.9339 48.4342C94.03 48.8045 90.4316 52.4335 88.5511 53.9396C86.6705 55.4456 86.6408 55.5296 84.0943 57.4529Z" fill="#CFD1D2"/>
<path d="M91.6148 29.7984C92.1911 30.4295 92.85 31.9407 94.3887 33.0615C95.9273 34.1823 96.6746 34.3663 97.6011 35.0144C98.5276 35.6628 99.2165 36.2145 99.2066 36.6925C99.2001 36.9957 98.2714 38.1787 97.5443 39.0702C94.4935 37.4231 92.3567 36.3753 91.1341 35.9263C88.9244 35.1151 86.3743 35.029 85.9695 34.8623C85.6077 34.7132 85.4533 34.4507 85.506 34.0558C85.7411 34.0886 86.0335 33.9458 86.3894 33.6088C87.4015 32.6497 88.8687 30.8241 89.6492 30.3189L90.3092 29.8642C90.7926 29.5408 91.2115 29.3564 91.6148 29.7984Z" fill="#7756D3"/>
<path d="M52.1449 70.369C51.6373 70.0685 52.3138 69.3392 54.1739 68.1806C56.9641 66.4429 62.5883 63.6897 63.1007 63.4842C63.613 63.2791 64.0581 63.5483 64.0999 63.465C64.1417 63.3816 63.7671 62.8022 63.054 63.0255C62.341 63.2488 56.5971 66.1441 53.8841 67.8219C52.0753 68.9405 51.3887 69.7433 51.8251 70.2306L52.1449 70.369Z" fill="#E6E6E6"/>
<path fill-rule="evenodd" clip-rule="evenodd" d="M98.3629 80.3485C98.4084 80.0784 98.4427 79.8113 98.4649 79.5441C98.4982 79.1434 98.4776 78.7396 98.4894 78.3389C98.4946 78.1689 98.5149 77.7257 98.5067 77.6619C98.4324 77.1064 97.984 77.0214 97.8529 77.0062C97.7894 76.9971 97.138 76.9243 96.9974 77.6468C96.825 78.5302 96.7697 79.4196 96.8307 80.2909C96.6884 81.0316 96.4449 81.7693 96.1234 82.4371C94.8442 85.0934 92.4065 85.3514 89.7654 85.3271C89.3592 85.3211 89.022 85.6398 89.0007 86.0436C88.9795 86.4503 89.2818 86.8025 89.6862 86.8389C91.1624 86.9816 93.7817 88.1655 94.6872 89.398C94.8767 89.6561 94.9868 90.2784 95.1326 90.8886C95.3359 91.7355 95.5779 92.5734 95.849 92.9255C95.8897 92.9802 96.3842 93.5388 96.5317 93.6207C96.8863 93.815 97.1701 93.7027 97.3313 93.5994C97.4925 93.4962 97.675 93.2928 97.7478 92.9559C97.824 92.6037 97.7597 91.8812 97.7715 91.7264C97.8146 91.1648 97.9269 90.0628 98.1561 89.1157C98.2797 88.6057 98.4114 88.1352 98.6294 87.9014C99.4363 87.0362 100.726 87.1637 101.813 87.3064C101.938 87.3216 102.062 87.3398 102.187 87.355C102.629 87.4855 103.099 87.5827 103.595 87.6403C104.345 87.7284 104.468 87.0393 104.475 86.9937C104.489 86.8936 104.541 86.3775 103.976 86.1711C103.914 86.1498 103.459 86.0496 103.284 86.0102C103.04 85.9555 102.793 85.913 102.545 85.8736C99.9867 85.0782 98.5969 82.8439 98.3629 80.3485ZM97.4846 83.108C96.5187 85.1055 95.0527 86.0709 93.3151 86.508L93.3154 86.508C94.4003 87.0757 95.3873 87.7861 95.9103 88.4995C96.1088 88.7696 96.291 89.313 96.4552 89.9232C96.5442 89.3555 96.6644 88.7514 96.8231 88.2353C97.0038 87.6464 97.2469 87.1577 97.5183 86.8663C98.0423 86.3046 98.6998 85.992 99.4068 85.8371C98.5605 85.0873 97.9187 84.1523 97.4846 83.108Z" fill="black" fill-opacity="0.16"/>
</g>
<defs>
<clipPath id="clip0_1_1113">
<rect width="101.606" height="90.9535" fill="white" transform="translate(4.49316 -1.52588e-05) rotate(2.83176)"/>
</clipPath>
</defs>
</svg>
