<svg width="24" height="24" viewBox="0 0 24 24" fill="none" xmlns="http://www.w3.org/2000/svg">
<path d="M8.88757 18.5216L8.88756 18.5216L8.89055 18.5241C9.53341 19.0719 10.26 19.6912 11.0134 20.35C11.2865 20.5892 11.6369 20.7208 12 20.7208C12.3629 20.7208 12.7134 20.5892 12.9864 20.3504C13.7415 19.69 14.4693 19.0697 15.1133 18.521L15.1134 18.521L15.1369 18.501C17.0024 16.9111 18.6511 15.506 19.8055 14.113C21.1152 12.5328 21.7526 10.9975 21.7526 9.30065C21.7526 7.67292 21.1942 6.1553 20.163 5.03667L20.1629 5.03665C19.118 3.90328 17.6821 3.2792 16.1273 3.2792C14.9572 3.2792 13.8827 3.65108 12.9437 4.37731C12.6037 4.64018 12.2886 4.94411 12.0001 5.28543C11.7115 4.94408 11.3964 4.64017 11.0566 4.37733L11.0565 4.37731C10.1175 3.65108 9.04301 3.2792 7.87289 3.2792C6.31794 3.2792 4.88223 3.90329 3.83726 5.03665L3.83725 5.03667C2.80599 6.15528 2.24745 7.67289 2.24745 9.30065C2.24745 10.9975 2.88504 12.5328 4.19468 14.1132L4.19469 14.1132C5.34937 15.5064 6.99885 16.912 8.86524 18.5025L8.88575 18.52L8.88757 18.5216ZM5.65421 12.9036L5.6542 12.9035C4.58653 11.6153 4.14303 10.5126 4.14303 9.30065C4.14303 8.12816 4.53692 7.07434 5.23088 6.32158C5.91242 5.58248 6.84783 5.17492 7.87289 5.17492C8.61325 5.17492 9.29101 5.40837 9.89685 5.87683C10.4434 6.2995 10.8313 6.84094 11.0624 7.22836L11.0625 7.22846C11.2607 7.56057 11.6131 7.76095 12 7.76095C12.3869 7.76095 12.7394 7.56057 12.9376 7.22846L12.5941 7.02344L12.9376 7.22845C13.1689 6.84095 13.5568 6.2995 14.1032 5.87683C14.709 5.40837 15.3868 5.17492 16.1273 5.17492C17.1523 5.17492 18.0878 5.5825 18.7692 6.32158C19.4631 7.07434 19.857 8.12816 19.857 9.30065C19.857 10.5126 19.4135 11.6153 18.346 12.9036C17.3015 14.1639 15.7389 15.4972 13.8838 17.0782C13.3117 17.5656 12.6709 18.1117 11.9989 18.6943C11.3304 18.1129 10.6908 17.5677 10.1201 17.0814L10.1202 17.0814L10.1168 17.0785L10.115 17.0771C8.26056 15.4967 6.69839 14.1636 5.65421 12.9036Z" fill="#3B3B3B" stroke="#3B3B3B" stroke-width="0.8"/>
</svg>
