<svg width="17" height="15" viewBox="0 0 17 15" fill="none" xmlns="http://www.w3.org/2000/svg">
<path d="M7.47768 2.57436L8.20074 3.33123L8.92381 2.57436C9.62975 1.83542 10.711 1.00146 11.833 1.00146C12.9405 1.00146 13.8209 1.38347 14.4219 1.98347C15.0228 2.58335 15.4048 3.46125 15.4048 4.56509C15.4048 5.75428 14.9442 6.75884 14.1745 7.71827C13.3855 8.70163 12.3237 9.57657 11.1769 10.5162L11.1524 10.5362C10.1716 11.3395 9.08383 12.2304 8.20124 13.2261C7.32733 12.239 6.2499 11.3553 5.27781 10.558L5.2273 10.5166L5.2269 10.5162C4.0798 9.5763 3.01812 8.70116 2.22944 7.71783C1.45995 6.75843 0.999634 5.75402 0.999634 4.56509C0.999634 3.46125 1.38164 2.58338 1.98262 1.98351C2.58372 1.38352 3.46424 1.00146 4.57221 1.00146C5.69289 1.00146 6.77096 1.8346 7.47768 2.57436Z" stroke="#3B3B3B" stroke-width="2"/>
</svg>
