<svg width="319" height="214" viewBox="0 0 319 214" fill="none" xmlns="http://www.w3.org/2000/svg">
<path opacity="0.05" fill-rule="evenodd" clip-rule="evenodd" d="M231.468 23.9055C246.942 24.5364 259.243 30.7632 271.543 37.7551C311.884 60.7158 325.376 96.3407 297.733 131.348C254.747 185.637 154.623 221.167 76.9836 204.77C59.7893 201.156 36.5108 197.971 19.4488 180.323C3.57709 163.914 4.23841 144.407 11.5129 126.347C18.9197 107.83 33.2042 90.7879 44.5789 79.8331C94.3102 32.0377 193.905 -11.4019 283.977 11.4991C285.828 11.9404 287.68 11.1815 288.209 9.80432C288.738 8.42711 287.812 6.95035 286.092 6.50909C193.375 -17.0595 90.6062 27.3128 39.4201 76.5012C25.2679 90.1611 6.75195 112.964 1.46139 136.556C-2.10974 152.681 0.402761 169.165 14.1582 183.504C32.2784 202.303 57.012 205.985 75.2644 209.833C155.416 226.769 258.978 190.2 303.287 134.131C333.046 96.5042 318.762 58.1773 275.379 33.4977C262.153 25.9115 248.662 19.3557 231.864 18.6723C230.012 18.5979 228.426 19.7099 228.426 21.1542C228.294 22.5985 229.748 23.831 231.468 23.9055Z" fill="#3B3B3B"/>
</svg>
