<svg width="17" height="17" viewBox="0 0 17 17" fill="none" xmlns="http://www.w3.org/2000/svg">
<path fill-rule="evenodd" clip-rule="evenodd" d="M10.2663 3.35007C10.3119 3.0799 10.3462 2.81278 10.3683 2.54564C10.4017 2.14492 10.3811 1.74115 10.3929 1.34043C10.3981 1.17043 10.4184 0.727224 10.4102 0.663474C10.3358 0.107938 9.88748 0.0229276 9.75633 0.00774904C9.69289 -0.00135811 9.04142 -0.0741827 8.90087 0.648317C8.72844 1.53171 8.67319 2.42116 8.73421 3.29241C8.59183 4.03313 8.34836 4.77079 8.02688 5.43865C6.74763 8.0949 4.30996 8.35294 1.66889 8.32865C1.26271 8.32258 0.925429 8.64133 0.904179 9.04508C0.882929 9.45186 1.18528 9.804 1.58964 9.84043C3.06591 9.98311 5.68514 11.1671 6.5907 12.3996C6.78012 12.6576 6.89032 13.2799 7.03603 13.8901C7.23942 14.7371 7.48136 15.5749 7.75245 15.9271C7.79313 15.9817 8.28766 16.5403 8.43519 16.6222C8.78976 16.8165 9.0736 16.7042 9.23479 16.601C9.39599 16.4978 9.57844 16.2944 9.65129 15.9574C9.72749 15.6053 9.66313 14.8827 9.67497 14.7279C9.71808 14.1663 9.83039 13.0644 10.0596 12.1172C10.1831 11.6072 10.3149 11.1367 10.5329 10.9029C11.3398 10.0378 12.6299 10.1653 13.7164 10.3079C13.8412 10.3231 13.966 10.3413 14.0904 10.3565C14.5327 10.4871 15.0024 10.5842 15.4987 10.6419C16.2482 10.7299 16.3715 10.0408 16.3781 9.99526C16.3921 9.89508 16.444 9.37902 15.8791 9.17259C15.8174 9.15134 15.3627 9.05115 15.1875 9.01169C14.9435 8.95705 14.6967 8.91456 14.4489 8.8751C11.8901 8.07974 10.5004 5.84543 10.2663 3.35007ZM9.3881 6.10956C8.42213 8.10707 6.95619 9.07241 5.21855 9.50955H5.21884C6.30381 10.0772 7.29073 10.7876 7.81378 11.501C8.01232 11.7712 8.19446 12.3146 8.35869 12.9247C8.44763 12.3571 8.56784 11.7529 8.72661 11.2369C8.90723 10.6479 9.15041 10.1592 9.4218 9.86778C9.94576 9.30617 10.6033 8.99349 11.3103 8.83867C10.464 8.08885 9.8222 7.15385 9.3881 6.10956Z" fill="black" fill-opacity="0.7"/>
</svg>
