<svg width="73" height="44" viewBox="0 0 73 44" fill="none" xmlns="http://www.w3.org/2000/svg">
<g opacity="0.1">
<path fill-rule="evenodd" clip-rule="evenodd" d="M20.3659 41.8591C13.8482 42.0183 7.18767 41.6998 0.95575 43.958C0.584291 44.0912 0.175703 43.8972 0.0414066 43.5209C-0.0900326 43.1445 0.101414 42.7305 0.472872 42.5944C6.85052 40.2841 13.6625 40.5736 20.3316 40.4115C20.7259 40.3999 21.0545 40.7184 21.0631 41.1179C21.0745 41.5174 20.7602 41.8475 20.3659 41.8591Z" fill="black"/>
<path fill-rule="evenodd" clip-rule="evenodd" d="M20.9517 32.2711C18.9201 30.3771 16.7028 28.9582 14.0226 28.255C13.6397 28.1548 13.4111 27.7596 13.5083 27.3728C13.6083 26.986 13.9997 26.7535 14.3798 26.8537C17.2943 27.618 19.7088 29.1472 21.9175 31.2054C22.209 31.4758 22.229 31.9341 21.9604 32.2283C21.6946 32.5221 21.2403 32.5415 20.9517 32.2711Z" fill="black"/>
<path fill-rule="evenodd" clip-rule="evenodd" d="M26.6035 11.593C25.672 8.35762 23.8375 5.82667 21.0259 3.99895C20.6944 3.78326 20.5973 3.3351 20.8116 2.99897C21.023 2.66284 21.4659 2.56498 21.7974 2.78067C24.9091 4.80439 26.9435 7.60516 27.975 11.1874C28.0864 11.5707 27.8664 11.9731 27.4892 12.0849C27.1092 12.1969 26.712 11.9763 26.6035 11.593Z" fill="black"/>
<path fill-rule="evenodd" clip-rule="evenodd" d="M58.706 7.20218C59.2604 7.86314 59.7575 8.57535 60.1804 9.3336C60.369 9.67117 60.7005 10.3886 60.7519 11.0038C60.8091 11.6593 60.5891 12.2123 60.0233 12.5035C59.2718 12.8897 58.6717 12.8495 58.2088 12.6159C57.7631 12.3915 57.4145 11.9505 57.1945 11.3593C56.7745 10.2294 56.8373 8.5024 57.0574 7.51689C56.4659 6.89848 55.8172 6.33768 55.1229 5.83913C49.9511 2.12608 42.3647 3.49521 36.5271 9.04698C34.4841 10.9908 33.5012 15.073 32.9897 19.4774C32.1925 26.3352 32.6468 33.9946 32.7097 36.2387C32.724 36.7928 32.6725 37.1217 32.644 37.1874C32.5097 37.5105 32.2725 37.5945 32.1068 37.6263C31.8668 37.6697 31.6753 37.6234 31.521 37.5423C31.3125 37.4312 31.141 37.2355 31.061 36.9335C31.0181 36.7667 31.0067 36.5345 31.0124 36.287C31.0181 36.1153 31.0524 35.9277 31.0181 35.8047C30.7953 35.0166 30.5267 34.2471 30.2638 33.472C29.3866 30.8667 28.2522 28.4252 26.9921 25.9866C22.9889 18.238 19.1172 10.0507 12.5538 4.1472C12.2595 3.88229 12.2309 3.42428 12.4938 3.1255C12.7538 2.82672 13.2053 2.79949 13.5025 3.06469C20.1973 9.0849 24.1747 17.4131 28.2579 25.3152C29.3294 27.3896 30.3124 29.4669 31.1296 31.6397C31.0467 27.7961 31.0782 22.4756 31.7725 17.7681C32.3897 13.5814 33.5641 9.88136 35.5499 7.99168C41.9447 1.90981 50.2854 0.590493 55.9487 4.6582C56.5545 5.09363 57.1316 5.5725 57.6688 6.09189C60.6319 0.670696 66.9753 -1.50214 72.5814 1.09077C72.9415 1.25666 73.0986 1.68631 72.9357 2.04965C72.77 2.413 72.3471 2.57339 71.9871 2.4075C66.9353 0.0711041 61.2062 2.15619 58.706 7.20218ZM58.2917 9.01715C58.5232 9.34836 58.7375 9.69173 58.9375 10.0467C59.0432 10.2372 59.2261 10.6034 59.3032 10.9618C59.3204 11.0458 59.3232 11.1772 59.3232 11.238C59.1261 11.3365 58.9718 11.384 58.8461 11.32C58.6889 11.2412 58.6089 11.0559 58.5317 10.8489C58.3374 10.3295 58.2746 9.64106 58.2917 9.01715Z" fill="black"/>
</g>
</svg>
