<svg width="24" height="23" viewBox="0 0 24 23" fill="none" xmlns="http://www.w3.org/2000/svg">
<path d="M13.55 1.425V1.35C13.55 1 13.663 0.687 13.888 0.412C14.113 0.137 14.4 0 14.75 0C15.1 0 15.413 0.112 15.688 0.337C15.963 0.562 16.113 0.862 16.138 1.237C16.163 1.612 16.05 1.925 15.8 2.175C15.55 2.425 15.25 2.55 14.9 2.55L14.675 2.625L14.75 2.737L14.675 3.15L14.525 4.35C14.575 4.4 14.6 4.45 14.6 4.5L14.45 5.25C14.4 5.35 14.35 5.425 14.3 5.475L14.225 5.775C14.0941 6.30527 13.944 6.83061 13.775 7.35V7.5C13.725 7.75 13.688 7.95 13.663 8.1C13.638 8.25 13.55 8.5 13.4 8.85C13.3 9.05 13.3 9.375 13.4 9.825L13.475 9.9C13.475 10.05 13.538 10.225 13.663 10.425C13.788 10.625 13.85 10.8 13.85 10.95C13.9 11.95 13.825 12.8 13.625 13.5L13.775 13.95C14.375 14.25 14.55 14.575 14.3 14.925L14.675 15.075C15.275 15.375 15.7 15.637 15.95 15.862C16.2 16.087 16.45 16.325 16.7 16.575C16.9 16.625 17.05 16.7 17.15 16.8L17.375 16.875C18.425 17.575 19.475 18.425 20.525 19.425L20.825 19.65V19.725L20.75 19.875L20.975 20.025H21.05C21.2 20.125 21.3 20.175 21.35 20.175H21.425C21.475 20.175 21.525 20.15 21.575 20.1L21.725 20.025C21.825 19.925 21.925 19.85 22.025 19.8H22.325C22.375 19.8 22.375 19.825 22.325 19.875L22.025 20.025L21.65 20.475H22.175L22.7 20.55C22.85 20.5 22.975 20.45 23.075 20.4L23.45 20.175C23.6 20.125 23.75 20.175 23.9 20.325H23.975C24.025 20.375 24 20.45 23.9 20.55L23 21.375C22.75 21.575 22.525 21.7 22.325 21.75L21.35 22.425C21.3 22.475 21.25 22.475 21.2 22.425L20.975 22.125L20.825 21.825L20.637 21.562L20.412 21.262L20.225 21.037L20.075 20.85L19.775 20.625C19.675 20.625 19.575 20.6 19.475 20.55L18.5 19.8C18.35 19.8 18.175 19.725 17.975 19.575C17.225 18.925 16.725 18.525 16.475 18.375L16.025 18.075L15.125 17.925C14.825 17.875 14.425 17.725 13.925 17.475L13.325 17.175C12.925 16.975 12.65 16.875 12.5 16.875L12.2 16.725C12 16.675 11.85 16.625 11.75 16.575L11.6 16.425C11.5 16.425 11.4 16.45 11.3 16.5L9.8 17.25L7.925 18.075C7.425 18.475 6.95 18.8 6.5 19.05L5.675 19.425L4.4 20.325C4.3 20.425 4.2 20.425 4.1 20.325L3.95 20.475C3.8 20.525 3.7 20.55 3.65 20.55L3.35 20.7V20.85H3.2L3.05 21.075C2.95 21.275 2.85 21.387 2.75 21.412C2.65 21.437 2.588 21.475 2.563 21.525C2.54399 21.566 2.51868 21.6038 2.488 21.637L2.338 21.787L2.113 21.937L1.775 21.9L1.325 21.975L1.025 22.05C0.775 22.1 0.575 22.062 0.425 21.937C0.275 21.812 0.15 21.625 0.05 21.375C-0.05 21.225 0 21.1 0.2 21L0.275 20.925C0.325 20.875 0.4 20.85 0.5 20.85H0.95L1.55 20.625L1.85 20.55C1.85 20.45 1.875 20.375 1.925 20.325C1.975 20.275 2.05 20.25 2.15 20.25V20.175C2.10181 20.0823 2.07612 19.9795 2.075 19.875C2.025 19.775 2.012 19.7 2.038 19.65C2.063 19.6 2.088 19.575 2.113 19.575H2.15L2.225 19.8C2.275 20.05 2.35 20.125 2.45 20.025L2.525 19.875C2.575 19.775 2.65 19.725 2.75 19.725L2.9 19.875L3.05 19.725L2.975 19.65C2.975 19.6 3 19.575 3.05 19.575L3.35 19.275C3.6 18.975 3.9 18.7 4.25 18.45C4.95 17.9 5.7 17.475 6.5 17.175C6.75 16.925 7.025 16.8 7.325 16.8C7.525 16.45 7.825 16.075 8.225 15.675C8.575 15.425 8.825 15.25 8.975 15.15C9.075 14.95 9.2 14.85 9.35 14.85H9.425L9.575 14.7C9.675 14.65 9.75 14.6 9.8 14.55V14.175C9.8 13.925 9.825 13.725 9.875 13.575C9.925 13.425 10.05 13.35 10.25 13.35L10.55 13.05C10.45 12.85 10.4 12.625 10.4 12.375H10.325C10.225 12.225 10.175 12.075 10.175 11.925C10.025 11.675 9.925 11.475 9.875 11.325H9.65C9.6 11.475 9.475 11.575 9.275 11.625L9.2 11.775C9 12.125 8.825 12.387 8.675 12.562C8.525 12.737 8.25 12.95 7.85 13.2C7.6 13.45 7.425 13.725 7.325 14.025C7.275 14.175 7.275 14.325 7.325 14.475L7.25 14.625H7.325C7.325 14.725 7.35 14.775 7.4 14.775H7.475C7.575 14.825 7.625 14.887 7.625 14.962C7.625 15.037 7.55 15.062 7.4 15.037C7.27481 15.0232 7.15702 14.9708 7.063 14.887C6.988 14.812 6.925 14.775 6.875 14.775L6.65 15C6.55 15.15 6.45 15.212 6.35 15.187C6.25 15.162 6.225 15.125 6.275 15.075L6.35 15C6.4 14.9 6.4 14.85 6.35 14.85L5.75 15C5.7 15.05 5.638 15.05 5.563 15C5.488 14.95 5.5 14.9 5.6 14.85L5.975 14.7C5.975 14.65 5.95 14.625 5.9 14.625C5.7 14.725 5.5 14.75 5.3 14.7L4.925 14.625L4.85 14.55C4.85 14.5 4.875 14.475 4.925 14.475C5.125 14.525 5.375 14.5 5.675 14.4L6.2 14.175L6.8 13.5L6.875 13.35C7.075 12.95 7.288 12.587 7.513 12.262C7.71106 11.9666 7.95089 11.7016 8.225 11.475L8.3 11.175C8.4 10.975 8.5 10.8 8.6 10.65C8.7 10.5 8.825 10.3 8.975 10.05L9.2 9.75C9.4 9.45 9.625 9.3 9.875 9.3L10.1 9.075C10.15 9.025 10.175 8.95 10.175 8.85L10.325 8.7L10.25 8.625C9.95 8.375 9.8 8.15 9.8 7.95C9.75 7.6 9.863 7.3 10.138 7.05C10.413 6.8 10.688 6.687 10.963 6.712C11.238 6.737 11.45 6.825 11.6 6.975L11.75 7.125C11.8 7.125 11.825 7.15 11.825 7.2L12.125 7.35V7.575C12.225 7.675 12.275 7.75 12.275 7.8C12.375 7.65 12.525 7.475 12.725 7.275L13.1 6.075C13.1 5.875 13.15 5.675 13.25 5.475L13.4 5.25V5.1L13.625 4.2H13.775L14 3.3C14.0503 3.12861 14.0503 2.94639 14 2.775L13.7 2.025L13.55 1.425Z" fill="#222222"/>
</svg>
