<svg width="28" height="28" viewBox="0 0 28 28" fill="none" xmlns="http://www.w3.org/2000/svg">
<g clip-path="url(#clip0_1_1225)">
<path fill-rule="evenodd" clip-rule="evenodd" d="M6.56957 14.7247C6.47602 14.623 6.38174 14.5213 6.28671 14.4203C5.3178 13.3924 4.35687 12.3637 3.46188 11.2686C3.24501 11.0034 2.83865 10.4896 2.41836 10.2145C2.11776 10.0177 1.80097 9.9257 1.50586 9.94833C1.31784 9.96265 1.04006 10.0429 0.884841 10.3941C0.858703 10.4531 0.826047 10.5552 0.808528 10.6867C0.780379 10.8993 0.77788 11.2832 0.780599 11.3365C0.817123 12.1128 0.855365 12.8553 0.955424 13.6265C1.0474 14.3363 1.0987 15.0494 1.20046 15.7585C1.35271 16.8195 1.5661 17.8442 1.90121 18.8642C2.02553 19.243 2.43413 19.4492 2.81286 19.3249C3.19124 19.2005 3.39781 18.7923 3.27348 18.4136C2.96502 17.4741 2.77029 16.5306 2.63043 15.5534C2.52942 14.8508 2.47888 14.1439 2.38766 13.4407C2.32844 12.9832 2.29254 12.5363 2.26551 12.0858L2.3434 12.1827C3.2602 13.3042 4.24334 14.3582 5.23559 15.4109C5.60681 15.805 5.96414 16.2093 6.3418 16.5977C6.37152 16.6462 6.50882 16.8686 6.57793 16.9459C6.69289 17.0747 6.82033 17.1498 6.93257 17.1895C7.21778 17.2908 7.51334 17.2736 7.7866 16.9621C7.99116 16.7287 8.12099 16.3575 8.13554 15.907C8.15576 15.2879 7.96239 14.4606 7.93169 14.0823C7.73718 11.6885 7.34744 9.29426 7.33357 6.88907C7.33138 6.4905 7.00602 6.16881 6.60745 6.17099C6.20887 6.17354 5.88681 6.49888 5.88936 6.89746C5.9032 9.33881 6.29437 11.7693 6.49174 14.1994C6.50253 14.3286 6.53437 14.5135 6.56957 14.7247Z" fill="#3B3B3B"/>
<path fill-rule="evenodd" clip-rule="evenodd" d="M13.3726 5.18832C12.5436 5.36355 11.7146 5.51093 11.029 6.03947C10.3118 6.59279 9.91894 7.42943 9.74619 8.37522C9.52585 9.58182 9.66868 10.9707 9.75083 11.9594C9.79354 12.4714 9.78679 13.1815 9.90314 13.817C10.0034 14.3633 10.1963 14.858 10.5106 15.2135C11.0043 15.7718 11.8008 15.8661 12.6374 15.5759C13.6039 15.2407 14.5919 14.4039 14.8745 13.9012C15.07 13.5538 14.9467 13.113 14.599 12.9178C14.2517 12.7223 13.8112 12.8456 13.6157 13.1929C13.4364 13.5118 12.7771 13.9986 12.1639 14.2116C12.027 14.2589 11.8922 14.2925 11.7662 14.2962C11.7007 14.2983 11.6349 14.3044 11.5929 14.2571C11.3867 14.0235 11.3286 13.6579 11.284 13.2894C11.2215 12.7756 11.224 12.2424 11.1906 11.8394C11.1168 10.9552 10.9702 9.71371 11.167 8.63464C11.2727 8.05606 11.4723 7.52202 11.9114 7.18346C12.4209 6.79062 13.0545 6.73201 13.6711 6.60169C14.061 6.51952 14.3108 6.13591 14.2283 5.74592C14.1461 5.35594 13.7625 5.10615 13.3726 5.18832Z" fill="#3B3B3B"/>
<path fill-rule="evenodd" clip-rule="evenodd" d="M13.124 8.98621C12.4728 9.29919 11.7775 9.61967 11.086 9.82899C10.7045 9.94449 10.4884 10.3479 10.6035 10.7294C10.7191 11.111 11.1224 11.327 11.504 11.2115C12.2656 10.9812 13.0328 10.6329 13.7496 10.2885C14.1087 10.1159 14.2604 9.68387 14.0878 9.32474C13.9151 8.96525 13.4835 8.81391 13.124 8.98621Z" fill="#3B3B3B"/>
<path fill-rule="evenodd" clip-rule="evenodd" d="M21.816 9.81133C21.3218 9.1477 20.7972 8.49265 20.2384 7.89011C20.1928 7.84115 19.6247 7.32274 19.2816 7.12236C19.0501 6.98732 18.8407 6.95427 18.7167 6.95991C18.3561 6.97632 18.1273 7.1596 18.0206 7.48756C17.9186 7.80201 17.8708 8.13259 17.8536 8.4716C17.3709 7.44445 16.9352 6.39112 16.6937 5.29305C16.6737 5.20237 16.656 5.15952 16.6531 5.15178C16.5644 4.926 16.4265 4.84377 16.3775 4.81164C16.1368 4.65334 15.912 4.66653 15.719 4.74171C15.6954 4.75064 15.1755 4.95059 15.2677 5.53343C15.2751 5.58045 15.3412 5.91609 15.3588 6.04679C15.3744 6.16039 15.4154 6.26407 15.4756 6.35318C15.9001 7.80585 16.5919 9.1929 17.2547 10.5467C17.3978 10.8392 17.5059 11.1386 17.5711 11.4576C17.5902 11.5508 17.5894 11.7594 17.6051 11.8625C17.6321 12.0371 17.6969 12.1564 17.739 12.2178C17.9578 12.5377 18.245 12.5838 18.5156 12.5183C18.6312 12.4906 18.8634 12.4253 19.0191 12.1017C19.3691 11.3746 19.3754 10.5523 19.3268 9.72113C19.3126 9.47525 19.2918 9.22905 19.2839 8.98639C19.8931 9.65658 20.4579 10.3903 20.9866 11.1219C21.0447 11.2022 21.6373 11.9366 21.799 12.0497C22.2033 12.3334 22.5375 12.1526 22.6823 12.0421C22.9031 11.8732 23.0854 11.5734 23.1731 11.1841C23.2862 10.6803 23.2528 9.97753 23.2603 9.69588C23.3106 7.80016 23.3425 5.81747 23.0111 3.94721C22.9417 3.55463 22.5667 3.2926 22.1741 3.36198C21.7816 3.43137 21.5195 3.80677 21.5889 4.19899C21.9034 5.9751 21.8638 7.85799 21.8162 9.65767C21.8152 9.6992 21.8155 9.75128 21.816 9.81133Z" fill="#3B3B3B"/>
<path fill-rule="evenodd" clip-rule="evenodd" d="M25.0222 3.56841C25.2195 4.84575 25.4178 6.11156 25.5228 7.42001C25.5546 7.81755 25.9029 8.11438 26.3005 8.08249C26.6977 8.05058 26.9945 7.70226 26.9626 7.30471C26.8148 5.45932 26.4862 3.69768 26.2289 1.87168C26.1298 1.16592 25.4606 1.22994 25.4194 1.23509C25.3288 1.2464 24.8341 1.32578 24.7888 1.89803C24.786 1.93295 24.7968 2.18153 24.7959 2.27766C24.7935 2.49774 24.7782 2.71211 24.7559 2.93154C24.73 3.18441 24.8378 3.42021 25.0222 3.56841Z" fill="#3B3B3B"/>
<path fill-rule="evenodd" clip-rule="evenodd" d="M26.511 11.1174C26.5955 10.8982 26.5713 10.6417 26.424 10.4365C26.1913 10.1126 25.7399 10.0387 25.416 10.2714C25.1169 10.4862 25.049 10.763 25.0702 11.1068C25.0949 11.5047 25.4382 11.8078 25.8361 11.7828C26.1999 11.7604 26.4843 11.4711 26.511 11.1174Z" fill="#3B3B3B"/>
<path fill-rule="evenodd" clip-rule="evenodd" d="M12.1883 24.34C12.1226 24.1805 12.0697 24.0545 12.057 24.0274C11.4505 22.7402 10.7862 21.4666 10.0545 20.246C9.8495 19.9041 9.40572 19.7929 9.06374 19.998C8.72177 20.203 8.61066 20.6468 8.81567 20.9887C9.52272 22.1679 10.1642 23.3991 10.7504 24.6431C10.7952 24.7379 11.0828 25.5751 11.3006 25.9293C11.498 26.2499 11.76 26.3742 11.9121 26.4047C12.1537 26.4531 12.539 26.3851 12.869 25.9883C13.2999 25.4703 13.8962 24.0582 13.9945 23.8239C14.1748 23.3926 14.332 22.9385 14.4788 22.4965C14.7571 21.658 14.9363 20.7994 15.1013 19.9334C15.1762 19.5417 14.9188 19.1634 14.527 19.0886C14.1356 19.0141 13.757 19.2715 13.6825 19.6629C13.5293 20.4662 13.3663 21.2635 13.108 22.0411C12.9723 22.449 12.8281 22.8687 12.6618 23.2667C12.6117 23.386 12.4152 23.8793 12.1883 24.34Z" fill="#3B3B3B"/>
</g>
<defs>
<clipPath id="clip0_1_1225">
<rect width="26" height="26" fill="white" transform="translate(1.31836 -1.52588e-05) rotate(2.90577)"/>
</clipPath>
</defs>
</svg>
