<svg width="37" height="13" viewBox="0 0 37 13" fill="none" xmlns="http://www.w3.org/2000/svg">
<path d="M4.96912 12.9947C3.89646 12.9515 3.01887 12.6541 2.33267 12.1018C2.20171 11.9963 1.88965 11.6799 1.78496 11.5465C1.5067 11.1919 1.31751 10.8469 1.19132 10.4641C0.803043 9.28566 1.00288 7.73932 1.76292 6.04224C2.41367 4.58933 3.41781 3.14832 5.16969 1.15254C5.42775 0.858868 6.19624 0 6.2012 0C6.20305 0 6.16116 0.0735091 6.10844 0.163029C5.65293 0.936103 5.26318 1.84671 5.05085 2.63505C4.70977 3.9 4.75091 4.98554 5.17134 5.82729C5.46136 6.40719 5.95857 6.90949 6.51767 7.18715C7.49646 7.67307 8.92948 7.71327 10.6795 7.30477C10.8 7.27648 16.7705 5.67059 23.9473 3.73604C31.1242 1.8013 36.9971 0.219602 36.998 0.220905C37.0001 0.22258 20.3242 7.45272 11.6675 11.2036C10.2966 11.7975 9.92994 11.9475 9.28544 12.1768C7.63789 12.763 6.16207 13.0427 4.96912 12.9947Z" fill="#3B3B3B"/>
</svg>
