<svg width="24" height="24" viewBox="0 0 24 24" fill="none" xmlns="http://www.w3.org/2000/svg">
<path d="M8.15 8.99926C8.15 7.97818 8.55562 6.99891 9.27764 6.2769C9.99965 5.55489 10.9789 5.14926 12 5.14926C13.0211 5.14926 14.0003 5.55489 14.7224 6.2769C15.4444 6.99891 15.85 7.97818 15.85 8.99926C15.85 10.0203 15.4444 10.9996 14.7224 11.7216C14.0003 12.4436 13.0211 12.8493 12 12.8493C10.9789 12.8493 9.99965 12.4436 9.27764 11.7216C8.55562 10.9996 8.15 10.0203 8.15 8.99926ZM6.06748 10.622C6.37875 11.7598 7.01012 12.7822 7.88398 13.5692C4.7901 14.7477 2.85 17.239 2.85 19.9993C2.85 20.3043 2.97116 20.5968 3.18683 20.8124C3.40249 21.0281 3.695 21.1493 4 21.1493C4.305 21.1493 4.59751 21.0281 4.81317 20.8124C5.02884 20.5968 5.15 20.3043 5.15 19.9993C5.15 17.8376 7.40979 15.1493 12 15.1493C16.5902 15.1493 18.85 17.8376 18.85 19.9993C18.85 20.3043 18.9712 20.5968 19.1868 20.8124C19.4025 21.0281 19.695 21.1493 20 21.1493C20.305 21.1493 20.5975 21.0281 20.8132 20.8124C21.0288 20.5968 21.15 20.3043 21.15 19.9993C21.15 17.239 19.2118 14.7476 16.1151 13.5691C16.9889 12.7822 17.6203 11.7597 17.9315 10.622C18.2655 9.4011 18.2147 8.10687 17.7859 6.91593C17.3572 5.725 16.5714 4.69536 15.5358 3.96753C14.5002 3.23971 13.2653 2.84915 11.9995 2.84915C10.7337 2.84915 9.49879 3.23971 8.46321 3.96753C7.42762 4.69536 6.64183 5.725 6.21307 6.91593C5.78432 8.10687 5.73347 9.4011 6.06748 10.622Z" fill="#3B3B3B" stroke="#3B3B3B" stroke-width="0.3"/>
</svg>
