<svg width="24" height="24" viewBox="0 0 24 24" fill="none" xmlns="http://www.w3.org/2000/svg">
<path d="M19.1516 20.8485L19.1516 20.8484L14.1726 15.8694C13.1323 16.6092 11.913 17.0597 10.6394 17.1733C9.3082 17.292 7.9702 17.0378 6.77523 16.4392C5.58027 15.8406 4.5755 14.9212 3.87342 13.7839C3.17135 12.6467 2.79967 11.3365 2.8 9.99999L19.1516 20.8485ZM19.1516 20.8485C19.3768 21.0735 19.6821 21.1998 20.0004 21.1997C20.3187 21.1996 20.624 21.073 20.849 20.8479C21.074 20.6227 21.2003 20.3174 21.2002 19.9991C21.2001 19.6808 21.0735 19.3756 20.8484 19.1506C20.8484 19.1505 20.8484 19.1505 20.8484 19.1505L15.8684 14.1715C16.4948 13.2904 16.9151 12.2789 17.0973 11.2118C17.2892 10.0877 17.2114 8.93401 16.8702 7.84583C16.529 6.75765 15.9342 5.76608 15.1347 4.95278C14.3353 4.13948 13.3541 3.52772 12.272 3.16786C11.1898 2.808 10.0377 2.71034 8.91037 2.88293C7.78309 3.05552 6.71292 3.49341 5.78801 4.16056C4.86309 4.8277 4.10987 5.70501 3.59039 6.72024C3.07091 7.73545 2.80001 8.85954 2.8 9.99994L19.1516 20.8485ZM6.60589 6.60588C7.50606 5.7057 8.72696 5.19999 10 5.19999C11.273 5.19999 12.4939 5.7057 13.3941 6.60588C14.2943 7.50605 14.8 8.72695 14.8 9.99999C14.8 11.273 14.2943 12.4939 13.3941 13.3941C12.4939 14.2943 11.273 14.8 10 14.8C8.72696 14.8 7.50606 14.2943 6.60589 13.3941C5.70571 12.4939 5.2 11.273 5.2 9.99999C5.2 8.72695 5.70571 7.50605 6.60589 6.60588Z" fill="#3B3B3B" stroke="#3B3B3B" stroke-width="0.4"/>
</svg>
