<svg width="24" height="22" viewBox="0 0 24 22" fill="none" xmlns="http://www.w3.org/2000/svg">
<g clip-path="url(#clip0_1_1328)">
<path d="M23.2392 17.6479L23.2391 17.6472L22.338 6.95609C22.338 6.95595 22.338 6.95581 22.338 6.95566C22.27 6.12504 21.5313 5.49798 20.6802 5.49798H19.1462C19.0491 3.40286 17.2129 1.74997 14.9996 1.74997C12.7862 1.74997 10.9501 3.40286 10.853 5.49798H9.31898C8.46804 5.49798 7.72913 6.12484 7.66138 6.95428C7.66137 6.95442 7.66136 6.95455 7.66135 6.95468L6.75996 17.6487L6.7599 17.6494C6.68405 18.5804 7.02732 19.5037 7.6964 20.1838C8.36486 20.8633 9.30844 21.25 10.2852 21.25H19.714C20.6907 21.25 21.6343 20.8634 22.3028 20.1838L22.1246 20.0085L22.3028 20.1838C22.9719 19.5036 23.3151 18.5804 23.2392 17.6479ZM9.33565 7.11089H10.8489V8.23152C10.8489 8.69087 11.2399 9.03798 11.6899 9.03798C12.14 9.03798 12.5309 8.69087 12.5309 8.23152V7.11089H17.4682V8.23152C17.4682 8.69087 17.8592 9.03798 18.3092 9.03798C18.7593 9.03798 19.1502 8.69087 19.1502 8.23152V7.11089H20.6636L21.5624 17.7751C21.5624 17.7752 21.5624 17.7754 21.5625 17.7756C21.6015 18.2569 21.4324 18.7178 21.0792 19.077C20.7251 19.4368 20.2419 19.6371 19.714 19.6371H10.2852C9.75724 19.6371 9.27412 19.4368 8.92005 19.077C8.56664 18.7177 8.39767 18.2567 8.43671 17.7769C8.43671 17.7768 8.43672 17.7767 8.43673 17.7766L9.33565 7.11089ZM12.538 5.49798C12.6335 4.3176 13.6883 3.36288 14.9996 3.36288C16.3108 3.36288 17.3657 4.31763 17.4612 5.49798H12.538Z" fill="#3C3C3C" stroke="#3C3C3C" stroke-width="0.5"/>
</g>
<defs>
<clipPath id="clip0_1_1328">
<rect width="23.1" height="22" fill="white" transform="translate(0.549805)"/>
</clipPath>
</defs>
</svg>
