<svg width="37" height="10" viewBox="0 0 37 10" fill="none" xmlns="http://www.w3.org/2000/svg">
<path d="M23.1111 4.22619C27.3553 2.58928 29.9977 1.64881 37 0C33.1967 0.24256 24.7869 0.799107 18.9902 1.89137L23.1111 4.22768V4.22619ZM9.91446 9.66072H15.4645C16.5637 8.05357 17.6567 7.27083 18.9301 6.4003C17.963 6.03933 16.9906 5.69158 16.0133 5.35714C12.4721 6.86607 10.5018 8.89137 9.91908 9.66072H9.91446ZM11.0121 3.81548C6.06337 5.52232 3.31304 7.37649 1.45533 9.66072H7.58346C8.18008 8.85863 10.454 6.54613 14.726 4.9375C13.4962 4.5371 12.2575 4.163 11.0106 3.81548H11.0121ZM13.5512 0.220238H0C13.6623 2.60119 20.2467 5.66667 30.8333 10C29.9284 9.34673 15.338 1.05208 13.5528 0.220238" fill="#3B3B3B"/>
</svg>
